<?xml version="1.0" encoding="utf-8"?>
<svg viewBox="0 0 512 512" xmlns="http://www.w3.org/2000/svg">
  <path fill="#472B3C" opacity="1.000000" stroke="none" d=" M360.976501,129.017960 C354.652924,128.450226 353.031921,126.852898 353.021576,120.676552 C352.981110,96.514053 352.896362,72.350769 353.047333,48.189144 C353.136353,33.943848 367.102112,15.736271 381.239777,9.965988 C391.036072,5.967643 401.318420,5.887387 411.509705,5.073990 C423.908691,4.084392 436.350830,3.638995 448.770081,2.888479 C449.481262,2.845501 450.154480,2.174336 450.922668,1.397767 C460.354218,1.000000 469.708466,1.000000 479.535461,1.344022 C487.505371,7.032852 490.147522,14.317339 489.069305,23.339220 C488.637909,26.949011 489.028931,30.653646 488.990387,34.314529 C488.902191,42.700329 482.460693,49.447800 474.031036,49.966473 C471.874390,50.099174 469.701752,49.986092 467.547363,50.139088 C449.720062,51.405113 431.908081,52.943668 414.064819,53.906334 C403.954010,54.451828 401.028168,56.869888 401.011932,67.036430 C400.973694,91.001129 401.122528,114.967102 400.895447,138.929718 C400.849792,143.745605 402.254120,145.144180 407.069733,145.104172 C433.196167,144.886978 459.325378,145.017624 485.453613,144.993225 C495.427429,144.983917 505.880463,143.230316 513.000000,153.000000 C513.000000,163.354233 513.000000,173.708450 512.655518,184.536484 C508.385895,189.649536 503.996307,193.522415 497.565857,193.359421 C497.017120,199.562408 496.320190,205.150436 496.061920,210.758667 C494.970306,234.461014 494.026245,258.170105 492.994141,281.875275 C492.373535,296.128815 491.657776,310.378265 491.042114,324.632019 C490.003754,348.671722 489.033630,372.714355 487.990326,396.753845 C487.386169,410.675018 486.641113,424.590179 486.056763,438.512115 C485.318848,456.092072 484.419952,473.671692 484.113556,491.260559 C483.970551,499.469238 483.092743,506.860565 475.408508,511.636932 C475.106567,511.824585 475.128815,512.533813 475.000000,513.000000 C329.645782,513.000000 184.291550,513.000000 38.445984,512.647461 C34.688305,510.119202 31.338242,508.058289 28.170290,505.747681 C15.401029,496.434174 11.621532,472.388214 25.621399,461.891541 C27.308889,460.626343 29.012251,459.382324 30.688786,458.142853 C23.209139,445.988800 23.779966,430.425598 27.022709,414.198730 C16.166769,414.339111 7.875893,409.798035 2.361366,400.403595 C2.186359,400.105438 1.466087,400.127319 0.999999,400.000000 C1.000000,393.645599 1.000000,387.291199 1.000002,380.468384 C2.602077,378.237213 4.368179,376.595795 5.777950,374.690704 C12.019793,366.255676 21.611427,365.775879 30.679613,364.018799 C32.095650,363.744446 33.510437,363.463593 34.085659,363.350677 C34.085659,354.470490 34.085659,346.204926 34.085659,337.648834 C34.026867,337.615845 33.613720,337.178741 33.210052,337.187347 C21.974857,337.426300 15.478231,328.102753 17.105352,316.887207 C20.860987,291.000122 32.332779,269.467743 53.179409,253.186310 C70.107819,239.965042 89.075394,232.930115 110.679573,232.972687 C158.150070,233.066223 205.620880,233.005463 253.091553,232.995422 C258.911652,232.994202 259.410248,232.225281 258.955719,226.774994 C258.157532,217.204147 257.543274,207.614914 257.055817,198.023026 C256.906799,195.091324 256.803619,193.263870 252.950363,192.788223 C245.879272,191.915283 241.072433,185.652069 241.014267,178.399719 C240.963516,172.070709 240.949249,165.740372 241.018082,159.411697 C241.107925,151.150726 247.262268,145.029388 255.608398,145.019501 C290.420074,144.978256 325.231812,144.996780 360.978760,144.993927 C366.917297,144.967957 371.920624,144.941452 377.372375,144.937042 C384.980927,144.986664 384.994751,144.986664 384.996979,137.828140 C385.004761,112.521461 384.937164,87.214539 385.031921,61.908211 C385.077209,49.815887 394.970642,38.795746 406.244324,38.040970 C426.955231,36.654354 447.671753,35.351379 468.380463,33.933899 C469.759674,33.839493 472.215088,33.179314 472.268616,32.605034 C472.665527,28.347887 473.076050,23.951448 472.290161,19.825859 C472.099579,18.825512 467.466003,18.671543 464.457764,18.121620 C462.072998,18.399220 460.114471,18.829905 458.137543,18.945148 C439.735413,20.017935 421.333160,21.095257 402.924927,22.055418 C381.490631,23.173418 369.005341,36.214989 368.999329,57.664482 C368.993591,78.123138 369.022827,98.581841 368.979614,119.040413 C368.965851,125.557213 367.234070,127.607887 360.976501,129.017960 M356.683258,281.829590 C358.933319,286.825775 361.675751,291.664917 363.329590,296.851227 C366.640533,307.234070 370.748291,317.661835 366.255585,329.249329 C365.182281,330.571991 364.108978,331.894653 362.403259,333.495361 C358.650116,335.034302 354.896973,336.573242 350.780701,338.261047 C354.350494,346.247284 353.557739,354.734344 349.027832,363.396484 C354.025116,364.286774 358.516998,365.087006 363.742889,366.091339 C370.242767,367.095825 375.522888,370.337372 380.228577,375.661652 C385.839569,383.456482 386.311066,391.846954 382.401672,400.853180 C385.099609,400.853180 387.074921,400.853180 389.973816,400.978394 C411.309753,400.940674 432.645721,400.902985 454.910919,400.996582 C460.332489,400.996582 465.754059,400.996582 471.554321,400.996582 C473.183228,363.442078 474.785431,326.502899 476.405762,289.146271 C470.180664,289.146271 464.578003,289.146271 458.048523,289.021301 C430.704163,289.048065 403.359772,289.074860 375.357117,288.835419 C371.413483,287.696228 369.412781,284.943512 368.983826,280.318054 C369.066101,279.632538 369.148376,278.946991 369.687286,277.737640 C371.731812,273.798553 375.196869,272.962677 379.307373,272.964874 C406.203003,272.979248 433.098694,272.891541 460.924377,272.945892 C466.173004,272.945892 471.421600,272.945892 477.164185,272.945892 C478.323883,245.920059 479.450378,219.668396 480.587219,193.175201 C474.422577,193.175201 469.128479,193.175201 462.923859,193.064209 C443.961212,193.096008 424.998596,193.127808 405.094635,193.044922 C361.377777,193.044922 317.660919,193.044922 273.488953,193.044922 C273.717560,196.103943 273.900726,198.554581 273.985352,201.930374 C274.369263,211.065445 274.625122,220.209656 275.277313,229.325531 C275.373383,230.668488 277.270325,232.901077 278.465179,232.991592 C292.598541,234.062378 305.848175,238.133133 319.091797,244.628021 C334.796021,253.460144 347.018524,265.857513 356.683258,281.829590 M224.009750,430.994080 C224.009750,430.994080 224.061737,430.958649 224.016968,430.269867 C213.378174,423.476501 202.779938,416.617676 192.051559,409.968811 C190.638260,409.092926 188.560837,409.034607 186.789688,409.029175 C166.660873,408.967560 146.531769,408.984039 126.402763,409.001068 C124.780518,409.002441 123.158394,409.161804 121.625076,409.243073 C120.465492,415.945221 122.589211,420.334869 128.318542,422.907715 C134.991776,425.904541 141.693420,425.731445 147.860092,421.701874 C156.634796,415.968079 165.149826,415.900024 173.968689,421.585083 C181.042557,426.145294 188.368973,425.995636 195.675247,421.845062 C201.834076,418.346344 204.870193,419.096405 209.092484,425.845886 C209.657089,430.852692 207.154648,433.885864 202.923340,436.153656 C190.627991,442.743256 178.379425,442.878510 166.442474,435.654083 C162.480667,433.256317 159.530228,433.195740 155.575516,435.629578 C145.618652,441.757202 134.840057,442.497009 124.012306,438.292053 C120.258232,436.834137 118.446800,437.677063 116.658211,441.492065 C115.439819,442.703003 114.221436,443.913940 112.375740,445.427826 C104.515793,450.332550 96.726479,450.006042 88.513901,444.655090 C86.736519,442.687408 84.959137,440.719757 83.040878,438.011414 C82.217583,435.553131 81.881325,433.242279 78.173492,432.811462 C73.698456,432.291565 69.379349,430.429657 64.494011,428.683228 C58.742283,423.920349 56.780552,417.392212 56.734699,409.946381 C50.945866,410.800171 47.451843,413.670746 44.699253,417.574036 C39.541882,424.887360 40.327011,433.194916 41.654934,441.210815 C43.187263,450.460571 50.939579,456.754059 60.384914,456.915070 C72.871071,457.127960 85.364998,456.884827 98.752930,456.933380 C100.553528,456.900970 102.354118,456.868530 105.068611,456.926331 C155.850067,456.950806 206.631531,456.978729 257.412994,456.998199 C279.557220,457.006714 301.701538,457.024811 323.845673,456.982361 C331.704529,456.967316 338.138947,454.207336 342.527649,446.443817 C343.351868,443.895172 344.176117,441.346558 345.372498,437.647186 C342.267914,438.545471 340.569946,439.032867 338.874268,439.528015 C329.099609,442.382294 319.886536,440.978851 310.992676,436.162415 C306.503693,433.731445 304.344727,430.339874 305.577881,424.686859 C309.595581,419.365692 312.545074,418.715607 318.327545,421.876953 C327.167084,426.709564 336.309570,425.748840 341.962524,419.393311 C336.872864,409.169800 321.122162,405.064636 311.851929,411.614441 C302.192627,418.439117 292.593109,425.348511 282.403625,432.537109 C279.987000,434.305817 277.632324,436.167389 275.143219,437.827393 C263.377777,445.673889 251.321152,446.374634 239.001724,439.123840 C234.992493,436.764099 231.000473,434.375000 226.526535,431.502899 C225.682007,431.313080 224.837463,431.123260 224.009750,430.994080 M464.043427,161.025696 C395.125793,161.025696 326.208130,161.025696 257.163422,161.025696 C257.163422,164.028641 257.163422,166.498367 257.031250,169.865814 C257.031250,172.126373 257.031250,174.386932 257.031250,176.731644 C337.265381,176.731644 416.899689,176.731644 496.666016,176.731644 C496.666016,171.415863 496.666016,166.374115 496.666016,161.164825 C485.878967,161.164825 475.423279,161.164825 464.043427,161.025696 M364.043121,465.961700 C364.043121,465.961700 363.985870,465.963074 364.236389,466.624390 C370.949249,476.281555 369.879822,486.320831 365.007507,496.521637 C366.321960,496.749542 366.961578,496.957062 367.601288,496.957520 C399.555206,496.979706 431.509277,496.948151 463.462891,497.046295 C466.662811,497.056122 467.486877,495.500580 467.592377,492.835541 C467.881927,485.520935 468.160980,478.205811 468.491028,470.892975 C469.241028,454.274597 469.975952,437.655304 470.825043,421.041901 C470.980377,418.002411 469.936676,416.817291 466.873444,416.966461 C462.556427,417.176636 458.226166,417.116150 452.982544,417.060364 C424.282013,417.090820 395.581451,417.121277 366.048584,417.046753 C363.939240,417.046753 361.829865,417.046753 359.373627,417.046753 C361.943909,431.746277 362.924530,445.772766 353.805511,458.498444 C355.498016,459.424713 356.634247,460.046539 358.321411,461.103699 C359.922943,462.426544 361.524506,463.749359 363.306091,465.489288 C363.494110,465.741760 363.737366,465.918152 364.043121,465.961700 M49.234863,350.651367 C51.409889,358.399353 55.055393,360.993408 63.949940,360.994232 C149.894028,361.002197 235.838104,360.999115 321.782196,360.998322 C322.781494,360.998291 323.783051,361.027008 324.779755,360.972900 C331.542023,360.605743 335.536255,356.893646 336.862488,349.160278 C336.011719,340.619324 331.777069,337.008667 322.438599,337.007507 C236.221024,336.996613 150.003433,337.000885 63.785851,337.002014 C62.787308,337.002014 61.788757,337.027588 60.790222,337.026611 C54.509392,337.020355 48.011669,343.328003 49.234863,350.651367 M342.075348,473.033936 C242.959534,473.022858 143.843719,473.010498 44.727894,473.002502 C33.553596,473.001617 29.967127,479.370087 35.861603,489.856171 C39.693977,495.620209 45.317471,497.052002 51.883602,497.047150 C145.950439,496.977905 240.017334,497.000061 334.084229,496.998077 C335.415924,496.998047 336.753784,497.047729 338.078278,496.942230 C344.863068,496.402069 350.327850,491.960297 352.292450,485.444672 C354.575073,477.874359 351.010925,473.150513 342.075348,473.033936 M17.158772,388.482086 C17.312294,395.746460 20.737963,398.838959 28.256960,396.872040 C44.453735,392.635040 60.887249,392.936798 77.373871,392.976257 C114.204865,393.064392 151.036499,393.071320 187.867111,392.924957 C192.907974,392.904938 197.183060,394.003479 201.448807,396.753479 C215.725754,405.957458 230.200089,414.855438 244.605789,423.859467 C254.184814,429.846680 258.845581,429.733704 267.913757,423.286133 C280.540771,414.308136 293.039124,405.140869 305.864807,396.456726 C308.806366,394.465057 312.801544,393.413574 316.407104,393.126617 C330.792755,391.981567 344.929688,393.962891 358.990509,397.072632 C365.833740,398.586060 369.334167,394.815277 368.345825,387.111908 C366.066925,385.418182 364.011169,382.789978 361.472565,382.183777 C346.054199,378.501953 330.404175,376.888702 314.488953,376.921600 C233.084259,377.089813 151.678864,377.088623 70.274178,376.921265 C54.684326,376.889221 39.385906,378.694763 24.299097,382.249207 C21.727549,382.855042 19.729721,385.896057 17.158772,388.482086 M308.025635,257.286652 C307.690735,257.162506 307.355865,257.038330 306.511230,256.439270 C299.241333,254.263412 292.033234,250.484436 284.690338,250.201279 C258.857849,249.205078 232.979034,249.409821 206.163528,249.034668 C174.672668,249.024658 143.180420,248.834335 111.691498,249.076126 C94.401100,249.208908 78.620094,254.412018 64.293205,265.448669 C51.102867,275.804718 41.460361,288.611359 36.546432,305.590729 C35.481846,310.484894 34.417259,315.379059 33.300682,320.512238 C140.322464,320.512238 246.085480,320.512238 352.824615,320.512238 C351.429749,314.547363 350.640259,309.097626 348.874817,303.984894 C341.663544,283.100983 328.684692,267.111420 308.243835,257.653900 C308.243835,257.653900 308.281311,257.767090 308.025635,257.286652 M97.006363,412.781799 C97.018639,418.099030 96.735481,423.444031 97.231049,428.715820 C97.371750,430.212616 99.781326,431.496124 101.150398,432.877441 C102.413818,431.562103 104.684029,430.308014 104.768425,428.920959 C105.158485,422.510406 104.940643,416.062866 104.940643,409.176636 C101.730835,409.704529 98.173584,406.768585 97.006363,412.781799 M80.948074,413.060577 C81.241104,405.899902 76.339912,410.019958 72.377327,410.110901 C73.379784,412.235107 74.382248,414.359283 75.384697,416.483490 C77.194168,415.613617 79.003639,414.743744 80.948074,413.060577 z"/>
  <path fill="#666565" opacity="1.000000" stroke="none" d=" M360.984100,129.482971 C367.234070,127.607887 368.965851,125.557213 368.979614,119.040413 C369.022827,98.581841 368.993591,78.123138 368.999329,57.664482 C369.005341,36.214989 381.490631,23.173418 402.924927,22.055418 C421.333160,21.095257 439.735413,20.017935 458.137543,18.945148 C460.114471,18.829905 462.072998,18.399220 464.410339,18.459875 C463.451477,23.769264 459.776428,25.600685 455.083923,25.918692 C439.672424,26.963125 424.266815,28.141024 408.841400,28.921885 C389.455627,29.903229 377.030914,42.623363 377.005310,61.992981 C376.968811,89.633629 376.950195,117.274292 376.923920,144.914948 C371.920624,144.941452 366.917297,144.967957 361.446045,144.988297 C360.982605,139.970749 360.987152,134.959351 360.984100,129.482971 z"/>
  <path fill="#E02B4F" opacity="1.000000" stroke="none" d=" M459.994385,272.837158 C433.098694,272.891541 406.203003,272.979248 379.307373,272.964874 C375.196869,272.962677 371.731812,273.798553 369.209839,277.741760 C362.847870,271.693268 357.425812,265.083984 350.969116,259.720093 C341.581238,251.921143 330.910095,246.147400 318.596130,244.104492 C305.848175,238.133133 292.598541,234.062378 278.465179,232.991592 C277.270325,232.901077 275.373383,230.668488 275.277313,229.325531 C274.625122,220.209656 274.369263,211.065445 274.497314,201.465942 C313.470367,201.000809 351.931458,200.995804 390.392578,201.003647 C396.932220,201.004990 402.539642,199.201218 406.035950,193.159607 C424.998596,193.127808 443.961212,193.096008 463.321655,193.517853 C463.513428,195.279984 463.176666,196.582932 463.120789,197.897797 C462.058868,222.876740 461.030060,247.857101 459.994385,272.837158 z"/>
  <path fill="#E89A10" opacity="1.000000" stroke="none" d=" M207.117798,249.158859 C232.979034,249.409821 258.857849,249.205078 284.690338,250.201279 C292.033234,250.484436 299.241333,254.263412 306.929718,256.879944 C307.659241,257.469452 307.970276,257.618256 308.281311,257.767090 C308.281311,257.767090 308.243835,257.653900 308.268433,258.031952 C308.639404,259.516205 308.871979,260.674255 309.348907,261.720947 C319.127441,283.181244 301.273865,305.334290 279.459991,305.198822 C198.637222,304.696960 117.809502,304.991089 36.983650,304.986145 C41.460361,288.611359 51.102867,275.804718 64.706123,265.642761 C72.673637,276.681305 85.742577,278.257141 98.639450,270.036224 C102.323502,273.942017 106.828499,272.969727 111.047424,272.984772 C117.362396,273.007355 119.372292,271.351685 121.613541,265.073944 C132.328232,265.043549 142.583984,265.019226 152.919678,265.358002 C155.254150,272.445221 156.917191,273.275330 167.604370,273.010681 C173.424301,272.866577 175.470398,271.150391 177.611832,264.998383 C180.868362,264.990967 183.677124,265.093384 186.473785,264.953613 C195.857010,264.484772 204.407669,257.899597 207.117798,249.158859 M223.803864,269.102875 C226.082443,262.869568 223.692795,257.791473 217.874710,257.127991 C214.602402,256.754852 210.941132,256.247040 208.025360,257.332214 C205.338226,258.332275 202.018509,261.116394 201.547302,263.601868 C201.080872,266.062103 203.138748,269.980804 205.316406,271.746460 C209.155823,274.859467 219.468201,273.183990 223.803864,269.102875 M272.146362,269.612915 C268.411316,264.567200 256.477325,262.659912 252.146896,266.982880 C250.346664,268.779999 248.898926,272.572540 249.567352,274.763062 C250.315918,277.216309 253.351135,279.534912 255.937286,280.693176 C258.161346,281.689270 261.155518,281.054962 263.805695,280.993134 C270.624512,280.834137 273.538910,277.204437 272.146362,269.612915 M203.508362,281.444672 C199.878342,281.305634 196.235565,280.911865 192.621552,281.092712 C188.210709,281.313477 185.128937,284.696930 185.032547,288.815765 C184.931610,293.128601 188.112137,296.568481 192.758743,296.946899 C195.065216,297.134735 197.398834,296.964508 199.718765,297.017548 C203.991028,297.115204 207.277939,295.494019 208.554947,291.269623 C209.834686,287.036194 208.125763,283.846344 203.508362,281.444672 M143.805374,284.898743 C139.946762,280.730927 128.775177,278.943115 124.713753,282.582672 C122.724243,284.365570 120.927879,288.302612 121.560837,290.558624 C122.273720,293.099518 125.524010,295.486664 128.227325,296.735840 C130.423035,297.750397 133.444427,297.077179 136.094299,296.990448 C142.975372,296.765228 145.994995,292.451782 143.805374,284.898743 z"/>
  <path fill="#E2DEDE" opacity="1.000000" stroke="none" d=" M363.035645,333.217285 C364.108978,331.894653 365.182281,330.571991 366.988159,329.089539 C370.385284,328.943207 373.056458,329.083710 375.712982,328.944733 C382.002686,328.615662 385.701813,324.408691 384.216461,318.295959 C381.831116,308.479889 378.783264,298.824768 376.015411,289.101654 C403.359772,289.074860 430.704163,289.048065 458.528748,289.542542 C458.357330,304.975800 457.637238,319.885284 457.070801,334.800568 C456.302612,355.027649 455.671936,375.259949 454.917206,395.487579 C454.850006,397.289276 454.304840,399.073120 453.981659,400.865265 C432.645721,400.902985 411.309753,400.940674 389.658173,400.605377 C390.091095,398.935944 390.938049,397.685760 391.572510,396.335693 C395.944183,387.033752 390.064606,376.175262 380.040405,374.977539 C375.522888,370.337372 370.242767,367.095825 363.375549,365.628571 C363.810059,363.560364 364.472565,361.865448 365.437073,360.364563 C370.347748,352.723145 370.330841,345.157318 365.370575,337.551514 C364.477264,336.181763 363.808228,334.665741 363.035645,333.217285 z"/>
  <path fill="#C97700" opacity="1.000000" stroke="none" d=" M36.765041,305.288452 C117.809502,304.991089 198.637222,304.696960 279.459991,305.198822 C301.273865,305.334290 319.127441,283.181244 309.348907,261.720947 C308.871979,260.674255 308.639404,259.516205 308.325226,258.013855 C328.684692,267.111420 341.663544,283.100983 348.874817,303.984894 C350.640259,309.097626 351.429749,314.547363 352.824615,320.512238 C246.085480,320.512238 140.322464,320.512238 33.300682,320.512238 C34.417259,315.379059 35.481846,310.484894 36.765041,305.288452 z"/>
  <path fill="#FEC93A" opacity="1.000000" stroke="none" d=" M17.466850,387.812073 C19.729721,385.896057 21.727549,382.855042 24.299097,382.249207 C39.385906,378.694763 54.684326,376.889221 70.274178,376.921265 C151.678864,377.088623 233.084259,377.089813 314.488953,376.921600 C330.404175,376.888702 346.054199,378.501953 361.472565,382.183777 C364.011169,382.789978 366.066925,385.418182 368.051392,387.617554 C363.355225,388.278381 358.746521,389.352203 354.590729,388.415863 C342.308655,385.648651 329.970795,384.290741 317.443420,385.105621 C314.631287,385.288574 311.492004,386.182587 309.206238,387.764740 C296.475464,396.576508 283.983429,405.732300 271.365570,414.708374 C261.456573,421.757385 251.848267,421.875031 241.595383,415.406464 C228.780121,407.321289 215.905258,399.330292 203.035629,391.331665 C196.076691,387.006561 188.512833,384.955444 180.276245,384.970886 C142.799774,385.041138 105.322235,385.144531 67.846992,384.919312 C55.630260,384.845856 43.654640,385.793579 31.680559,388.323792 C27.179665,389.274841 22.218292,388.046722 17.466850,387.812073 z"/>
  <path fill="#E89A10" opacity="1.000000" stroke="none" d=" M35.576038,489.222534 C29.967127,479.370087 33.553596,473.001617 44.727894,473.002502 C143.843719,473.010498 242.959534,473.022858 342.512573,473.439148 C339.198181,483.531494 330.773590,488.994385 319.437408,488.995514 C227.646408,489.004791 135.855392,488.999023 44.064388,489.010498 C41.234932,489.010864 38.405487,489.148773 35.576038,489.222534 z"/>
  <path fill="#E02B4F" opacity="1.000000" stroke="none" d=" M366.880920,417.151733 C395.581451,417.121277 424.282013,417.090820 453.452576,417.540283 C453.634369,420.996582 453.233704,423.966980 453.075623,426.950226 C451.852386,450.036407 436.595978,470.043274 414.820496,477.655029 C404.150879,481.384674 393.211975,480.924622 382.236450,481.068390 C378.822113,481.113098 377.220734,480.005615 376.265289,476.663605 C374.534637,470.610199 370.652496,466.574097 363.985870,465.963074 C363.985870,465.963074 364.043121,465.961700 363.921753,465.800995 C363.610199,465.409821 363.385437,465.220459 363.126038,465.072205 C361.524506,463.749359 359.922943,462.426544 358.186615,460.590515 C363.387970,454.262390 368.719971,448.180023 368.745422,439.860809 C368.768585,432.293091 367.551361,424.721588 366.880920,417.151733 z"/>
  <path fill="#8AC926" opacity="1.000000" stroke="none" d=" M49.297039,349.921875 C48.011669,343.328003 54.509392,337.020355 60.790222,337.026611 C61.788757,337.027588 62.787308,337.002014 63.785851,337.002014 C150.003433,337.000885 236.221024,336.996613 322.438599,337.007507 C331.777069,337.008667 336.011719,340.619324 336.437561,349.636810 C331.349823,351.075745 326.688660,352.868195 322.023956,352.877411 C236.780869,353.046082 151.537216,353.059357 66.294235,352.868652 C60.626335,352.855988 54.962673,350.948181 49.297039,349.921875 z"/>
  <path fill="#C90030" opacity="1.000000" stroke="none" d=" M364.111145,466.293732 C370.652496,466.574097 374.534637,470.610199 376.265289,476.663605 C377.220734,480.005615 378.822113,481.113098 382.236450,481.068390 C393.211975,480.924622 404.150879,481.384674 414.820496,477.655029 C436.595978,470.043274 451.852386,450.036407 453.075623,426.950226 C453.233704,423.966980 453.634369,420.996582 453.912109,417.595825 C458.226166,417.116150 462.556427,417.176636 466.873444,416.966461 C469.936676,416.817291 470.980377,418.002411 470.825043,421.041901 C469.975952,437.655304 469.241028,454.274597 468.491028,470.892975 C468.160980,478.205811 467.881927,485.520935 467.592377,492.835541 C467.486877,495.500580 466.662811,497.056122 463.462891,497.046295 C431.509277,496.948151 399.555206,496.979706 367.601288,496.957520 C366.961578,496.957062 366.321960,496.749542 365.007507,496.521637 C369.879822,486.320831 370.949249,476.281555 364.111145,466.293732 z"/>
  <path fill="#C97700" opacity="1.000000" stroke="none" d=" M35.718819,489.539368 C38.405487,489.148773 41.234932,489.010864 44.064388,489.010498 C135.855392,488.999023 227.646408,489.004791 319.437408,488.995514 C330.773590,488.994385 339.198181,483.531494 342.979126,473.492126 C351.010925,473.150513 354.575073,477.874359 352.292450,485.444672 C350.327850,491.960297 344.863068,496.402069 338.078278,496.942230 C336.753784,497.047729 335.415924,496.998047 334.084229,496.998077 C240.017334,497.000061 145.950439,496.977905 51.883602,497.047150 C45.317471,497.052002 39.693977,495.620209 35.718819,489.539368 z"/>
  <path fill="#FD9601" opacity="1.000000" stroke="none" d=" M17.312811,388.147095 C22.218292,388.046722 27.179665,389.274841 31.680559,388.323792 C43.654640,385.793579 55.630260,384.845856 67.846992,384.919312 C105.322235,385.144531 142.799774,385.041138 180.276245,384.970886 C188.512833,384.955444 196.076691,387.006561 203.035629,391.331665 C215.905258,399.330292 228.780121,407.321289 241.595383,415.406464 C251.848267,421.875031 261.456573,421.757385 271.365570,414.708374 C283.983429,405.732300 296.475464,396.576508 309.206238,387.764740 C311.492004,386.182587 314.631287,385.288574 317.443420,385.105621 C329.970795,384.290741 342.308655,385.648651 354.590729,388.415863 C358.746521,389.352203 363.355225,388.278381 368.141907,387.975159 C369.334167,394.815277 365.833740,398.586060 358.990509,397.072632 C344.929688,393.962891 330.792755,391.981567 316.407104,393.126617 C312.801544,393.413574 308.806366,394.465057 305.864807,396.456726 C293.039124,405.140869 280.540771,414.308136 267.913757,423.286133 C258.845581,429.733704 254.184814,429.846680 244.605789,423.859467 C230.200089,414.855438 215.725754,405.957458 201.448807,396.753479 C197.183060,394.003479 192.907974,392.904938 187.867111,392.924957 C151.036499,393.071320 114.204865,393.064392 77.373871,392.976257 C60.887249,392.936798 44.453735,392.635040 28.256960,396.872040 C20.737963,398.838959 17.312294,395.746460 17.312811,388.147095 z"/>
  <path fill="#9E7059" opacity="1.000000" stroke="none" d=" M342.045013,446.945251 C338.138947,454.207336 331.704529,456.967316 323.845673,456.982361 C301.701538,457.024811 279.557220,457.006714 257.412994,456.998199 C206.631531,456.978729 155.850067,456.950806 104.868111,456.695435 C109.460304,454.165222 112.587723,450.641876 113.003052,445.124908 C114.221436,443.913940 115.439819,442.703003 117.152908,441.434113 C129.328812,450.776917 140.846878,451.578369 153.514679,443.616760 C158.814957,440.285583 163.711166,440.502106 168.880066,443.871643 C179.597763,450.858276 190.509018,450.904144 201.154678,443.810486 C206.560623,440.208282 211.506042,440.054626 216.814636,443.824982 C223.220108,448.374329 230.359497,449.733093 238.166443,448.572968 C240.449295,448.233734 243.109695,448.815704 245.292511,449.714722 C253.011673,452.893982 260.441193,452.765411 267.965179,449.067108 C269.704895,448.212006 272.094940,447.842010 273.970520,448.246460 C282.053894,449.989746 289.610199,448.927277 296.405487,444.293121 C302.235626,440.317200 307.632172,440.241486 313.485962,444.229126 C320.959991,449.320465 329.163269,450.260773 337.811279,447.529266 C339.150421,447.106293 340.630249,447.128754 342.045013,446.945251 z"/>
  <path fill="#7AA822" opacity="1.000000" stroke="none" d=" M49.265953,350.286621 C54.962673,350.948181 60.626335,352.855988 66.294235,352.868652 C151.537216,353.059357 236.780869,353.046082 322.023956,352.877411 C326.688660,352.868195 331.349823,351.075745 336.355713,350.017456 C335.536255,356.893646 331.542023,360.605743 324.779755,360.972900 C323.783051,361.027008 322.781494,360.998291 321.782196,360.998322 C235.838104,360.999115 149.894028,361.002197 63.949940,360.994232 C55.055393,360.993408 51.409889,358.399353 49.265953,350.286621 z"/>
  <path fill="#D3BEBE" opacity="1.000000" stroke="none" d=" M464.967590,161.164825 C475.423279,161.164825 485.878967,161.164825 496.666016,161.164825 C496.666016,166.374115 496.666016,171.415863 496.666016,176.731644 C416.899689,176.731644 337.265381,176.731644 257.031250,176.731644 C257.031250,174.386932 257.031250,172.126373 257.555511,169.424240 C276.559906,168.988449 295.040009,168.998352 313.520142,168.999191 C360.469696,169.001328 407.419281,169.006622 454.368835,168.991394 C461.546204,168.989059 463.554749,167.456970 464.967590,161.164825 z"/>
  <path fill="#985B3F" opacity="1.000000" stroke="none" d=" M342.286316,446.694519 C340.630249,447.128754 339.150421,447.106293 337.811279,447.529266 C329.163269,450.260773 320.959991,449.320465 313.485962,444.229126 C307.632172,440.241486 302.235626,440.317200 296.405487,444.293121 C289.610199,448.927277 282.053894,449.989746 273.970520,448.246460 C272.094940,447.842010 269.704895,448.212006 267.965179,449.067108 C260.441193,452.765411 253.011673,452.893982 245.292511,449.714722 C243.109695,448.815704 240.449295,448.233734 238.166443,448.572968 C230.359497,449.733093 223.220108,448.374329 216.814636,443.824982 C211.506042,440.054626 206.560623,440.208282 201.154678,443.810486 C190.509018,450.904144 179.597763,450.858276 168.880066,443.871643 C163.711166,440.502106 158.814957,440.285583 153.514679,443.616760 C140.846878,451.578369 129.328812,450.776917 117.371468,441.197845 C118.446800,437.677063 120.258232,436.834137 124.012306,438.292053 C134.840057,442.497009 145.618652,441.757202 155.575516,435.629578 C159.530228,433.195740 162.480667,433.256317 166.442474,435.654083 C178.379425,442.878510 190.627991,442.743256 202.923340,436.153656 C207.154648,433.885864 209.657089,430.852692 209.464722,425.454437 C211.531967,425.608215 213.281494,426.026489 214.910263,426.725952 C217.997314,428.051727 221.015137,429.538666 224.061737,430.958649 C224.061737,430.958649 224.009750,430.994080 224.232239,431.200165 C225.303360,431.603943 226.151978,431.801636 227.000580,431.999359 C231.000473,434.375000 234.992493,436.764099 239.001724,439.123840 C251.321152,446.374634 263.377777,445.673889 275.143219,437.827393 C277.632324,436.167389 279.987000,434.305817 282.992096,432.562134 C287.585571,431.371429 291.622772,430.250916 295.585449,428.910126 C298.811798,427.818542 301.948914,426.463074 305.125580,425.224609 C304.344727,430.339874 306.503693,433.731445 310.992676,436.162415 C319.886536,440.978851 329.099609,442.382294 338.874268,439.528015 C340.569946,439.032867 342.267914,438.545471 345.372498,437.647186 C344.176117,441.346558 343.351868,443.895172 342.286316,446.694519 z"/>
  <path fill="#D2BDBD" opacity="1.000000" stroke="none" d=" M454.446289,400.930908 C454.304840,399.073120 454.850006,397.289276 454.917206,395.487579 C455.671936,375.259949 456.302612,355.027649 457.070801,334.800568 C457.637238,319.885284 458.357330,304.975800 458.992126,289.605011 C464.578003,289.146271 470.180664,289.146271 476.405762,289.146271 C474.785431,326.502899 473.183228,363.442078 471.554321,400.996582 C465.754059,400.996582 460.332489,400.996582 454.446289,400.930908 z"/>
  <path fill="#EEAA48" opacity="1.000000" stroke="none" d=" M206.640656,249.096771 C204.407669,257.899597 195.857010,264.484772 186.473785,264.953613 C183.677124,265.093384 180.868362,264.990967 177.529327,264.636169 C174.721283,257.540527 173.122421,256.743317 162.388245,256.990906 C156.576004,257.124939 154.496658,258.867950 152.839737,264.994873 C142.583984,265.019226 132.328232,265.043549 121.534454,264.702087 C118.809395,257.676178 117.405853,256.918762 107.381981,256.989319 C98.493874,257.051880 95.327507,261.562469 98.357666,269.844666 C85.742577,278.257141 72.673637,276.681305 65.004028,265.525024 C78.620094,254.412018 94.401100,249.208908 111.691498,249.076126 C143.180420,248.834335 174.672668,249.024658 206.640656,249.096771 z"/>
  <path fill="#4D4D4D" opacity="1.000000" stroke="none" d=" M377.372375,144.937042 C376.950195,117.274292 376.968811,89.633629 377.005310,61.992981 C377.030914,42.623363 389.455627,29.903229 408.841400,28.921885 C424.266815,28.141024 439.672424,26.963125 455.083923,25.918692 C459.776428,25.600685 463.451477,23.769264 464.828064,18.466637 C467.466003,18.671543 472.099579,18.825512 472.290161,19.825859 C473.076050,23.951448 472.665527,28.347887 472.268616,32.605034 C472.215088,33.179314 469.759674,33.839493 468.380463,33.933899 C447.671753,35.351379 426.955231,36.654354 406.244324,38.040970 C394.970642,38.795746 385.077209,49.815887 385.031921,61.908211 C384.937164,87.214539 385.004761,112.521461 384.996979,137.828140 C384.994751,144.986664 384.980927,144.986664 377.372375,144.937042 z"/>
  <path fill="#E2DEDE" opacity="1.000000" stroke="none" d=" M464.505493,161.095261 C463.554749,167.456970 461.546204,168.989059 454.368835,168.991394 C407.419281,169.006622 360.469696,169.001328 313.520142,168.999191 C295.040009,168.998352 276.559906,168.988449 257.621582,168.975372 C257.163422,166.498367 257.163422,164.028641 257.163422,161.025696 C326.208130,161.025696 395.125793,161.025696 464.505493,161.095261 z"/>
  <path fill="#C80130" opacity="1.000000" stroke="none" d=" M460.459412,272.891541 C461.030060,247.857101 462.058868,222.876740 463.120789,197.897797 C463.176666,196.582932 463.513428,195.279984 463.776917,193.573349 C469.128479,193.175201 474.422577,193.175201 480.587219,193.175201 C479.450378,219.668396 478.323883,245.920059 477.164185,272.945892 C471.421600,272.945892 466.173004,272.945892 460.459412,272.891541 z"/>
  <path fill="#9D6F59" opacity="1.000000" stroke="none" d=" M97.855583,456.837677 C85.364998,456.884827 72.871071,457.127960 60.384914,456.915070 C50.939579,456.754059 43.187263,450.460571 41.654934,441.210815 C40.327011,433.194916 39.541882,424.887360 44.699253,417.574036 C47.451843,413.670746 50.945866,410.800171 56.734699,409.946381 C56.780552,417.392212 58.742283,423.920349 64.772186,429.279114 C67.574196,439.786224 75.033844,443.438446 83.181747,438.752106 C84.959137,440.719757 86.736519,442.687408 88.783646,445.250061 C89.696907,451.343384 93.266945,454.498352 97.855583,456.837677 z"/>
  <path fill="#DD6480" opacity="1.000000" stroke="none" d=" M405.565308,193.102264 C402.539642,199.201218 396.932220,201.004990 390.392578,201.003647 C351.931458,200.995804 313.470367,201.000809 274.546570,201.003357 C273.900726,198.554581 273.717560,196.103943 273.488953,193.044922 C317.660919,193.044922 361.377777,193.044922 405.565308,193.102264 z"/>
  <path fill="#DC2C4F" opacity="1.000000" stroke="none" d=" M224.039352,430.614258 C221.015137,429.538666 217.997314,428.051727 214.910263,426.725952 C213.281494,426.026489 211.531967,425.608215 209.467194,425.038849 C204.870193,419.096405 201.834076,418.346344 195.675247,421.845062 C188.368973,425.995636 181.042557,426.145294 173.968689,421.585083 C165.149826,415.900024 156.634796,415.968079 147.860092,421.701874 C141.693420,425.731445 134.991776,425.904541 128.318542,422.907715 C122.589211,420.334869 120.465492,415.945221 121.625076,409.243073 C123.158394,409.161804 124.780518,409.002441 126.402763,409.001068 C146.531769,408.984039 166.660873,408.967560 186.789688,409.029175 C188.560837,409.034607 190.638260,409.092926 192.051559,409.968811 C202.779938,416.617676 213.378174,423.476501 224.039352,430.614258 M133.623123,412.989319 C130.959412,412.989319 128.295700,412.989319 125.142952,412.989319 C128.262955,420.251373 135.726074,422.828888 142.894653,419.781433 C147.098404,417.994354 151.029510,415.565979 155.910690,412.989288 C148.153976,412.989288 141.372025,412.989288 133.623123,412.989319 M170.324142,415.128540 C172.634827,416.425964 174.915649,417.780365 177.261948,419.009796 C183.622742,422.342865 190.229935,421.543182 194.966736,416.382141 C185.623276,410.141479 175.522980,414.258911 165.972488,413.660248 C167.202011,414.058685 168.431549,414.457092 170.324142,415.128540 z"/>
  <path fill="#D2BDBD" opacity="1.000000" stroke="none" d=" M375.686279,288.968536 C378.783264,298.824768 381.831116,308.479889 384.216461,318.295959 C385.701813,324.408691 382.002686,328.615662 375.712982,328.944733 C373.056458,329.083710 370.385284,328.943207 367.247192,328.904297 C370.748291,317.661835 366.640533,307.234070 363.329590,296.851227 C361.675751,291.664917 358.933319,286.825775 357.069336,281.427124 C361.253082,281.015747 365.050720,281.006866 368.848389,280.997986 C369.412781,284.943512 371.413483,287.696228 375.686279,288.968536 z"/>
  <path fill="#D1BCBD" opacity="1.000000" stroke="none" d=" M362.719482,333.356323 C363.808228,334.665741 364.477264,336.181763 365.370575,337.551514 C370.330841,345.157318 370.347748,352.723145 365.437073,360.364563 C364.472565,361.865448 363.810059,363.560364 363.008545,365.526520 C358.516998,365.087006 354.025116,364.286774 349.027832,363.396484 C353.557739,354.734344 354.350494,346.247284 350.780701,338.261047 C354.896973,336.573242 358.650116,335.034302 362.719482,333.356323 z"/>
  <path fill="#C80131" opacity="1.000000" stroke="none" d=" M368.916107,280.658020 C365.050720,281.006866 361.253082,281.015747 356.953217,281.068237 C347.018524,265.857513 334.796021,253.460144 318.843964,244.366257 C330.910095,246.147400 341.581238,251.921143 350.969116,259.720093 C357.425812,265.083984 362.847870,271.693268 368.981506,278.003693 C369.148376,278.946991 369.066101,279.632538 368.916107,280.658020 z"/>
  <path fill="#DB2C4F" opacity="1.000000" stroke="none" d=" M305.351746,424.955750 C301.948914,426.463074 298.811798,427.818542 295.585449,428.910126 C291.622772,430.250916 287.585571,431.371429 283.274017,432.403992 C292.593109,425.348511 302.192627,418.439117 311.851929,411.614441 C321.122162,405.064636 336.872864,409.169800 341.962524,419.393311 C336.309570,425.748840 327.167084,426.709564 318.327545,421.876953 C312.545074,418.715607 309.595581,419.365692 305.351746,424.955750 M316.029663,415.657928 C325.482605,422.018219 330.805817,422.735748 336.068542,418.359009 C331.525635,412.536835 320.223938,410.703491 316.029663,415.657928 z"/>
  <path fill="#C80131" opacity="1.000000" stroke="none" d=" M366.464752,417.099243 C367.551361,424.721588 368.768585,432.293091 368.745422,439.860809 C368.719971,448.180023 363.387970,454.262390 357.911133,460.372864 C356.634247,460.046539 355.498016,459.424713 353.805511,458.498444 C362.924530,445.772766 361.943909,431.746277 359.373627,417.046753 C361.829865,417.046753 363.939240,417.046753 366.464752,417.099243 z"/>
  <path fill="#D1BCBD" opacity="1.000000" stroke="none" d=" M380.134491,375.319580 C390.064606,376.175262 395.944183,387.033752 391.572510,396.335693 C390.938049,397.685760 390.091095,398.935944 389.196381,400.542786 C387.074921,400.853180 385.099609,400.853180 382.401672,400.853180 C386.311066,391.846954 385.839569,383.456482 380.134491,375.319580 z"/>
  <path fill="#E02B4F" opacity="1.000000" stroke="none" d=" M97.014488,412.315613 C98.173584,406.768585 101.730835,409.704529 104.940643,409.176636 C104.940643,416.062866 105.158485,422.510406 104.768425,428.920959 C104.684029,430.308014 102.413818,431.562103 101.150398,432.877441 C99.781326,431.496124 97.371750,430.212616 97.231049,428.715820 C96.735481,423.444031 97.018639,418.099030 97.014488,412.315613 z"/>
  <path fill="#985B3F" opacity="1.000000" stroke="none" d=" M98.304260,456.885529 C93.266945,454.498352 89.696907,451.343384 89.026123,445.478577 C96.726479,450.006042 104.515793,450.332550 112.689400,445.276367 C112.587723,450.641876 109.460304,454.165222 104.411163,456.650299 C102.354118,456.868530 100.553528,456.900970 98.304260,456.885529 z"/>
  <path fill="#985B3F" opacity="1.000000" stroke="none" d=" M83.111313,438.381775 C75.033844,443.438446 67.574196,439.786224 65.021553,429.511810 C69.379349,430.429657 73.698456,432.291565 78.173492,432.811462 C81.881325,433.242279 82.217583,435.553131 83.111313,438.381775 z"/>
  <path fill="#DC2C4F" opacity="1.000000" stroke="none" d=" M80.880600,413.467224 C79.003639,414.743744 77.194168,415.613617 75.384705,416.483490 C74.382248,414.359283 73.379784,412.235107 72.377327,410.110901 C76.339912,410.019958 81.241104,405.899902 80.880600,413.467224 z"/>
  <path fill="#DC2C4F" opacity="1.000000" stroke="none" d=" M226.763550,431.751129 C226.151978,431.801636 225.303360,431.603943 224.223846,431.169861 C224.837463,431.123260 225.682007,431.313080 226.763550,431.751129 z"/>
  <path fill="#C97700" opacity="1.000000" stroke="none" d=" M308.153473,257.526855 C307.970276,257.618256 307.659241,257.469452 307.184570,257.117401 C307.355865,257.038330 307.690735,257.162506 308.153473,257.526855 z"/>
  <path fill="#C90030" opacity="1.000000" stroke="none" d=" M363.216064,465.280762 C363.385437,465.220459 363.610199,465.409821 363.918091,465.829407 C363.737366,465.918152 363.494110,465.741760 363.216064,465.280762 z"/>
  <path fill="#4C2E3C" opacity="1.000000" stroke="none" d=" M98.639450,270.036224 C95.327507,261.562469 98.493874,257.051880 107.381981,256.989319 C117.405853,256.918762 118.809395,257.676178 121.075508,264.708130 C119.372292,271.351685 117.362396,273.007355 111.047424,272.984772 C106.828499,272.969727 102.323502,273.942017 98.639450,270.036224 z"/>
  <path fill="#4C2E3C" opacity="1.000000" stroke="none" d=" M152.919678,265.358002 C154.496658,258.867950 156.576004,257.124939 162.388245,256.990906 C173.122421,256.743317 174.721283,257.540527 177.076004,264.635040 C175.470398,271.150391 173.424301,272.866577 167.604370,273.010681 C156.917191,273.275330 155.254150,272.445221 152.919678,265.358002 z"/>
  <path fill="#4C2E3B" opacity="1.000000" stroke="none" d=" M223.580322,269.423828 C219.468201,273.183990 209.155823,274.859467 205.316406,271.746460 C203.138748,269.980804 201.080872,266.062103 201.547302,263.601868 C202.018509,261.116394 205.338226,258.332275 208.025360,257.332214 C210.941132,256.247040 214.602402,256.754852 217.874710,257.127991 C223.692795,257.791473 226.082443,262.869568 223.580322,269.423828 z"/>
  <path fill="#4C2E3B" opacity="1.000000" stroke="none" d=" M272.306091,269.969055 C273.538910,277.204437 270.624512,280.834137 263.805695,280.993134 C261.155518,281.054962 258.161346,281.689270 255.937286,280.693176 C253.351135,279.534912 250.315918,277.216309 249.567352,274.763062 C248.898926,272.572540 250.346664,268.779999 252.146896,266.982880 C256.477325,262.659912 268.411316,264.567200 272.306091,269.969055 z"/>
  <path fill="#4C2E3B" opacity="1.000000" stroke="none" d=" M203.882004,281.617371 C208.125763,283.846344 209.834686,287.036194 208.554947,291.269623 C207.277939,295.494019 203.991028,297.115204 199.718765,297.017548 C197.398834,296.964508 195.065216,297.134735 192.758743,296.946899 C188.112137,296.568481 184.931610,293.128601 185.032547,288.815765 C185.128937,284.696930 188.210709,281.313477 192.621552,281.092712 C196.235565,280.911865 199.878342,281.305634 203.882004,281.617371 z"/>
  <path fill="#4C2E3B" opacity="1.000000" stroke="none" d=" M143.975037,285.253906 C145.994995,292.451782 142.975372,296.765228 136.094299,296.990448 C133.444427,297.077179 130.423035,297.750397 128.227325,296.735840 C125.524010,295.486664 122.273720,293.099518 121.560837,290.558624 C120.927879,288.302612 122.724243,284.365570 124.713753,282.582672 C128.775177,278.943115 139.946762,280.730927 143.975037,285.253906 z"/>
  <path fill="#F3626E" opacity="1.000000" stroke="none" d=" M134.106598,412.989319 C141.372025,412.989288 148.153976,412.989288 155.910690,412.989288 C151.029510,415.565979 147.098404,417.994354 142.894653,419.781433 C135.726074,422.828888 128.262955,420.251373 125.142952,412.989319 C128.295700,412.989319 130.959412,412.989319 134.106598,412.989319 z"/>
  <path fill="#F3626E" opacity="1.000000" stroke="none" d=" M169.992615,414.992035 C168.431549,414.457092 167.202011,414.058685 165.972488,413.660248 C175.522980,414.258911 185.623276,410.141479 194.966736,416.382141 C190.229935,421.543182 183.622742,422.342865 177.261948,419.009796 C174.915649,417.780365 172.634827,416.425964 169.992615,414.992035 z"/>
  <path fill="#F3626E" opacity="1.000000" stroke="none" d=" M315.869080,415.357086 C320.223938,410.703491 331.525635,412.536835 336.068542,418.359009 C330.805817,422.735748 325.482605,422.018219 315.869080,415.357086 z"/>
</svg>