<svg version="1.1" id="Layer_1" xmlns="http://www.w3.org/2000/svg" xmlns:xlink="http://www.w3.org/1999/xlink" x="0px" y="0px"
	 width="100%" viewBox="0 0 512 512" enable-background="new 0 0 512 512" xml:space="preserve">
<path fill="#FFFFFF" opacity="1.000000" stroke="none" 
	d="
M1.430370,395.007751 
	C1.000000,265.083282 1.018493,135.166565 0.903460,5.249955 
	C0.900274,1.652681 1.633025,0.896936 5.244813,0.901671 
	C99.850655,1.025713 194.456680,1.000000 289.531342,1.000000 
	C289.435760,3.909600 286.797974,3.488945 284.904510,3.977992 
	C264.423279,9.267948 243.824966,14.086670 223.294388,19.178614 
	C211.265091,22.162098 212.469147,20.720446 212.444885,32.799652 
	C212.399063,55.619049 212.443512,78.438606 212.425491,101.258080 
	C212.418701,109.848846 211.878204,110.411339 203.457581,110.422386 
	C182.470352,110.449921 161.483063,110.422249 140.495804,110.436501 
	C133.257904,110.441422 133.137833,110.589134 131.124283,117.339333 
	C129.028976,124.363556 126.456894,131.235504 124.295586,138.236008 
	C122.975189,142.512787 120.425034,144.452499 115.909027,144.453278 
	C104.923843,144.455185 105.588837,142.647659 101.647148,155.680740 
	C98.562958,165.878510 95.291924,176.027283 92.036476,186.176636 
	C89.766937,193.252274 90.071808,193.537155 97.295647,193.569855 
	C100.793182,193.585678 104.290489,193.567719 107.788437,193.617157 
	C111.465202,193.669174 113.235062,195.420197 113.378647,199.116440 
	C114.011475,215.407104 115.524071,231.643829 116.562737,247.909668 
	C117.314850,259.687836 117.945534,271.487518 119.149574,283.237854 
	C119.251495,284.232483 119.349930,285.225830 119.388199,286.225189 
	C119.702805,294.441650 118.795761,295.367920 110.472832,295.432526 
	C81.016502,295.661194 56.690983,306.629364 38.557224,330.180023 
	C29.867699,341.465210 24.322880,354.247284 22.319252,368.390167 
	C21.569286,373.683868 19.935671,377.683228 14.573267,380.077637 
	C10.294048,381.988373 7.311595,385.821198 5.076758,390.052307 
	C4.155331,391.796783 3.632195,393.816040 1.430370,395.007751 
z"/>
<path fill="#020201" opacity="1.000000" stroke="none" 
	d="
M1.000000,395.466125 
	C4.420324,386.485626 9.788603,379.901947 18.445267,376.070831 
	C21.752634,374.607117 20.356817,370.563202 20.818573,367.848633 
	C23.362364,352.894318 29.405756,339.708008 38.651878,327.726105 
	C46.282719,317.837433 55.617176,310.003937 66.521889,304.322113 
	C76.057045,299.353882 86.265053,296.029816 97.185219,294.827881 
	C103.297493,294.155182 109.352325,294.094025 115.441498,294.038391 
	C117.319023,294.021210 118.000282,293.556305 118.048096,291.546570 
	C118.233147,283.767761 117.369476,275.990692 116.623932,268.338470 
	C116.057205,262.521545 115.894196,256.582367 115.347992,250.768494 
	C114.659615,243.441162 114.156494,235.983917 113.865387,228.563843 
	C113.453377,218.062302 111.931747,207.605896 112.029030,197.065308 
	C112.051735,194.604752 110.493919,195.008698 109.049690,195.007034 
	C102.098282,194.999084 95.146851,195.003464 87.840958,195.003464 
	C92.992897,178.483871 98.065948,162.460175 102.933159,146.374176 
	C103.754601,143.659317 105.029877,142.919205 107.743240,142.912399 
	C112.176010,142.901306 117.665588,144.803146 120.761162,142.084732 
	C123.583534,139.606232 123.965797,134.307358 125.330276,130.220444 
	C127.258606,124.444641 129.398422,118.714119 130.864243,112.819130 
	C131.689301,109.501076 133.293289,108.929688 136.294388,108.942261 
	C159.779114,109.040695 183.265060,108.913574 206.748932,109.086517 
	C210.267120,109.112427 211.105896,108.230293 211.084686,104.735588 
	C210.923889,78.253311 211.017883,51.769585 210.968140,25.286425 
	C210.962372,22.219988 211.192093,20.688194 215.175232,19.751556 
	C238.785370,14.199646 262.242706,7.998684 285.763428,2.063733 
	C287.028015,1.744643 288.401581,1.857543 289.862213,1.384672 
	C293.030609,1.000000 296.061188,1.000000 299.545898,1.000000 
	C312.368317,3.993153 319.444580,12.812510 319.347717,25.113619 
	C319.255829,36.782764 311.165924,46.585999 299.240417,49.302204 
	C288.039978,51.853271 276.888977,54.614220 265.675873,57.111729 
	C259.787750,58.423195 259.471497,58.854671 259.455414,64.753159 
	C259.422760,76.740944 259.430206,88.728897 259.451721,100.716728 
	C259.463501,107.285744 259.687195,107.535683 266.116119,107.544273 
	C287.094849,107.572311 308.073669,107.541321 329.052429,107.561188 
	C337.440002,107.569138 337.600647,107.714378 340.294617,115.785896 
	C342.561249,122.577003 344.914825,129.341782 347.040253,136.176254 
	C348.184601,139.856033 350.142487,141.649353 354.193848,141.605087 
	C365.085876,141.485992 365.722534,139.779236 369.721802,153.583466 
	C373.149139,165.413498 377.259827,177.040237 380.699432,188.868958 
	C382.544861,195.215408 381.679382,196.373795 375.177795,196.396194 
	C366.857391,196.424866 358.529877,196.758240 349.760315,196.087280 
	C346.493134,195.615173 343.661713,195.592438 340.826721,195.592590 
	C273.166565,195.596283 205.506378,195.594040 137.846207,195.597580 
	C128.882645,195.598053 128.882645,195.609390 129.496933,206.091843 
	C130.745605,224.258194 131.987854,241.957108 133.208603,259.656158 
	C133.676147,266.434814 134.557236,273.198578 134.496490,280.442902 
	C134.214005,293.670502 134.214005,293.670502 146.830322,293.670532 
	C158.329559,293.670532 169.831497,293.510742 181.327469,293.704590 
	C203.672058,294.081390 222.745651,302.526062 239.017410,317.632416 
	C254.524887,332.029205 263.542358,349.794495 266.468475,370.692993 
	C266.867371,373.541687 268.135162,375.464569 270.710510,376.980011 
	C286.896973,386.505066 290.990784,403.632843 280.785461,419.303436 
	C279.121979,421.857758 279.204498,423.752716 280.907776,426.046478 
	C291.340881,440.096375 286.073883,460.694550 270.622955,468.384949 
	C268.071411,469.654938 266.478149,471.495728 265.780396,474.329346 
	C262.446533,487.868103 254.943954,498.506622 242.984924,506.448364 
	C236.708725,511.076202 229.943405,512.734314 222.319885,512.771484 
	C169.645767,513.000000 117.291542,513.000000 64.468658,513.000000 
	C54.643936,512.616760 46.237701,509.718292 38.876335,503.804474 
	C29.821720,496.530334 23.056189,487.709930 20.330523,476.260620 
	C19.457741,472.594452 17.653063,470.316833 14.437322,468.258240 
	C7.970436,464.118408 1.854391,459.357666 1.224772,450.300079 
	C1.000000,445.310760 1.000000,440.621490 1.000000,435.466125 
	C1.963570,430.229492 3.715036,425.868378 7.590168,422.549042 
	C3.866743,419.349091 1.734125,415.410217 1.216893,410.274780 
	C1.000000,405.310760 1.000000,400.621490 1.000000,395.466125 
z"/>
<path fill="#FFFFFF" opacity="1.000000" stroke="none" 
	d="
M349.812012,195.359680 
	C360.319702,195.045242 370.471558,195.045242 381.131134,195.045242 
	C376.995789,181.701492 373.006775,168.747894 368.958008,155.813004 
	C367.663208,151.676498 367.345337,146.274902 364.521545,143.836487 
	C361.481171,141.211029 355.958466,143.144394 351.523834,143.046051 
	C348.972382,142.989487 347.586639,142.633911 346.716736,139.601196 
	C344.154938,130.669968 340.855530,121.953064 338.032288,113.092545 
	C337.103607,110.177849 336.014954,108.836823 332.458679,108.873352 
	C309.136169,109.112900 285.809174,108.896461 262.485931,109.097778 
	C258.701385,109.130440 257.846771,108.161217 257.906830,104.467194 
	C258.142456,89.976219 258.062103,75.478691 257.949799,60.984764 
	C257.929199,58.327724 258.302155,57.307350 261.400970,56.681133 
	C274.168121,54.101120 286.801178,50.866001 299.516083,48.016968 
	C311.604980,45.308212 319.925690,32.003555 317.385071,20.483154 
	C315.160461,10.395599 309.770966,4.474383 300.109192,1.360407 
	C369.606384,1.000000 439.212891,1.041254 508.818939,0.887511 
	C512.603821,0.879151 513.086670,1.886353 513.082947,5.311916 
	C512.979675,101.228760 513.000000,197.145737 513.000000,293.531342 
	C505.290466,297.630066 501.477417,295.430695 501.450378,287.113586 
	C501.364166,260.628723 501.433624,234.143524 501.411316,207.658463 
	C501.404694,199.772781 501.224487,199.604446 493.266602,199.587906 
	C483.938568,199.568527 474.610382,199.563934 465.282410,199.589600 
	C457.691467,199.610489 457.610596,199.711349 457.584961,207.509262 
	C457.565765,213.339249 457.667755,219.170609 457.546295,224.998947 
	C457.415741,231.261749 456.363831,232.433487 450.294250,232.521759 
	C439.468719,232.679169 428.639404,232.680389 417.813873,232.521011 
	C411.788086,232.432312 410.661469,231.161255 410.450745,225.034912 
	C410.336182,221.705627 410.438690,218.373260 410.366974,215.041840 
	C410.306824,212.244232 409.127869,210.680374 406.179932,210.650284 
	C394.687195,210.533035 383.194763,210.577820 371.701965,210.625580 
	C368.678680,210.638153 367.632690,212.256531 367.610504,215.035645 
	C367.583893,218.366882 367.655609,221.699432 367.552917,225.029129 
	C367.358124,231.346207 366.202728,232.444183 359.750519,232.564362 
	C359.083954,232.576782 359.917480,232.562683 359.250824,232.566528 
	C351.635010,232.610565 350.679108,231.568527 350.383118,224.044601 
	C350.202515,219.452744 351.443726,214.697556 348.837402,209.900955 
	C346.671478,204.751434 347.818268,200.197296 349.812012,195.359680 
z"/>
<path fill="#030201" opacity="1.000000" stroke="none" 
	d="
M348.693085,208.613251 
	C351.418030,208.653152 352.164703,209.601486 352.068848,212.018127 
	C351.857605,217.342300 352.127075,222.684799 351.948212,228.011353 
	C351.866180,230.453903 352.677460,230.985168 355.028839,231.063889 
	C365.999573,231.431183 365.996735,231.515762 365.996735,220.453262 
	C365.996735,208.996719 365.996735,208.996719 377.550232,208.996719 
	C387.715424,208.996719 397.884308,209.150818 408.043762,208.909622 
	C411.408691,208.829727 412.246918,209.870178 412.072266,213.055283 
	C411.808075,217.873428 412.076782,222.718384 411.971039,227.548721 
	C411.921265,229.821915 412.077698,231.123291 415.069244,231.077911 
	C427.731171,230.885880 440.398407,230.927551 453.061951,231.055084 
	C455.572968,231.080368 456.076904,230.216766 456.044922,227.918106 
	C455.924377,219.254364 456.179413,210.582169 455.906128,201.925369 
	C455.797821,198.494354 456.971802,197.887894 460.084045,197.927338 
	C473.080078,198.092072 486.081726,198.131180 499.075989,197.906082 
	C502.500122,197.846756 503.082336,198.975296 503.069946,202.083481 
	C502.956573,230.578934 503.003235,259.075012 503.003296,287.570923 
	C503.003296,293.996521 503.003448,293.996521 509.579712,293.996735 
	C510.412933,293.996765 511.246185,293.996857 512.539673,293.998474 
	C513.000000,297.030609 513.000000,300.061188 513.000000,303.545898 
	C511.876587,310.716888 512.097473,317.531128 511.565186,324.293457 
	C509.905884,345.373993 507.127167,366.332306 504.943604,387.354553 
	C501.882843,416.822693 498.438599,446.250244 495.392120,475.720917 
	C494.348114,485.820312 493.194611,495.910217 491.999329,505.993561 
	C491.747559,508.117249 491.688599,510.335541 490.272644,512.637207 
	C430.979095,513.000000 371.958221,513.000000 312.468658,513.000000 
	C310.353058,511.060791 310.261688,508.665192 310.034729,505.855133 
	C308.112976,482.998779 305.361572,460.683441 302.973450,438.330017 
	C299.860016,409.187469 296.693207,380.050598 293.478790,350.919006 
	C291.652435,334.367096 289.877075,317.809875 288.132751,301.249207 
	C287.449951,294.766388 288.416626,293.601166 295.026001,293.492615 
	C305.780273,293.315979 305.469269,294.865906 305.464752,282.798401 
	C305.456543,260.806122 305.437347,238.813828 305.475311,216.821594 
	C305.490173,208.210587 306.237396,207.499954 314.950592,207.469971 
	C323.947327,207.438995 332.944305,207.444168 341.941040,207.475571 
	C344.092743,207.483093 346.291840,207.284210 348.693085,208.613251 
z"/>
<path fill="#FFFFFF" opacity="1.000000" stroke="none" 
	d="
M490.468750,513.000000 
	C490.895447,501.303406 492.556030,489.689270 493.780579,478.036224 
	C494.565063,470.571228 495.260071,463.068695 496.042877,455.591614 
	C497.212067,444.423767 498.993805,433.310089 499.843323,422.122345 
	C500.388672,414.940765 501.299042,407.814789 502.044586,400.666840 
	C503.209503,389.498718 504.998138,378.385315 505.838348,367.197327 
	C506.377777,360.014221 507.232056,352.879730 508.063141,345.744598 
	C509.362213,334.590973 509.881592,323.349792 511.887451,312.270691 
	C512.355469,309.685608 512.113770,306.972076 512.599304,304.158813 
	C513.000000,372.204193 512.956421,440.408508 513.111145,508.612366 
	C513.120178,512.589722 511.972961,513.277588 508.399811,513.084473 
	C502.594482,512.770813 496.759766,513.000000 490.468750,513.000000 
z"/>
<path fill="#FFFFFF" opacity="1.000000" stroke="none" 
	d="
M1.000000,450.468658 
	C4.542506,458.754333 9.883209,465.603424 19.103970,469.252502 
	C21.532909,470.213745 21.226818,474.373840 21.853907,477.035522 
	C26.004930,494.654327 45.347908,511.676331 63.857018,512.611267 
	C44.069691,513.000000 24.138781,512.925171 4.209746,513.084595 
	C1.379703,513.107239 0.904413,512.435303 0.923955,509.731171 
	C1.065572,490.134064 1.000000,470.535461 1.000000,450.468658 
z"/>
<path fill="#FFFFFF" opacity="1.000000" stroke="none" 
	d="
M310.636139,505.775574 
	C311.331787,508.146088 312.505737,510.028320 311.998474,512.596924 
	C282.312439,513.000000 252.624878,513.000000 222.468658,513.000000 
	C228.493393,511.065216 235.438904,510.411011 241.433517,506.035889 
	C248.008850,503.424683 254.570053,504.772156 261.489929,504.445984 
	C273.919373,504.375305 285.864563,504.382019 298.293274,504.493286 
	C302.632996,504.617279 306.561340,503.790955 310.636139,505.775574 
z"/>
<path fill="#FFFFFF" opacity="1.000000" stroke="none" 
	d="
M1.000000,410.468628 
	C3.540326,414.176910 4.457545,419.376160 8.969435,422.234100 
	C5.749212,426.131500 2.727360,429.880219 1.359514,434.891785 
	C1.000000,426.979095 1.000000,418.958191 1.000000,410.468628 
z"/>
<path fill="#01E5FF" opacity="1.000000" stroke="none" 
	d="
M133.594696,282.317444 
	C131.518631,257.288879 129.774185,232.569626 128.087494,207.404358 
	C129.924301,205.313858 132.162354,205.531464 134.300430,205.530273 
	C185.423187,205.501999 236.545975,205.482681 287.668701,205.539459 
	C294.405731,205.546936 295.438599,206.618378 295.461884,213.460022 
	C295.532135,234.108765 295.529877,254.757919 295.463440,275.406677 
	C295.440796,282.446930 294.423950,283.454651 287.279846,283.460846 
	C273.943420,283.472412 276.673431,283.681183 277.748871,294.396027 
	C280.058868,317.411591 282.673248,340.398529 285.225677,363.390289 
	C285.335999,364.384308 285.465363,365.381256 285.416412,366.378693 
	C285.320374,368.335663 285.817810,370.907104 283.776123,371.770142 
	C281.309753,372.812775 279.470154,370.673096 277.825470,369.051239 
	C275.677612,366.933197 275.414307,363.998962 274.770996,361.261292 
	C269.272888,337.865448 257.258545,318.573792 238.182266,303.902740 
	C221.001602,290.689606 201.376129,284.032074 179.758728,283.545135 
	C166.776413,283.252716 153.782196,283.506714 140.793411,283.477417 
	C138.479538,283.472198 136.112457,283.733276 133.594696,282.317444 
z"/>
<path fill="#3EC2FB" opacity="1.000000" stroke="none" 
	d="
M133.200882,282.434509 
	C148.089050,282.006989 162.915176,281.958649 177.740952,282.013397 
	C226.570679,282.193665 266.937500,315.594147 276.744049,363.429443 
	C277.632874,367.765167 280.070557,369.529419 283.733704,371.542999 
	C284.735809,364.985016 283.093842,358.854370 282.617859,352.734283 
	C281.771576,341.854187 280.231079,331.028564 279.004608,320.177490 
	C277.777985,309.324921 276.732635,298.448761 275.288788,287.625488 
	C274.770325,283.738953 275.015686,281.303436 279.764374,282.000702 
	C279.927429,282.024658 280.098450,282.017853 280.263458,282.001617 
	C284.676544,281.568146 290.322418,283.977905 293.199646,280.914276 
	C295.811279,278.133484 293.975433,272.634888 293.993469,268.341858 
	C294.071838,249.684753 293.872742,231.024948 294.137909,212.371277 
	C294.202423,207.833862 292.780762,206.865417 288.484711,206.876801 
	C235.344681,207.017593 182.204147,206.967972 128.604492,206.962860 
	C127.952614,202.846619 125.425758,197.613602 127.826500,194.959717 
	C130.239685,192.292038 135.699417,194.154648 139.810181,194.151230 
	C207.752319,194.094803 275.694519,194.108902 343.636719,194.121979 
	C345.625854,194.122360 347.614990,194.283783 349.885986,194.707687 
	C350.410004,199.414703 348.353241,203.583954 349.060974,208.431427 
	C336.759796,208.969147 324.431458,209.332672 312.119446,209.030167 
	C307.466583,208.915833 306.738617,210.440445 306.770721,214.626694 
	C306.962463,239.621490 306.761597,264.619354 306.966370,289.613953 
	C307.001160,293.860565 305.724487,295.161255 301.653961,294.738708 
	C298.521576,294.413513 295.317383,294.838226 292.165405,294.626984 
	C289.342438,294.437775 288.838623,295.606903 289.120453,298.133575 
	C292.276672,326.429749 295.362152,354.733826 298.457214,383.036804 
	C301.642761,412.167267 304.838501,441.296600 307.987549,470.431030 
	C309.256470,482.170807 310.413239,493.922760 311.298126,505.897705 
	C307.282715,506.074310 303.590240,506.022369 299.439880,505.908875 
	C296.140869,499.802673 296.733612,493.165100 295.870819,486.802704 
	C294.890961,479.577118 293.987671,472.324646 293.476501,464.210419 
	C288.757233,469.731354 284.171417,474.377808 279.111908,478.540985 
	C277.243286,480.078522 276.772522,482.516846 275.916321,484.677399 
	C272.830109,492.465149 269.172272,499.892578 262.348267,505.688477 
	C255.576920,505.898590 249.134171,505.935730 242.207565,505.901611 
	C250.811584,499.365448 259.045044,491.893372 262.250702,480.922302 
	C264.473694,473.314270 268.185913,468.278046 274.902985,463.635040 
	C287.244354,455.104431 288.510284,437.366302 278.911163,425.560059 
	C277.091125,423.321533 276.919342,422.162018 278.808716,419.808960 
	C290.215973,405.602478 285.728729,385.637299 269.280060,377.810638 
	C266.279541,376.382904 265.630035,374.459320 265.250488,371.755005 
	C259.903442,333.652466 234.499573,305.763092 197.027359,296.754333 
	C190.014725,295.068420 182.890244,294.713409 175.733765,294.686615 
	C163.748276,294.641693 151.759338,294.517426 139.778534,294.758331 
	C135.627792,294.841827 133.138016,294.229523 133.640396,289.317627 
	C133.856506,287.204620 133.328583,285.015472 133.200882,282.434509 
z"/>
<path fill="#FCD8A8" opacity="1.000000" stroke="none" 
	d="
M38.801613,361.263641 
	C47.788067,333.419708 66.712418,317.139587 94.594421,311.018829 
	C98.297577,310.205872 102.179443,309.905731 105.980713,309.889893 
	C130.601944,309.787201 155.233322,309.392944 179.843033,309.931976 
	C212.018845,310.636749 238.069061,330.701263 247.828156,361.644470 
	C245.964279,363.821106 243.547440,363.597565 241.245316,363.598877 
	C176.103958,363.636292 110.962563,363.640137 45.821213,363.590363 
	C43.379623,363.588501 40.746521,363.948883 38.801613,361.263641 
z"/>
<path fill="#FEFEFE" opacity="1.000000" stroke="none" 
	d="
M250.000000,159.017853 
	C283.146362,159.017853 315.793488,159.123779 348.438141,158.887772 
	C352.660034,158.857254 354.203949,160.207672 355.105988,164.014954 
	C356.279755,168.969238 358.034546,173.785858 359.610077,178.891098 
	C275.979187,178.891098 192.911591,178.891098 109.302376,178.891098 
	C111.260315,172.592255 113.141312,166.606537 114.976631,160.606842 
	C115.802216,157.908005 118.013298,159.081512 119.581100,159.074173 
	C138.235748,158.986877 156.890976,159.017883 175.546036,159.017868 
	C200.197357,159.017853 224.848679,159.017853 250.000000,159.017853 
z"/>
<path fill="#66DD19" opacity="1.000000" stroke="none" 
	d="
M16.576626,402.295990 
	C17.577370,394.079529 21.972649,390.033936 29.634600,390.030426 
	C105.188728,389.995850 180.742889,389.998505 256.297028,390.025604 
	C263.881714,390.028320 267.990234,393.498749 269.921021,401.572876 
	C268.361633,403.739227 266.300995,404.268097 264.092072,404.465576 
	C262.432434,404.613953 260.768829,404.611786 259.105560,404.611908 
	C182.085464,404.617584 105.065384,404.621765 28.045298,404.598633 
	C24.243368,404.597504 20.346947,404.913544 16.576626,402.295990 
z"/>
<path fill="#B0EF60" opacity="1.000000" stroke="none" 
	d="
M16.161098,402.323212 
	C22.300562,403.234406 28.456905,402.896942 34.592903,402.897369 
	C109.952980,402.902802 185.313049,402.894745 260.673126,402.924530 
	C263.516663,402.925659 266.306396,402.779785 269.457336,401.967834 
	C269.759125,410.003357 264.672577,415.023376 256.290985,415.042114 
	C231.331070,415.097961 206.370972,415.063812 181.410950,415.063782 
	C131.158112,415.063690 80.905281,415.072357 30.652447,415.053589 
	C21.891045,415.050323 17.407011,411.192261 16.161098,402.323212 
z"/>
<path fill="#FDC378" opacity="1.000000" stroke="none" 
	d="
M38.503628,361.038940 
	C40.280270,362.712524 42.438259,361.997894 44.338905,361.998749 
	C111.873077,362.029205 179.407257,362.020416 247.401215,362.015198 
	C252.209930,374.964539 252.209930,374.964569 239.159668,374.964569 
	C173.073883,374.964569 106.987923,374.904999 40.902653,375.088745 
	C36.126461,375.102020 35.164757,373.691925 36.279728,369.559296 
	C37.015163,366.833435 37.589687,364.064148 38.503628,361.038940 
z"/>
<path fill="#FCD8A8" opacity="1.000000" stroke="none" 
	d="
M243.670837,482.687683 
	C238.288300,491.598663 230.073914,496.759735 219.972931,496.950409 
	C169.376419,497.905457 118.769684,497.507629 68.167267,497.190002 
	C57.927666,497.125763 49.679832,492.422546 42.975075,484.389832 
	C43.408085,481.333527 45.736828,481.528107 47.584751,481.507019 
	C66.845642,481.287231 86.107880,481.363281 105.369667,481.443878 
	C107.043167,481.450897 108.632973,482.002686 110.670685,482.712158 
	C111.469414,482.879700 111.811897,482.848022 112.412384,482.826660 
	C115.302536,481.677032 118.057655,481.355499 120.923584,481.363281 
	C136.360062,481.405151 151.796829,481.406189 167.233292,481.361359 
	C169.926575,481.353516 172.514221,481.728027 175.507980,482.764648 
	C175.959274,482.974579 176.451477,482.941956 176.698120,482.941101 
	C179.388138,481.756592 181.981110,481.377167 184.676147,481.379242 
	C202.273178,481.392853 219.870209,481.367645 237.467209,481.402039 
	C239.454224,481.405914 241.467163,481.359589 243.670837,482.687683 
z"/>
<path fill="#D8D7DA" opacity="1.000000" stroke="none" 
	d="
M326.651276,130.691757 
	C328.886780,135.042847 330.192627,139.257324 331.197906,143.979202 
	C329.398468,143.979202 327.926453,143.979187 326.454437,143.979187 
	C265.209686,143.979172 203.964874,143.939743 142.720383,144.064499 
	C138.464218,144.073166 136.883957,143.431824 138.922806,139.050827 
	C140.033554,136.664093 140.579544,134.014526 141.644608,131.230255 
	C143.859375,129.335068 146.229813,129.393463 148.558487,129.392365 
	C205.842865,129.365021 263.127228,129.365158 320.411621,129.393051 
	C322.403076,129.394028 324.426758,129.335770 326.651276,130.691757 
z"/>
<path fill="#FBD643" opacity="1.000000" stroke="none" 
	d="
M227.504105,97.336861 
	C227.078629,76.718460 227.073196,56.407871 226.905212,36.098629 
	C226.884323,33.573635 227.760071,32.623062 230.078491,32.063465 
	C250.426025,27.152191 270.740479,22.103748 291.090179,17.201607 
	C296.757965,15.836266 300.778442,17.902016 301.893555,22.342899 
	C303.253510,27.758667 300.628418,31.448208 294.274902,32.939507 
	C278.585846,36.622025 262.938812,40.509762 247.166611,43.795132 
	C242.706848,44.724106 241.849182,46.543655 241.909409,50.641098 
	C242.132065,65.789955 241.988785,80.944191 241.913818,96.562294 
	C237.287094,99.480820 232.591583,98.807709 227.504105,97.336861 
z"/>
<path fill="#FFFFFF" opacity="1.000000" stroke="none" 
	d="
M327.053070,130.583740 
	C265.656860,130.999100 204.256912,131.012192 142.382965,131.001144 
	C142.000320,126.278786 144.212555,124.825661 149.020340,124.840393 
	C206.062134,125.015320 263.104858,125.012459 320.146667,124.834343 
	C324.464966,124.820847 326.533173,126.082695 327.053070,130.583740 
z"/>
<path fill="#F7A809" opacity="1.000000" stroke="none" 
	d="
M151.215515,446.219238 
	C143.403229,441.136932 136.062775,436.123108 127.631012,430.363892 
	C160.504456,430.363892 191.939865,430.363892 224.884659,430.363892 
	C218.230301,435.059296 212.633392,439.008545 206.712296,443.020966 
	C203.588837,444.248230 200.667236,444.591003 197.649597,444.578125 
	C187.718567,444.535767 177.786728,444.620972 167.856186,444.538849 
	C162.385300,444.493591 156.947495,444.499756 151.215515,446.219238 
z"/>
<path fill="#F8BF74" opacity="1.000000" stroke="none" 
	d="
M110.952583,482.622345 
	C90.372810,482.937408 69.618660,482.953247 48.864616,483.007538 
	C47.063133,483.012238 45.207493,482.631622 43.165379,483.760040 
	C39.241634,480.410187 37.447887,475.857513 36.110596,470.244507 
	C38.952385,470.244507 41.512260,470.244476 44.072136,470.244476 
	C58.736462,470.244476 73.402443,470.365051 88.064003,470.163574 
	C91.942192,470.110321 95.118759,470.960968 98.172356,473.351349 
	C102.230980,476.528473 106.563431,479.355743 110.952583,482.622345 
z"/>
<path fill="#F7BE74" opacity="1.000000" stroke="none" 
	d="
M244.345001,482.868561 
	C221.987640,483.017548 199.935959,483.008850 177.414520,482.970215 
	C182.183655,479.158875 187.431107,475.389282 192.654572,471.586670 
	C193.754425,470.786011 194.857910,470.227234 196.283707,470.229401 
	C214.048019,470.256409 231.812393,470.247070 249.827438,470.247070 
	C249.320419,475.160431 247.160446,479.006439 244.345001,482.868561 
z"/>
<path fill="#F8A808" opacity="1.000000" stroke="none" 
	d="
M82.118423,443.238708 
	C75.933456,439.090424 70.106659,435.117493 64.279854,431.144562 
	C64.404388,430.800629 64.528923,430.456726 64.653465,430.112793 
	C76.389435,430.112793 88.125458,430.128479 99.861320,430.092773 
	C101.316864,430.088348 102.366722,430.791809 103.458000,431.562561 
	C111.616074,437.324554 119.728096,443.154419 127.977341,448.783020 
	C130.552994,450.540466 130.696152,451.630463 127.975899,453.255707 
	C125.555336,454.701904 123.317650,456.454163 120.671181,458.155884 
	C118.350677,459.001801 116.830574,458.002228 115.329292,456.906250 
	C113.190178,455.344666 110.939484,453.938049 108.853035,452.304504 
	C102.382156,447.238220 95.744545,442.714813 86.826660,444.264099 
	C85.380814,444.515259 83.886429,443.920502 82.118423,443.238708 
z"/>
<path fill="#FCC175" opacity="1.000000" stroke="none" 
	d="
M175.739838,482.729004 
	C155.188400,482.960785 134.417542,482.947021 113.158524,482.885101 
	C122.375847,475.908630 132.125610,469.040924 141.752533,462.005127 
	C143.888351,460.444214 145.293457,461.212128 147.031738,462.443665 
	C156.505264,469.155640 166.019913,475.809570 175.739838,482.729004 
z"/>
<path fill="#FAD643" opacity="1.000000" stroke="none" 
	d="
M150.916840,446.443787 
	C153.806503,443.600464 157.265106,442.817535 161.284103,442.877289 
	C175.986176,443.095673 190.692993,442.994537 205.893066,443.048950 
	C197.111176,449.742493 187.771332,456.316101 178.602219,463.119812 
	C176.356171,464.786469 175.044205,463.709656 173.403214,462.543304 
	C165.973816,457.262756 158.529175,452.003632 150.916840,446.443787 
z"/>
<path fill="#FB6F42" opacity="1.000000" stroke="none" 
	d="
M20.212721,434.335022 
	C26.377962,428.834808 34.520851,428.456726 41.030396,433.050385 
	C49.849800,439.274078 58.664940,445.503937 67.455063,451.768829 
	C68.595062,452.581329 70.096802,453.058594 70.839645,455.151245 
	C64.011940,455.151245 57.456089,455.151245 50.437759,455.059326 
	C41.314301,451.411285 34.707935,444.708405 26.902952,439.832214 
	C24.566957,438.372772 22.047213,436.976013 20.212721,434.335022 
z"/>
<path fill="#FB6F42" opacity="1.000000" stroke="none" 
	d="
M239.222748,454.771149 
	C231.833496,454.972687 224.733109,454.972687 216.244049,454.972687 
	C219.895782,452.361176 222.609070,450.404938 225.338745,448.471863 
	C232.380783,443.484894 239.430511,438.508820 246.476257,433.527069 
	C253.659775,428.447906 259.554718,428.674805 266.805115,434.640961 
	C264.658783,438.479462 260.878235,440.128998 257.657928,442.375732 
	C251.684204,446.543488 246.124237,451.349609 239.222748,454.771149 
z"/>
<path fill="#FD8E17" opacity="1.000000" stroke="none" 
	d="
M19.798815,434.152405 
	C29.942968,440.804474 39.764957,447.618805 49.781113,454.700256 
	C43.516563,455.039612 37.052177,454.969299 30.600803,455.226013 
	C24.710649,455.460388 20.262857,453.305237 17.463980,448.107697 
	C14.748869,443.065643 16.113997,438.520477 19.798815,434.152405 
z"/>
<path fill="#FD8E17" opacity="1.000000" stroke="none" 
	d="
M239.402496,455.061035 
	C244.820877,448.949188 252.448547,445.260406 258.957886,440.064911 
	C261.247101,438.237854 263.791382,436.730347 266.558624,435.025269 
	C270.420441,438.621613 271.048279,442.903595 269.032410,447.369476 
	C266.814301,452.283325 262.958710,455.167267 257.332611,455.168884 
	C251.512115,455.170532 245.691605,455.156525 239.402496,455.061035 
z"/>
<path fill="#F9D442" opacity="1.000000" stroke="none" 
	d="
M81.941803,443.356903 
	C92.853622,441.301056 102.422623,444.207916 110.670784,451.965637 
	C113.267151,454.407684 116.615120,456.050568 119.981094,458.149841 
	C112.391373,465.047668 112.392433,465.046173 104.026794,459.130432 
	C96.727036,453.968445 89.424591,448.810303 81.941803,443.356903 
z"/>
<path fill="#FAAA09" opacity="1.000000" stroke="none" 
	d="
M227.058914,97.485138 
	C231.733826,97.030190 236.333908,97.031738 241.389282,97.030739 
	C241.894379,97.518967 241.979706,98.009087 241.988785,98.500626 
	C242.213409,110.670845 242.215851,110.594513 230.002945,109.973412 
	C227.638596,109.853172 226.805359,109.184418 226.932526,106.839264 
	C227.092926,103.881149 226.979416,100.908188 227.058914,97.485138 
z"/>
<path fill="#F1501E" opacity="1.000000" stroke="none" 
	d="
M482.995300,430.997620 
	C480.716125,451.803741 478.289459,472.137543 476.342926,492.517242 
	C475.926575,496.876404 474.297333,497.474609 470.518494,497.446106 
	C449.188995,497.285309 427.857605,497.368530 406.526886,497.368469 
	C381.196655,497.368408 355.866089,497.309174 330.536530,497.440430 
	C327.256592,497.457397 325.984741,496.714020 325.623260,493.212250 
	C323.230560,470.031372 320.568420,446.878387 318.025085,423.712921 
	C314.791504,394.260071 311.585114,364.804169 308.372284,335.349030 
	C307.578033,328.067261 306.868561,320.775421 305.988342,313.504181 
	C305.655182,310.751892 306.408936,309.791260 309.369354,309.694061 
	C323.916687,309.216675 323.922607,309.122070 328.756409,322.633636 
	C333.854095,336.882843 339.014832,351.110504 343.956360,365.413818 
	C345.070709,368.639221 346.390564,370.098877 350.190399,370.078094 
	C384.018585,369.893005 417.848663,369.892059 451.676819,370.079010 
	C455.492737,370.100067 456.793976,368.612000 457.914948,365.396271 
	C463.881439,348.280029 470.158051,331.271332 476.047760,314.129364 
	C477.243591,310.648865 478.895447,309.358246 482.463623,309.708282 
	C485.434662,309.999786 488.491699,310.056244 491.448547,309.700592 
	C495.893555,309.165955 496.195312,311.243622 495.786041,314.887421 
	C491.457001,353.430573 487.255798,391.988129 482.995300,430.997620 
z"/>
<path fill="#FCD744" opacity="1.000000" stroke="none" 
	d="
M382.220581,342.308319 
	C381.801788,313.370911 381.734467,284.762817 381.679810,256.154724 
	C381.662018,246.838989 381.775330,237.521545 381.619934,228.208374 
	C381.571045,225.277176 382.258179,224.180939 385.462830,224.143143 
	C396.737976,224.010239 396.738495,223.873611 396.735931,235.188782 
	C396.727966,270.455536 396.718201,305.722321 396.634216,341.445312 
	C392.030792,344.659363 387.307983,343.726257 382.220581,342.308319 
z"/>
<path fill="#FDD844" opacity="1.000000" stroke="none" 
	d="
M412.383362,342.281921 
	C411.938324,311.181458 411.894165,280.371094 411.785706,249.561005 
	C411.777740,247.299973 412.362762,246.426056 414.836670,246.273682 
	C426.859589,245.533035 426.856537,245.447525 426.853882,257.571320 
	C426.847839,285.387817 426.839417,313.204285 426.759460,341.480286 
	C422.155792,344.536835 417.475220,343.843323 412.383362,342.281921 
z"/>
<path fill="#FCD743" opacity="1.000000" stroke="none" 
	d="
M352.297913,307.321808 
	C352.081696,287.835541 352.087769,268.693542 351.934143,249.552811 
	C351.912018,246.794083 352.943024,246.332474 355.418243,246.286377 
	C366.570831,246.078659 366.573944,246.000885 366.568512,257.096313 
	C366.554810,285.062775 366.536621,313.029205 366.409515,341.442993 
	C364.297333,342.826569 363.458344,341.277283 363.010590,339.980408 
	C359.312836,329.270203 354.251923,318.999878 352.297913,307.321808 
z"/>
<path fill="#FCD744" opacity="1.000000" stroke="none" 
	d="
M472.515961,282.297302 
	C472.096954,260.178619 472.079285,238.373566 471.945374,216.569229 
	C471.929718,214.019104 472.619781,213.208344 475.283630,213.123169 
	C487.012024,212.748062 487.010986,212.649811 487.008392,224.122665 
	C487.004059,243.100922 486.996704,262.079163 486.920654,281.520386 
	C482.298523,284.504700 477.602631,283.827179 472.515961,282.297302 
z"/>
<path fill="#FAD543" opacity="1.000000" stroke="none" 
	d="
M442.478516,326.038330 
	C442.029419,300.607971 442.017822,275.190033 441.845245,249.773163 
	C441.824524,246.721771 443.057617,246.322556 445.664185,246.275711 
	C456.951111,246.072784 456.953522,245.996643 456.948608,257.200867 
	C456.944397,266.837799 456.930237,276.474701 456.847198,286.577942 
	C454.576569,299.895386 448.616455,311.520050 444.761566,323.831390 
	C444.464661,324.779755 443.807770,325.574646 442.478516,326.038330 
z"/>
<path fill="#FAD643" opacity="1.000000" stroke="none" 
	d="
M322.464172,282.292358 
	C322.029755,263.863220 322.008820,245.737793 321.864410,227.613342 
	C321.844147,225.072357 322.550323,224.244797 325.208557,224.150467 
	C336.953186,223.733719 336.952332,223.637299 336.949127,235.148315 
	C336.944885,250.450378 336.936188,265.752441 336.854675,281.516357 
	C332.235840,284.509827 327.549530,283.833313 322.464172,282.292358 
z"/>
<path fill="#F9A908" opacity="1.000000" stroke="none" 
	d="
M442.004517,326.483948 
	C445.478394,320.833099 446.398071,314.664398 448.733673,309.043915 
	C451.643280,302.042114 453.813934,294.733215 456.538818,287.300598 
	C456.832001,298.499664 457.048462,309.957550 456.875214,321.409485 
	C456.799042,326.442688 454.010040,330.863129 452.471588,335.564880 
	C450.720367,340.916901 448.779663,346.209137 446.816559,351.488342 
	C446.231445,353.061768 446.098846,355.374146 443.421448,354.884369 
	C440.772064,354.399658 441.989838,352.232269 441.969177,350.858063 
	C441.849487,342.887695 441.915955,334.914551 442.004517,326.483948 
z"/>
<path fill="#E29E0E" opacity="1.000000" stroke="none" 
	d="
M352.045593,307.441498 
	C355.757172,316.882507 359.342499,326.804749 363.059265,336.677551 
	C363.724274,338.444000 363.539673,340.731262 365.982300,341.834747 
	C366.423737,343.867493 366.644806,345.844086 366.656586,347.821899 
	C366.701782,355.416687 365.756500,356.165283 358.097534,354.995697 
	C357.062378,354.837616 356.159882,354.773712 355.794067,353.582611 
	C354.394287,349.024475 351.852264,344.837372 351.910706,339.810516 
	C352.034302,329.176849 351.958344,318.540894 352.045593,307.441498 
z"/>
<path fill="#D79D17" opacity="1.000000" stroke="none" 
	d="
M381.714752,342.349792 
	C386.471710,341.978394 391.079285,341.977753 396.123047,341.939331 
	C396.642944,342.387787 396.810211,342.876129 396.798035,343.359955 
	C396.433929,357.815765 399.664886,354.496216 384.883087,355.033051 
	C382.259857,355.128326 381.336578,354.184418 381.466858,351.641449 
	C381.618866,348.673950 381.542572,345.694733 381.714752,342.349792 
z"/>
<path fill="#F4A508" opacity="1.000000" stroke="none" 
	d="
M322.006775,282.447235 
	C326.685760,281.989014 331.281555,281.989685 336.328613,281.984314 
	C336.779907,287.557281 336.779907,293.136353 336.779907,298.715393 
	C335.942169,293.554779 331.988525,294.750641 328.656372,294.697113 
	C320.811279,294.571106 322.022522,295.727631 321.900940,287.851166 
	C321.875488,286.203339 321.914337,284.554504 322.006775,282.447235 
z"/>
<path fill="#F5A608" opacity="1.000000" stroke="none" 
	d="
M472.075195,282.443481 
	C476.746033,281.989685 481.342743,281.995880 486.395020,281.992737 
	C486.903961,282.474304 486.994659,282.964447 487.005157,283.456299 
	C487.257843,295.331848 487.259918,295.241791 475.261292,294.761963 
	C472.641571,294.657227 471.779236,293.853577 471.941071,291.314667 
	C472.119202,288.521027 471.994049,285.708038 472.075195,282.443481 
z"/>
<path fill="#E2A618" opacity="1.000000" stroke="none" 
	d="
M411.899780,342.449951 
	C416.597595,341.986084 421.196899,341.980438 426.241516,341.957306 
	C426.753967,342.430664 426.892975,342.923798 426.877686,343.412048 
	C426.426422,357.774139 430.006348,354.481323 414.849091,354.998596 
	C412.436188,355.080933 411.618408,354.207428 411.740326,351.856140 
	C411.894623,348.880463 411.792633,345.891449 411.899780,342.449951 
z"/>
<path fill="#01E5FF" opacity="1.000000" stroke="none" 
	d="
M262.485229,505.919983 
	C268.129944,497.734924 273.462067,489.237793 276.531097,479.380798 
	C277.525574,476.186707 281.657684,475.326813 283.841309,472.767303 
	C286.526855,469.619537 290.098328,467.232361 291.885529,463.309540 
	C292.223969,462.566711 292.569855,461.569580 293.533112,461.666962 
	C294.779083,461.792908 294.897919,462.969971 294.922302,463.943634 
	C295.084564,470.422424 296.112915,476.803741 296.902252,483.218811 
	C297.791840,490.449097 298.314941,497.724457 298.989746,505.413757 
	C286.971619,505.891022 274.961212,505.934753 262.485229,505.919983 
z"/>
<path fill="#F9FEFF" opacity="1.000000" stroke="none" 
	d="
M213.997803,209.138184 
	C216.491989,209.138184 218.496750,209.010376 220.479034,209.167007 
	C223.732880,209.424118 228.274414,207.540344 229.950836,210.003540 
	C232.176239,213.273438 230.520798,218.038971 230.675293,222.156815 
	C230.744354,223.997818 229.401230,224.214722 227.959885,224.214554 
	C203.358963,224.211700 178.758026,224.216400 154.157104,224.204132 
	C153.034775,224.203568 151.416656,224.404007 151.349426,222.898712 
	C151.164459,218.757980 150.987854,214.570007 151.426956,210.466995 
	C151.665527,208.237793 154.167953,209.185394 155.652954,209.180496 
	C174.934570,209.116837 194.216461,209.138199 213.997803,209.138184 
z"/>
<path fill="#F6FEFF" opacity="1.000000" stroke="none" 
	d="
M248.266129,209.145813 
	C253.237381,209.134354 257.733612,209.100266 262.228821,209.154022 
	C263.460999,209.168762 265.388824,208.649384 265.501129,210.466202 
	C265.757172,214.606598 265.722198,218.779587 265.523376,222.925797 
	C265.452209,224.410034 263.818390,224.207932 262.682800,224.212585 
	C258.020538,224.231689 253.357895,224.243668 248.695999,224.197586 
	C247.908279,224.189819 246.926544,224.123886 246.374069,223.670761 
	C244.677017,222.278824 245.877029,210.821762 248.266129,209.145813 
z"/>
<path fill="#FFFEFD" opacity="1.000000" stroke="none" 
	d="
M157.072937,349.975952 
	C151.885391,350.820770 150.707855,348.687988 150.854156,344.202240 
	C151.156326,334.938110 150.938965,335.220734 160.106934,334.836761 
	C165.057755,334.629456 166.788742,336.303070 165.979523,341.003784 
	C165.951691,341.165466 165.975906,341.336121 165.976013,341.502594 
	C165.981842,349.975464 165.981842,349.975464 157.072937,349.975952 
z"/>
<path fill="#FFFEFC" opacity="1.000000" stroke="none" 
	d="
M127.032333,349.978638 
	C120.065910,349.957489 120.007721,349.956879 120.073814,343.570282 
	C120.176895,333.609131 118.748283,335.065948 128.354706,334.965393 
	C135.082901,334.894928 135.083542,334.954651 135.087219,341.642731 
	C135.087402,341.975464 135.090256,342.308258 135.086792,342.640961 
	C135.000122,350.979492 135.988541,349.875854 127.032333,349.978638 
z"/>
<path fill="#FFFEFD" opacity="1.000000" stroke="none" 
	d="
M194.600739,340.798523 
	C193.153107,340.929382 192.154724,340.965057 191.156219,340.968597 
	C180.888138,341.005157 181.051239,341.002197 180.954407,330.682587 
	C180.919647,326.979492 181.952332,325.724182 185.734924,325.875519 
	C198.046814,326.367950 195.808990,323.784027 196.041000,336.530823 
	C196.066956,337.957489 196.514694,339.577576 194.600739,340.798523 
z"/>
<path fill="#FFFEFE" opacity="1.000000" stroke="none" 
	d="
M90.010880,328.291992 
	C92.014679,326.013184 103.099113,324.858978 104.286057,326.600189 
	C105.871895,328.926666 104.911324,331.772736 104.958824,334.379028 
	C105.078743,340.960175 104.996033,340.961639 98.679337,340.968109 
	C89.970734,340.977051 89.970375,340.977081 89.974136,332.256775 
	C89.974632,331.090485 89.980949,329.924225 90.010880,328.291992 
z"/>
<path fill="#020202" opacity="1.000000" stroke="none" 
	d="
M333.067993,422.857971 
	C331.840027,411.320343 330.787598,400.216278 329.353638,389.161713 
	C328.921448,385.830048 329.567444,384.923309 332.993286,384.931152 
	C378.307739,385.034882 423.622620,385.037659 468.937042,384.928467 
	C472.504852,384.919891 472.758331,385.996796 472.395996,389.216705 
	C469.102509,418.487854 465.971741,447.777893 462.974243,477.080963 
	C462.580719,480.928040 461.505798,482.419434 457.303528,482.400421 
	C419.653137,482.229736 382.001404,482.244202 344.350769,482.386017 
	C340.475464,482.400604 339.302551,481.224304 338.930756,477.413971 
	C337.169281,459.361603 335.073730,441.341858 333.067993,422.857971 
z"/>
<path fill="#B0BDC4" opacity="1.000000" stroke="none" 
	d="
M424.999939,467.246613 
	C402.516144,467.246582 380.531677,467.156494 358.549255,467.330048 
	C354.619354,467.361084 352.864838,466.800415 352.437958,462.227203 
	C350.613312,442.679810 348.307831,423.176422 346.067627,403.669647 
	C345.744019,400.851898 346.429016,399.966522 349.391663,399.974976 
	C383.699432,400.072815 418.007690,400.083466 452.315308,399.963287 
	C455.585876,399.951843 456.128510,400.885712 455.769714,403.934479 
	C453.436066,423.765015 451.201202,443.608551 449.171326,463.472076 
	C448.860016,466.518250 447.948639,467.400391 444.983704,467.308533 
	C438.494690,467.107483 431.995178,467.246460 424.999939,467.246613 
z"/>
<path fill="#FDFEFE" opacity="1.000000" stroke="none" 
	d="
M378.957642,433.979645 
	C378.940521,441.063690 378.940521,441.063690 372.258789,441.066986 
	C363.917511,441.071075 363.917511,441.071075 363.922729,432.616028 
	C363.926788,426.035370 363.926788,426.035370 370.650116,426.032623 
	C370.980743,426.032501 371.311401,426.029236 371.641998,426.033081 
	C380.023468,426.130859 378.841705,425.085663 378.957642,433.979645 
z"/>
<path fill="#FEFEFE" opacity="1.000000" stroke="none" 
	d="
M394.009216,438.719177 
	C393.981476,437.754211 393.975952,437.257751 393.975281,436.761292 
	C393.959259,424.865753 393.959381,424.865417 405.987976,426.044922 
	C407.096344,426.153656 408.703186,425.858673 408.766571,427.401886 
	C408.935822,431.520966 408.823547,435.652100 408.784607,439.778076 
	C408.782074,440.047028 408.500885,440.366272 408.269135,440.571625 
	C406.735352,441.930298 395.812775,440.855011 394.009216,438.719177 
z"/>
<path fill="#FEFEFE" opacity="1.000000" stroke="none" 
	d="
M425.402557,426.198456 
	C426.348267,426.076050 426.844116,426.046814 427.340149,426.042908 
	C439.156738,425.950012 439.192871,426.043304 438.053284,438.095917 
	C437.860931,440.130585 437.277496,441.220856 435.128387,441.056000 
	C434.964081,441.043365 434.797119,441.049652 434.632324,441.060669 
	C423.852875,441.781769 421.094910,437.577393 425.402557,426.198456 
z"/>
</svg>