<?xml version="1.0" encoding="utf-8"?>
<svg viewBox="0 0 512 512" xmlns="http://www.w3.org/2000/svg">
  <path fill="#FAB000" opacity="1.000000" stroke="none" d=" M409.524414,265.280487 C413.465210,264.760437 417.111145,264.642548 420.757324,264.532104 C426.906158,264.345886 430.001740,261.908783 430.100647,257.169373 C430.204651,252.184692 427.056610,249.596237 420.593323,249.593185 C372.661102,249.570557 324.728851,249.580475 276.796631,249.580185 C275.020935,249.580170 273.245239,249.580200 270.537964,249.580200 C273.170074,245.004578 275.363831,241.191055 277.820007,237.150681 C280.320099,235.316849 282.819489,234.806625 285.553619,234.880951 C296.265442,235.172073 306.998779,234.283737 317.695587,235.472748 C320.044189,235.733795 322.278503,235.081375 325.008362,234.478699 C326.135620,234.321243 326.783600,234.296494 327.915955,234.341797 C332.803040,235.571243 337.242859,235.086609 341.740204,235.037155 C355.046356,234.890884 368.372833,234.318298 382.092590,235.446198 C385.248108,234.857483 387.772064,235.803360 390.328796,236.503357 C404.787781,240.461975 419.647736,235.600357 428.126617,224.134857 C437.073822,212.036041 437.552612,195.753067 429.093292,183.041977 C425.141174,177.103516 419.447601,173.056259 412.857300,169.575577 C412.347534,169.167969 412.153992,168.990967 411.704834,168.517242 C411.307495,168.004684 411.165710,167.788864 410.868744,167.223450 C407.656830,158.322998 406.003632,149.340881 402.761169,140.850967 C400.525238,134.996323 398.128845,129.207413 393.382935,124.382126 C392.498169,123.781624 392.020813,123.264664 391.338135,122.466476 C390.801910,121.873329 390.512054,121.521385 390.010071,120.901093 C389.505951,120.277229 389.256134,119.892601 388.854675,119.192673 C386.066864,115.015900 382.175964,112.395805 378.971100,109.099236 C374.689453,104.695114 371.061218,99.813591 367.514374,94.849457 C366.372498,93.251274 365.198517,91.586716 365.862854,89.126167 C378.609070,93.470535 390.039246,99.695152 397.730377,111.145432 C405.844757,123.225845 415.161407,134.261414 425.654572,144.348160 C433.060608,151.467346 437.459839,160.360321 439.912750,170.249939 C442.803986,181.906921 446.355286,193.361649 452.067261,203.951935 C459.406433,217.559143 459.681244,231.958237 457.924164,246.742020 C457.670929,248.872711 456.823242,249.710205 454.780426,249.581894 C453.950653,249.529770 453.114532,249.572098 452.281372,249.581223 C444.503296,249.666473 442.123718,251.997803 442.119263,259.707336 C442.102112,289.370239 442.112549,319.033142 442.111572,348.696045 C442.111511,350.029144 442.157990,351.365356 442.085449,352.694824 C441.834412,357.296967 439.118378,360.093781 435.002747,360.046082 C430.978394,359.999420 428.258240,357.105072 428.032684,352.512726 C427.934723,350.517670 428.007874,348.514069 428.007721,346.514343 C428.006683,331.682892 428.019836,316.851410 428.002350,302.019989 C427.987640,289.560303 422.796265,283.109406 410.151306,280.092590 C406.867645,275.313751 407.287964,270.529663 409.524414,265.280487 z" transform="matrix(1, 0, 0, 1, 2.842170943040401e-14, 7.105427357601002e-15)"/>
  <path fill="#FCDD80" opacity="1.000000" stroke="none" d=" M236.435013,204.279526 C231.264938,196.150833 226.471909,188.060776 221.730484,179.940582 C219.242493,175.679626 215.939072,173.685013 210.647903,175.833984 C204.770020,171.783463 201.987335,166.036865 200.650864,159.150009 C205.084641,154.193268 205.420517,151.865219 202.302856,146.446976 C190.287201,125.564629 178.302261,104.663918 166.125259,83.875862 C164.335571,80.820610 164.620407,79.547997 167.515778,77.302582 C180.162643,67.494705 194.140671,62.071754 210.271606,61.698177 C221.117981,61.446983 231.611084,58.472107 242.022949,55.556229 C251.688110,52.849449 261.417145,52.223660 271.063873,55.102863 C285.973846,59.552963 301.250031,61.649529 317.115051,63.123745 C318.859680,65.880455 317.415131,67.904800 315.765869,70.228607 C313.631714,71.879257 311.438965,71.963852 309.287628,71.974228 C294.989197,72.043182 284.119110,88.705597 291.641663,101.758629 C292.387054,103.052048 293.012848,104.420288 293.371033,106.281128 C293.460083,108.543625 292.827606,110.240059 291.915558,111.846359 C284.795044,124.386993 277.561737,136.862625 270.277039,149.308380 C269.354889,150.883896 268.309998,152.383728 266.515717,153.722397 C264.461578,154.746933 262.644073,154.618500 260.812653,154.408768 C252.285538,153.432144 245.349762,156.343735 240.610565,163.475235 C235.550659,171.089294 236.183655,178.857452 241.108017,186.393127 C242.105484,187.919540 243.345734,189.296768 244.056885,191.434418 C243.676346,197.123199 241.229630,201.285797 236.435013,204.279526 z" transform="matrix(1, 0, 0, 1, 2.842170943040401e-14, 7.105427357601002e-15)"/>
  <path fill="#FDDE81" opacity="1.000000" stroke="none" d=" M120.325638,405.796692 C116.981567,403.099640 114.964249,399.638000 112.722534,396.371429 C107.142761,388.240814 100.841217,380.726135 93.613205,374.036560 C83.940178,365.084106 77.378555,354.419006 74.483292,341.473846 C71.898026,329.914764 67.736259,318.871521 62.223454,308.405151 C55.262680,295.189758 55.617798,281.202179 57.169537,267.004089 C57.341084,265.434479 57.909832,264.510437 59.604500,264.567108 C60.269318,264.589355 60.935875,264.554260 61.601639,264.554474 C107.876854,264.569977 154.152069,264.586426 200.829437,264.732117 C202.179199,270.557648 198.534119,273.939667 194.566803,277.425049 C191.532562,277.206604 189.855743,275.165283 187.788193,273.839966 C177.439789,267.206665 164.758087,270.190704 158.532837,280.778290 C152.680603,290.731476 156.875580,303.662628 167.717773,309.123260 C169.625809,310.084259 171.861115,310.469788 173.497574,312.594025 C174.154572,318.204315 170.879379,321.715363 167.470825,325.508301 C164.562042,326.402466 162.648315,324.920319 160.650085,323.756927 C137.248978,310.132904 107.466423,326.455200 107.167007,353.477997 C107.015907,367.114197 113.608231,377.650085 125.359406,384.782806 C127.190651,385.894348 129.312469,386.641724 130.459961,389.115417 C128.505722,395.651581 125.759552,401.413177 120.325638,405.796692 z" transform="matrix(1, 0, 0, 1, 2.842170943040401e-14, 7.105427357601002e-15)"/>
  <path fill="#FCDD80" opacity="1.000000" stroke="none" d=" M173.682236,440.321228 C163.647720,434.621857 163.633713,434.613770 169.079636,425.180542 C195.151001,380.020844 221.230591,334.865875 247.570099,289.535156 C248.499939,289.449921 249.261368,289.553558 249.629990,290.100403 C253.567902,295.942505 258.299469,301.371796 259.313171,309.010376 C257.624695,310.907562 255.518372,310.889618 253.605377,311.349091 C243.844223,313.693756 236.630737,322.547760 237.024109,331.759216 C237.471405,342.233429 245.200119,350.558807 255.963562,351.613190 C262.443024,352.247894 268.006866,349.798370 272.565338,345.099792 C274.050812,343.568695 274.993622,341.454010 277.572601,340.655823 C280.186523,341.438446 281.157104,343.453461 282.220123,345.303497 C290.420258,359.574982 298.733307,373.781250 306.898163,388.072906 C307.887573,389.804718 308.898315,391.558716 308.299530,394.033447 C306.693451,395.742462 304.838531,395.821228 303.030579,395.997925 C290.307831,397.241302 278.370728,414.081787 289.901398,428.507446 C291.237000,430.178406 292.780853,431.770020 292.583130,434.551208 C289.695465,439.030151 285.111176,439.127289 280.958740,439.929413 C270.847321,441.882446 260.457794,441.777130 250.357895,443.953766 C245.637299,444.971100 241.022125,446.344269 236.378967,447.621613 C223.194580,451.248688 210.070587,450.962219 197.034882,447.027405 C189.416473,444.727844 181.342651,444.031952 173.682236,440.321228 z" transform="matrix(1, 0, 0, 1, 2.842170943040401e-14, 7.105427357601002e-15)"/>
  <path fill="#FCDE81" opacity="1.000000" stroke="none" d=" M57.082027,237.358063 C54.875946,227.504044 56.550987,218.378906 60.540924,209.840820 C67.090317,195.825760 72.490868,181.465652 76.292389,166.458939 C78.632576,157.220947 83.862686,149.516678 90.713387,142.991150 C100.504181,133.665100 109.043091,123.328255 116.621773,112.147858 C121.439728,105.040222 127.419144,99.114838 135.509506,95.134232 C140.554352,97.886292 142.681213,102.133133 142.659286,107.835419 C141.164581,109.673927 139.270630,109.738441 137.524170,110.201225 C128.961777,112.470192 123.011726,119.453102 122.078789,128.285110 C121.308212,135.580017 126.221085,144.154053 133.312561,147.890503 C140.748398,151.808395 149.213364,150.656799 155.923370,144.810623 C157.541168,143.401093 159.004684,141.765442 161.599335,141.207397 C162.476624,141.233536 163.099503,141.231781 163.390015,141.582794 C168.872742,148.207489 173.775040,155.164719 175.550476,164.090240 C172.755722,166.500885 169.622971,166.163605 166.730026,165.908234 C154.254776,164.807007 137.834457,175.105942 133.300735,190.976242 C128.987076,206.076218 134.647217,221.291916 147.746384,230.222504 C150.648285,232.200928 154.768387,232.701660 156.002808,237.015076 C154.690170,238.532211 153.291306,238.997269 151.757095,238.999603 C137.202286,239.021713 122.644180,239.533691 107.692970,238.575348 C104.192909,236.524872 105.985893,234.428574 107.170517,232.521500 C109.398117,228.935440 110.999802,225.233780 111.030525,220.887878 C111.093971,211.915085 106.386688,204.360214 98.542908,201.187225 C90.612198,197.979080 81.351158,200.317307 75.433083,207.021957 C70.287750,212.851166 69.483994,222.364609 73.276077,229.953766 C74.460190,232.323563 77.320007,234.207397 75.582855,237.785156 C69.265785,239.528290 63.289043,239.996719 57.082027,237.358063 z" transform="matrix(1, 0, 0, 1, 2.842170943040401e-14, 7.105427357601002e-15)"/>
  <path fill="#FCDD80" opacity="1.000000" stroke="none" d=" M393.125183,122.655777 C398.413177,126.397621 401.134949,131.756256 403.391907,137.268219 C407.234070,146.651566 409.467346,156.555939 412.029114,166.727921 C410.174744,169.021118 407.982178,168.272675 405.866241,168.108322 C385.295532,166.510468 369.501923,177.088165 365.744171,195.751770 C362.874847,210.002914 367.611237,221.889130 379.059906,230.982895 C380.984161,232.511353 383.409363,233.515320 384.355530,236.451614 C365.822388,236.995361 347.278717,237.386536 328.330322,236.568283 C328.654999,233.783127 331.268860,234.263641 333.125366,233.541580 C340.488861,230.677628 345.554138,225.680054 346.819763,217.764832 C348.159119,209.388489 345.556000,202.281281 338.351318,197.331985 C331.696777,192.760590 324.483948,192.506744 317.565643,196.182449 C309.609406,200.409607 306.079498,207.482605 307.039337,216.531418 C307.869202,224.354782 312.233643,229.619171 319.310425,232.786316 C321.552490,233.789734 324.258759,233.745651 326.063416,236.140671 C310.397614,237.611542 294.697296,236.756165 278.544983,236.948242 C288.373749,218.921967 298.621918,200.895248 308.966125,182.923828 C326.359558,152.705505 343.803894,122.516426 361.272064,92.341270 C362.161774,90.804352 362.622681,88.900002 364.726074,88.058441 C365.241089,88.301300 365.410980,88.441002 365.857483,88.760445 C366.134125,88.940193 366.061066,88.918800 366.070374,88.881912 C370.205902,96.808372 375.919189,103.557938 382.149628,109.919876 C384.796936,112.623055 387.376892,115.392242 390.119110,118.437813 C390.112396,118.957672 389.974060,119.171150 389.496277,119.556213 C386.147400,120.273994 383.744751,118.400002 381.064270,117.658737 C371.489807,115.010986 362.254730,118.526390 357.380707,126.791832 C352.678986,134.765076 354.089783,144.879471 360.827423,151.502289 C367.426086,157.988480 377.902466,159.117416 385.627533,154.174744 C393.829407,148.927002 397.170166,139.476227 394.115692,130.249619 C393.442932,128.217392 392.114502,126.389954 392.259399,123.749870 C392.475067,123.155228 392.609467,122.935669 393.125183,122.655777 z" transform="matrix(1, 0, 0, 1, 2.842170943040401e-14, 7.105427357601002e-15)"/>
  <path fill="#FC9E00" opacity="1.000000" stroke="none" d=" M210.772278,459.716644 C211.700836,465.229614 214.709106,467.664398 219.835312,468.638062 C227.667175,470.125549 235.392731,472.182312 243.148163,474.060486 C253.237579,476.503876 263.362061,476.390900 273.317963,473.759521 C286.541718,470.264404 299.804443,467.229797 313.515106,466.481964 C328.695526,465.653900 341.930023,459.666840 353.638092,450.369629 C357.930145,446.961334 359.810699,447.925842 361.771881,452.375671 C363.106110,455.403076 365.074738,458.146484 366.691620,461.054718 C370.068054,467.127838 368.882751,470.855682 362.548309,473.944244 C339.783661,485.043823 315.842438,492.422455 290.757599,495.753143 C243.163559,502.072510 197.514343,495.232635 154.020813,474.694489 C145.629623,470.732056 144.658661,467.523743 149.269821,459.483551 C151.008545,456.451843 152.945709,453.518280 154.466400,450.381897 C155.827637,447.574310 157.090500,447.330933 159.635818,449.190796 C166.352722,454.098785 173.215714,458.812653 180.998505,461.984009 C185.654373,463.881226 189.447784,463.296417 192.249481,458.311768 C198.670029,455.565094 204.573486,457.203094 210.772278,459.716644 z" transform="matrix(1, 0, 0, 1, 2.842170943040401e-14, 7.105427357601002e-15)"/>
  <path fill="#FC9E00" opacity="1.000000" stroke="none" d=" M410.326447,70.677856 C458.201019,111.169701 486.918335,162.008377 496.112640,223.750137 C496.921112,229.179047 497.553375,234.650726 497.911041,240.125839 C498.323273,246.436768 495.556549,249.304199 489.140594,249.535294 C484.980316,249.685135 480.800293,249.393478 476.648468,249.633865 C473.484222,249.817093 472.440277,248.707260 472.922363,245.621613 C473.280975,243.326248 473.172333,240.961639 473.449432,238.649155 C474.910492,226.456100 473.359558,214.671600 468.112976,203.570343 C461.839386,190.296021 456.810486,176.614838 453.116333,162.408600 C450.287231,151.529053 444.687195,142.108810 436.699371,134.276627 C426.790039,124.560387 417.762207,114.164185 410.048431,102.614052 C401.891418,90.400238 390.267334,82.527405 376.927765,77.069847 C372.634125,75.313217 371.139526,73.650024 374.347076,69.448318 C376.649780,66.431923 378.148499,62.815105 380.180847,59.575924 C383.266327,54.658306 387.185150,53.710136 392.004089,57.065876 C398.148010,61.344254 404.048706,65.971825 410.326447,70.677856 z" transform="matrix(1, 0, 0, 1, 2.842170943040401e-14, 7.105427357601002e-15)"/>
  <path fill="#FC9E00" opacity="1.000000" stroke="none" d=" M154.930695,64.291084 C152.584259,60.210178 150.340271,56.510387 148.248947,52.726219 C145.049316,46.936638 146.274887,43.084579 152.280579,40.151840 C177.644562,27.765919 204.388763,20.045000 232.455627,17.255079 C277.362671,12.791201 320.349213,19.969322 361.190491,39.377506 C369.356262,43.257961 370.385773,46.519451 365.961365,54.212784 C364.053894,57.529552 362.050049,60.793133 360.224823,64.154114 C359.196289,66.048119 358.316315,67.023270 356.199982,65.273422 C340.811523,52.549595 322.877808,47.070820 303.132385,46.449184 C294.776978,46.186134 286.714203,43.826710 278.725494,41.512623 C265.289062,37.620487 251.859344,37.136616 238.359055,41.011150 C226.808411,44.326157 215.107925,46.698273 203.061829,47.293205 C186.846634,48.094040 172.860458,54.610950 160.114853,64.293587 C158.755554,65.326225 156.994644,68.192101 154.930695,64.291084 z" transform="matrix(1, 0, 0, 1, 2.842170943040401e-14, 7.105427357601002e-15)"/>
  <path fill="#FC9E00" opacity="1.000000" stroke="none" d=" M101.473907,107.488762 C95.837769,116.035667 89.449608,123.494339 82.224182,130.202377 C70.766968,140.839218 63.459965,153.767365 59.932957,168.971863 C57.748352,178.389420 54.549538,187.486862 50.149151,196.125885 C42.863255,210.429840 39.590267,225.387238 41.764259,241.521484 C42.841106,249.513306 42.369392,249.576996 34.519165,249.577194 C32.186569,249.577271 29.853733,249.598312 27.521425,249.572281 C19.029661,249.477554 16.484646,246.729446 17.193039,238.245193 C19.984367,204.813980 29.150251,173.237595 45.019558,143.665451 C63.624275,108.995911 89.061096,80.389961 121.499359,58.065533 C128.420197,53.302532 131.700958,54.065681 135.948441,61.439648 C138.346222,65.602386 142.964127,70.326271 142.247833,73.937759 C141.495239,77.732185 134.572296,78.687721 130.309219,80.750267 C118.039375,86.686592 109.100540,96.082939 101.473907,107.488762 z" transform="matrix(1, 0, 0, 1, 2.842170943040401e-14, 7.105427357601002e-15)"/>
  <path fill="#FC9E00" opacity="1.000000" stroke="none" d=" M61.748070,397.252625 C35.858833,360.707550 21.091057,320.447876 17.223719,276.189758 C16.427008,267.072113 18.768742,264.566650 28.085018,264.542908 C29.917276,264.538239 31.749556,264.542114 33.581825,264.542114 C42.479618,264.542206 42.863060,264.591614 41.698833,273.630402 C39.756851,288.707489 42.645786,302.780884 49.395184,316.178253 C54.514168,326.339264 58.072525,337.039886 60.806080,348.028229 C64.111473,361.315186 70.683907,372.672943 80.583267,382.075134 C89.319267,390.372345 97.050529,399.495087 103.646675,409.566010 C112.168419,422.576874 124.120232,431.306580 138.340546,436.988068 C143.086014,438.884064 143.461807,440.892731 140.571518,444.732117 C138.585587,447.370178 137.221909,450.471130 135.517975,453.328094 C131.737198,459.667267 128.157501,460.470764 122.004356,456.267395 C98.531181,440.232330 78.524910,420.643951 61.748070,397.252625 z" transform="matrix(1, 0, 0, 1, 2.842170943040401e-14, 7.105427357601002e-15)"/>
  <path fill="#F8AE00" opacity="1.000000" stroke="none" d=" M56.717495,237.383911 C62.844242,236.968704 68.887856,236.948013 75.389160,236.897034 C77.373718,236.042984 78.787346,236.676804 80.104156,237.342361 C87.442879,241.051575 94.739006,241.005981 102.048561,237.277664 C103.086258,236.748352 104.199158,236.398743 105.757217,236.706345 C122.517708,236.833405 138.923157,236.803741 155.732086,236.665619 C157.444580,235.243317 159.109131,235.032867 160.765060,235.388733 C165.745239,236.458954 170.662643,235.822800 175.989548,235.063080 C189.198593,236.737961 196.914032,231.994751 200.907928,220.129272 C201.638626,217.958420 201.587296,215.914093 200.939453,213.419434 C200.640030,209.867828 201.776474,206.851822 201.984680,203.720963 C202.999100,188.467010 195.300095,175.485565 181.401413,168.916534 C179.207962,167.879852 176.576569,167.487167 175.227798,164.722382 C170.999466,156.865616 166.742050,149.386505 162.204315,141.664810 C160.419724,139.348907 161.279526,137.167557 161.997925,135.237305 C165.599030,125.561623 158.171341,111.402504 146.002762,109.965843 C144.515869,109.790283 143.041245,109.479073 141.981674,107.855064 C141.113922,103.009850 137.871170,99.746971 135.951172,95.429214 C150.225052,86.124939 150.230377,86.121864 158.489792,100.423416 C168.792770,118.263504 179.132812,136.082489 189.349045,153.972137 C191.797897,158.260284 194.909836,160.481232 200.362350,158.861465 C203.871704,164.271500 206.961670,169.750153 210.167038,175.566864 C206.143158,179.737213 206.434387,183.721130 209.179565,188.390366 C220.126999,207.010605 230.855438,225.759628 241.653534,244.467560 C242.464172,245.871979 243.184860,247.328308 243.987717,248.836349 C241.955032,250.175537 239.917938,249.553558 238.019135,249.554886 C180.108704,249.595398 122.198227,249.600708 64.287773,249.572266 C56.805744,249.568588 57.366119,250.726776 56.955807,242.759842 C56.870232,241.098267 56.742611,239.438858 56.717495,237.383911 z" transform="matrix(1, 0, 0, 1, 2.842170943040401e-14, 7.105427357601002e-15)"/>
  <path fill="#FCB101" opacity="1.000000" stroke="none" d=" M211.168121,459.648499 C205.065170,460.110535 199.131302,459.159271 192.828445,458.022339 C193.448883,453.158630 191.440598,449.956848 186.989166,448.198364 C182.178864,446.298157 177.849777,443.567871 173.437042,440.426880 C180.928604,440.678131 188.397842,442.302917 195.670853,444.553131 C209.713547,448.897858 223.732483,449.518402 237.767441,444.965332 C251.479004,440.517151 265.801483,440.040222 279.892761,438.040649 C284.013519,437.455902 288.029816,436.462433 292.092041,434.406738 C294.620056,432.980591 296.561646,434.308289 298.564178,434.945068 C310.456757,438.726776 320.901581,433.677643 324.995300,422.138000 C328.520081,412.202087 323.021942,401.128174 312.384491,396.738403 C310.860535,396.109528 309.192688,395.739044 308.004028,393.989990 C297.959412,376.415710 288.004120,359.199402 277.931213,341.668457 C276.369110,339.738861 277.040985,337.928558 277.361176,336.167816 C279.359619,325.179047 274.022949,315.830048 263.465149,311.891083 C261.916656,311.313354 260.304321,310.881256 259.034943,309.192413 C255.278580,302.556580 251.667801,296.270020 247.944962,289.672302 C250.938736,283.730743 254.044571,278.100342 257.458466,271.911469 C263.390747,282.171753 268.961090,291.796997 274.522919,301.427155 C299.290863,344.312134 324.029694,387.213989 348.881104,430.050537 C350.584076,432.985992 350.657227,434.307312 347.608978,436.659729 C334.940308,446.436584 320.992004,451.904907 304.860565,452.292847 C295.211273,452.524902 285.739471,454.732422 276.502960,457.601349 C263.894989,461.517487 251.365387,461.519012 238.716812,457.707855 C233.324905,456.083282 227.718338,455.185516 222.257996,453.769653 C216.871887,452.373077 213.334412,454.325348 211.168121,459.648499 z" transform="matrix(1, 0, 0, 1, 2.842170943040401e-14, 7.105427357601002e-15)"/>
  <path fill="#FCB100" opacity="1.000000" stroke="none" d=" M236.076340,204.582947 C238.365662,200.412048 240.694778,196.570694 243.140930,192.391022 C245.583145,190.943420 247.428970,192.488083 249.380753,193.227524 C259.589996,197.095215 269.987854,193.612854 275.249237,184.501328 C280.386108,175.605438 278.145630,165.095718 269.635406,158.201202 C268.227142,157.060318 266.525757,156.214035 265.803894,153.999268 C274.551056,138.306702 283.339172,122.972794 292.262573,107.296547 C294.839813,106.407051 296.443604,108.103416 298.239990,109.196892 C308.626312,115.519035 320.839691,112.899704 326.943542,103.003471 C333.042114,93.115845 329.862213,80.998253 319.494354,74.527931 C317.691620,73.402893 315.464050,72.846008 314.268250,70.426086 C315.208344,68.022972 316.221527,65.974518 317.395691,63.580719 C330.149689,64.367241 339.536041,72.057022 349.412994,78.767799 C352.029816,80.545784 349.864349,81.962334 349.105682,83.290977 C341.849152,95.999443 334.504211,108.657433 327.186798,121.331146 C304.902313,159.927917 282.619568,198.525726 260.331299,237.120300 C259.505524,238.550217 258.628754,239.950684 257.473785,241.865448 C250.201584,229.283096 243.158859,217.097809 236.076340,204.582947 z" transform="matrix(1, 0, 0, 1, 2.842170943040401e-14, 7.105427357601002e-15)"/>
  <path fill="#FDB100" opacity="1.000000" stroke="none" d=" M194.049072,277.315979 C196.536621,273.215057 198.768845,269.384857 201.116318,265.208069 C215.338531,264.861450 229.445511,264.861450 243.589233,264.861450 C243.768967,266.830750 242.465790,268.057556 241.671921,269.434052 C212.267792,320.419312 182.795242,371.365234 153.468033,422.394653 C151.588440,425.665161 150.169479,426.373871 146.661896,424.595337 C137.012497,419.702606 126.980698,415.485260 120.058075,406.152039 C123.115616,400.469421 126.280785,395.119568 129.697266,389.491516 C131.939896,387.786194 134.087418,388.450409 136.217361,388.722839 C158.150375,391.527985 175.347198,378.262604 177.737595,356.235504 C178.669250,347.650604 175.632935,339.872314 170.659378,332.853821 C169.137344,330.705994 167.056625,328.874969 166.594894,325.716614 C168.786194,321.470154 170.939362,317.605835 173.198669,313.396484 C174.427078,311.240295 176.334991,311.213287 178.118073,310.998016 C191.760254,309.351288 201.032303,295.212280 194.747650,281.874603 C194.116226,280.534546 193.494614,279.152466 194.049072,277.315979 z" transform="matrix(1, 0, 0, 1, 2.842170943040401e-14, 7.105427357601002e-15)"/>
  <path fill="#FEDF81" opacity="1.000000" stroke="none" d=" M409.380493,264.753204 C409.822723,269.595978 409.826324,274.316956 409.809204,279.502533 C395.621948,281.379974 389.189331,288.528564 389.151520,302.901062 C389.126801,312.294647 385.849243,317.083801 378.853699,317.948151 C372.174133,318.773438 366.285309,314.367371 366.139313,307.661133 C365.845917,294.182526 366.097839,280.692871 365.962524,267.209412 C365.933136,264.283569 367.624451,264.552765 369.487854,264.557495 C382.639160,264.590698 395.790497,264.608612 409.380493,264.753204 z" transform="matrix(1, 0, 0, 1, 2.842170943040401e-14, 7.105427357601002e-15)"/>
  <path fill="#FAB000" opacity="1.000000" stroke="none" d=" M366.095581,88.677925 C365.778656,88.998909 365.490570,88.885933 365.170532,88.381424 C365.399811,88.246277 365.728424,88.330963 366.095581,88.677925 z" transform="matrix(1, 0, 0, 1, 2.842170943040401e-14, 7.105427357601002e-15)"/>
  <path fill="#040201" opacity="1.000000" stroke="none" d=" M384.734344,236.881958 C370.922607,229.293274 362.963531,218.270248 362.992157,202.435944 C363.035065,178.715775 385.516754,161.198334 408.662720,166.703476 C409.468719,166.895172 410.289978,167.022675 411.529480,167.156647 C411.954834,167.133179 411.989563,167.045425 411.945251,167.029144 C412.059174,167.144547 412.217377,167.276230 412.631592,167.580475 C438.282227,177.981277 443.661957,206.864700 429.871674,225.174805 C419.529144,238.907181 402.487762,243.436310 384.734344,236.881958 z" transform="matrix(1, 0, 0, 1, 2.842170943040401e-14, 7.105427357601002e-15)"/>
  <path fill="#040301" opacity="1.000000" stroke="none" d=" M326.383850,236.450546 C316.639893,235.611633 309.656281,231.012222 306.235748,222.129791 C303.144623,214.102798 304.434998,206.374802 310.012817,199.660904 C316.367065,192.012405 327.218781,189.677200 336.295959,193.829239 C345.611450,198.090286 350.598389,207.584488 349.006165,218.027054 C347.528931,227.715286 339.548370,234.925217 328.335419,236.419144 C327.510498,236.470505 327.099731,236.430283 326.383850,236.450546 z" transform="matrix(1, 0, 0, 1, 2.842170943040401e-14, 7.105427357601002e-15)"/>
  <path fill="#FCDD80" opacity="1.000000" stroke="none" d=" M391.901245,121.004150 C392.529205,121.260521 392.906128,121.672714 393.394775,122.340179 C393.506561,122.595451 393.166382,122.876144 392.995300,123.015274 C392.133118,123.253159 391.735992,122.887436 391.459106,122.007401 C391.510406,121.528297 391.580292,121.344139 391.901245,121.004150 z" transform="matrix(1, 0, 0, 1, 2.842170943040401e-14, 7.105427357601002e-15)"/>
  <path fill="#FCDD80" opacity="1.000000" stroke="none" d=" M412.759430,167.584503 C412.572662,167.674484 412.257660,167.595978 411.921814,167.265167 C412.191284,167.062286 412.434692,167.196671 412.759430,167.584503 z" transform="matrix(1, 0, 0, 1, 2.842170943040401e-14, 7.105427357601002e-15)"/>
  <path fill="#FCDD80" opacity="1.000000" stroke="none" d=" M390.964386,119.952423 C391.517120,119.916168 391.764679,120.121651 392.049072,120.627739 C392.016174,120.976540 391.880066,121.104767 391.539001,121.424576 C391.194946,121.483528 391.055847,121.350914 390.801575,120.953896 C390.699463,120.497711 390.712524,120.305916 390.964386,119.952423 z" transform="matrix(1, 0, 0, 1, 2.842170943040401e-14, 7.105427357601002e-15)"/>
  <path fill="#FCDD80" opacity="1.000000" stroke="none" d=" M390.024292,118.983208 C390.544495,118.891228 390.786072,119.098930 391.089325,119.579010 C391.062653,119.932503 390.922180,120.074272 390.570923,120.428604 C390.162964,120.514671 389.965820,120.388191 389.557068,119.981232 C389.496246,119.541237 389.647064,119.381737 390.024292,118.983208 z" transform="matrix(1, 0, 0, 1, 2.842170943040401e-14, 7.105427357601002e-15)"/>
  <path fill="#040302" opacity="1.000000" stroke="none" d=" M225.349060,137.052399 C205.524170,134.025421 191.903458,118.503609 192.135666,99.688126 C192.362930,81.273949 206.466034,65.465736 224.738007,63.144104 C243.288803,60.787033 260.669861,72.595512 265.413788,90.963791 C271.802856,115.702080 251.635651,139.665375 225.349060,137.052399 z" transform="matrix(1, 0, 0, 1, 2.842170943040401e-14, 7.105427357601002e-15)"/>
  <path fill="#040301" opacity="1.000000" stroke="none" d=" M313.817932,70.124260 C322.111572,72.757362 328.310028,77.326355 330.917236,85.663628 C334.002716,95.530464 329.885284,106.198845 321.049957,111.496902 C311.888519,116.990494 301.438629,115.406487 292.675842,107.096123 C287.068909,99.352333 285.167786,91.210030 289.538116,82.613007 C294.467651,72.915909 302.750580,69.091560 313.817932,70.124260 z" transform="matrix(1, 0, 0, 1, 2.842170943040401e-14, 7.105427357601002e-15)"/>
  <path fill="#040301" opacity="1.000000" stroke="none" d=" M265.361633,153.538086 C274.634888,157.848267 279.845337,164.723969 279.835632,174.655945 C279.826996,183.467560 275.633392,190.271133 267.737213,194.348038 C259.443939,198.629959 251.422867,197.649704 243.574219,192.144379 C228.903595,178.091721 235.840500,161.119049 246.288177,155.254166 C252.249802,151.907532 258.469513,151.302750 265.361633,153.538086 z" transform="matrix(1, 0, 0, 1, 2.842170943040401e-14, 7.105427357601002e-15)"/>
  <path fill="#040301" opacity="1.000000" stroke="none" d=" M166.325699,325.203705 C177.438354,335.848541 182.326813,348.326324 178.486496,363.294342 C173.115448,384.228607 152.678146,395.275269 130.420425,389.263367 C116.705734,383.431335 107.842682,373.980072 105.844887,359.287323 C103.712708,343.606201 109.508110,331.080963 122.770325,322.657379 C136.083923,314.201141 149.797745,314.843262 163.191467,323.041809 C164.178391,323.645935 165.078110,324.392578 166.325699,325.203705 z" transform="matrix(1, 0, 0, 1, 2.842170943040401e-14, 7.105427357601002e-15)"/>
  <path fill="#040301" opacity="1.000000" stroke="none" d=" M194.044983,276.805115 C199.442825,285.112274 200.534790,293.513580 195.530930,301.940247 C190.778442,309.943573 183.385742,313.414124 173.712204,312.993103 C160.988785,309.124603 154.699646,302.373779 154.029861,292.361572 C153.396011,282.886719 158.617493,274.081818 167.165009,270.211914 C176.298447,266.076691 185.821152,268.349365 194.044983,276.805115 z" transform="matrix(1, 0, 0, 1, 2.842170943040401e-14, 7.105427357601002e-15)"/>
  <path fill="#040402" opacity="1.000000" stroke="none" d=" M86.539345,321.697968 C77.063148,315.976593 72.720718,307.591827 74.153809,298.256195 C75.520020,289.356262 82.316116,281.977692 91.038696,279.924194 C100.408714,277.718201 109.747414,281.385986 114.956741,289.317963 C120.092789,297.138397 119.892891,306.973969 114.442787,314.606140 C108.939507,322.312805 99.449669,325.618103 90.161514,323.034637 C89.045830,322.724304 87.971107,322.266724 86.539345,321.697968 z" transform="matrix(1, 0, 0, 1, 2.842170943040401e-14, 7.105427357601002e-15)"/>
  <path fill="#040302" opacity="1.000000" stroke="none" d=" M210.969879,372.936035 C227.670929,360.145813 248.195053,361.183136 261.917206,375.260834 C274.800171,388.477692 275.897980,409.605438 264.454071,424.085968 C250.961182,441.159332 225.991623,443.157959 210.012344,428.443573 C193.714249,413.435638 194.019287,388.942902 210.969879,372.936035 z" transform="matrix(1, 0, 0, 1, 2.842170943040401e-14, 7.105427357601002e-15)"/>
  <path fill="#040301" opacity="1.000000" stroke="none" d=" M258.477173,308.907898 C275.781586,311.929932 283.458344,324.686920 277.882294,340.936523 C269.681458,352.804749 258.990784,356.563965 248.342468,351.716980 C239.075699,347.498840 233.637268,337.278717 235.508438,327.598541 C237.678299,316.373108 246.081711,309.434113 258.477173,308.907898 z" transform="matrix(1, 0, 0, 1, 2.842170943040401e-14, 7.105427357601002e-15)"/>
  <path fill="#040301" opacity="1.000000" stroke="none" d=" M307.483337,393.690277 C320.052521,396.113922 327.555664,404.064362 327.985809,414.899780 C328.400299,425.341248 321.978973,434.487762 311.939697,437.364868 C305.226440,439.288788 298.828735,438.335236 292.679565,434.259857 C278.825928,422.728271 282.113770,406.394470 291.419189,398.805328 C295.997467,395.071503 301.204468,393.465912 307.483337,393.690277 z" transform="matrix(1, 0, 0, 1, 2.842170943040401e-14, 7.105427357601002e-15)"/>
  <path fill="#040201" opacity="1.000000" stroke="none" d=" M177.768753,236.712906 C170.565552,238.141647 163.699310,238.699203 156.496796,236.620331 C130.204651,227.715225 123.136398,199.166473 136.070770,180.293259 C145.259811,166.885056 158.351929,162.033859 174.759125,164.302612 C195.091827,171.034439 205.188705,184.893311 203.960999,203.988647 C203.782013,206.772522 202.903168,209.511383 202.303894,212.659698 C200.927872,225.009781 191.085419,234.580841 177.768753,236.712906 z" transform="matrix(1, 0, 0, 1, 2.842170943040401e-14, 7.105427357601002e-15)"/>
  <path fill="#040301" opacity="1.000000" stroke="none" d=" M106.236923,236.564789 C94.837967,244.277588 86.471664,244.357925 76.182587,237.006989 C69.616592,230.216034 67.019684,222.533142 69.652435,213.590988 C72.251915,204.761856 80.082840,198.515121 88.876663,197.923737 C98.513626,197.275650 106.879074,201.914948 110.971001,210.176773 C115.289040,218.895111 113.634491,228.260010 106.236923,236.564789 z" transform="matrix(1, 0, 0, 1, 2.842170943040401e-14, 7.105427357601002e-15)"/>
  <path fill="#040301" opacity="1.000000" stroke="none" d=" M141.549454,107.532913 C160.634308,108.943649 169.740982,124.051956 161.974274,141.088089 C153.723648,151.365875 144.357956,154.541962 134.500732,150.721985 C125.105675,147.081085 118.971687,137.063690 120.244003,127.439339 C121.705170,116.386467 129.422119,109.052193 141.549454,107.532913 z" transform="matrix(1, 0, 0, 1, 2.842170943040401e-14, 7.105427357601002e-15)"/>
  <path fill="#040301" opacity="1.000000" stroke="none" d=" M389.047882,119.520271 C389.508057,119.970863 389.713104,120.203636 390.160339,120.520103 C390.506836,120.920029 390.703247,121.157860 391.141693,121.485397 C391.661041,122.058708 391.988007,122.501274 392.569580,123.049133 C396.463745,129.027313 398.272797,135.298798 396.567230,142.183075 C393.398560,154.972885 380.170990,162.233749 367.794403,158.068802 C355.373688,153.889008 349.129608,140.002304 354.303619,128.065567 C359.540588,115.983604 374.237488,111.018311 385.823425,117.434914 C386.839172,117.997467 387.776520,118.701485 389.047882,119.520271 z" transform="matrix(1, 0, 0, 1, 2.842170943040401e-14, 7.105427357601002e-15)"/>
  <path fill="#F8D879" opacity="1.000000" stroke="none" d=" M177.857727,236.880188 C188.876770,232.610062 197.441330,225.297089 202.109863,213.376160 C204.999329,224.590820 196.604904,236.080765 184.725449,236.951248 C182.589203,237.107773 180.427063,236.911041 177.857727,236.880188 z" transform="matrix(1, 0, 0, 1, 2.842170943040401e-14, 7.105427357601002e-15)"/>
  <path fill="#ED524F" opacity="1.000000" stroke="none" d=" M383.929749,217.429947 C376.565704,209.057861 376.033020,198.249222 382.178711,189.786255 C388.368622,181.262360 398.857727,178.542526 409.608215,182.975235 C411.615662,185.051498 412.137543,187.258041 411.813080,189.688400 C410.121521,202.358765 403.901367,211.770401 392.029358,217.090088 C389.529602,218.210190 386.982025,218.845764 383.929749,217.429947 z" transform="matrix(1, 0, 0, 1, 2.842170943040401e-14, 7.105427357601002e-15)"/>
  <path fill="#D12F2F" opacity="1.000000" stroke="none" d=" M383.701050,217.592865 C400.149658,214.961960 410.246796,202.258148 409.935608,183.630798 C418.644409,187.476318 422.574951,194.661560 422.130188,204.157593 C421.699921,213.345474 416.902496,219.862732 408.485138,223.297638 C399.204346,227.084885 390.922729,224.941391 383.701050,217.592865 z" transform="matrix(1, 0, 0, 1, 2.842170943040401e-14, 7.105427357601002e-15)"/>
  <path fill="#F99C00" opacity="1.000000" stroke="none" d=" M320.402039,217.204315 C319.262939,213.142273 319.825073,209.925644 323.371307,207.843109 C326.039581,206.276154 328.775574,206.454910 331.281433,208.198929 C333.846130,209.983917 334.649567,212.596405 334.095184,215.601913 C333.568176,218.459015 331.839996,220.385757 329.028381,221.060287 C325.447266,221.919418 322.517578,220.873413 320.402039,217.204315 z" transform="matrix(1, 0, 0, 1, 2.842170943040401e-14, 7.105427357601002e-15)"/>
  <path fill="#EC524F" opacity="1.000000" stroke="none" d=" M215.237717,116.259583 C206.691742,109.461090 204.785538,98.226936 210.197113,88.956741 C215.892242,79.200806 226.962112,75.613182 238.607376,80.056442 C240.858398,82.611176 241.095200,85.349281 240.856491,88.240120 C239.762726,101.486679 228.780472,113.656723 215.237717,116.259583 z" transform="matrix(1, 0, 0, 1, 2.842170943040401e-14, 7.105427357601002e-15)"/>
  <path fill="#D12F2F" opacity="1.000000" stroke="none" d=" M215.003922,116.666138 C215.021194,115.060783 215.813538,114.489632 217.030075,113.985001 C233.544159,107.134857 239.245514,98.549225 238.953094,80.695587 C247.349091,84.211868 251.518234,91.159157 251.553299,100.124451 C251.588623,109.152100 247.232193,116.184402 238.926895,120.042625 C230.521301,123.947411 222.435837,122.984581 215.003922,116.666138 z" transform="matrix(1, 0, 0, 1, 2.842170943040401e-14, 7.105427357601002e-15)"/>
  <path fill="#F59900" opacity="1.000000" stroke="none" d=" M309.899200,99.686447 C304.097015,98.249428 301.543243,95.393860 302.313690,91.328552 C303.002167,87.695686 305.216248,85.352638 309.023621,85.046783 C312.588898,84.760368 315.121368,86.502129 316.406433,89.782997 C317.819305,93.390312 316.531311,96.299797 313.500519,98.433586 C312.589813,99.074768 311.358276,99.260307 309.899200,99.686447 z" transform="matrix(1, 0, 0, 1, 2.842170943040401e-14, 7.105427357601002e-15)"/>
  <path fill="#F29800" opacity="1.000000" stroke="none" d=" M256.354950,181.848816 C250.484894,179.124893 248.697571,174.969177 251.234161,170.772049 C253.399246,167.189636 258.237427,166.101654 261.654053,168.532639 C264.162781,170.317642 265.459778,172.858017 264.733978,175.894455 C263.762268,179.959549 261.001587,182.028122 256.354950,181.848816 z" transform="matrix(1, 0, 0, 1, 2.842170943040401e-14, 7.105427357601002e-15)"/>
  <path fill="#ED524F" opacity="1.000000" stroke="none" d=" M126.178024,368.317749 C119.016037,360.174561 118.470444,349.490051 124.401863,341.172791 C130.531189,332.578003 140.704010,329.757080 151.654907,333.923676 C154.722580,337.436096 154.413986,341.324707 153.584137,345.016357 C151.151810,355.836792 144.999451,363.792328 134.665298,368.257263 C132.001877,369.407990 129.312210,369.982788 126.178024,368.317749 z" transform="matrix(1, 0, 0, 1, 2.842170943040401e-14, 7.105427357601002e-15)"/>
  <path fill="#D12F2F" opacity="1.000000" stroke="none" d=" M125.920921,368.481750 C140.347778,367.140503 151.943817,354.709473 152.026260,340.028442 C152.035583,338.367279 152.000961,336.705841 151.981659,334.593628 C160.635422,338.146790 164.824280,345.276855 164.671494,354.455444 C164.513550,363.944092 159.591415,371.055298 150.688019,374.526733 C141.410370,378.144073 133.025848,376.049225 125.920921,368.481750 z" transform="matrix(1, 0, 0, 1, 2.842170943040401e-14, 7.105427357601002e-15)"/>
  <path fill="#F59A00" opacity="1.000000" stroke="none" d=" M179.092651,297.368530 C174.342514,298.791718 171.171127,297.149353 169.489319,293.084625 C168.130173,289.799683 169.204514,286.818726 172.048874,284.733734 C174.911697,282.635193 177.951874,282.714630 180.792862,284.877319 C185.162521,288.203674 184.579468,293.295319 179.092651,297.368530 z" transform="matrix(1, 0, 0, 1, 2.842170943040401e-14, 7.105427357601002e-15)"/>
  <path fill="#F59900" opacity="1.000000" stroke="none" d=" M89.005852,301.940125 C89.393967,296.774261 92.132881,294.178650 96.768929,294.306915 C100.456146,294.408905 102.965355,296.780487 103.509941,300.507507 C104.090218,304.478668 102.164642,307.253143 98.425034,308.577606 C94.324356,310.029938 90.839546,307.646332 89.005852,301.940125 z" transform="matrix(1, 0, 0, 1, 2.842170943040401e-14, 7.105427357601002e-15)"/>
  <path fill="#ED524F" opacity="1.000000" stroke="none" d=" M219.412003,416.192169 C211.829559,408.160339 210.957962,397.220428 216.895401,388.626984 C223.162582,379.556274 233.866104,376.652618 244.900726,381.328613 C246.065079,383.320007 246.931808,385.028961 246.946365,387.140320 C247.034149,399.878815 236.506302,413.476929 224.126617,416.508575 C222.642990,416.871857 221.200485,417.029144 219.412003,416.192169 z" transform="matrix(1, 0, 0, 1, 2.842170943040401e-14, 7.105427357601002e-15)"/>
  <path fill="#D12F2F" opacity="1.000000" stroke="none" d=" M219.202606,416.263428 C237.368134,410.957336 244.560822,401.714111 245.140717,382.031372 C253.730453,385.797272 257.576080,392.889435 257.225586,402.210541 C256.878601,411.438477 252.125137,418.107117 243.718964,421.517975 C234.755264,425.154999 226.397369,423.476166 219.202606,416.263428 z" transform="matrix(1, 0, 0, 1, 2.842170943040401e-14, 7.105427357601002e-15)"/>
  <path fill="#F49900" opacity="1.000000" stroke="none" d=" M254.959808,338.129150 C251.265488,336.307526 249.596237,333.591736 250.349121,329.882477 C250.998291,326.684113 253.134064,324.601349 256.435486,324.084900 C259.521881,323.602051 262.003479,324.830261 263.693604,327.414124 C265.408875,330.036407 265.395874,332.817841 263.583282,335.357605 C261.562134,338.189545 258.799988,339.363770 254.959808,338.129150 z" transform="matrix(1, 0, 0, 1, 2.842170943040401e-14, 7.105427357601002e-15)"/>
  <path fill="#F69A00" opacity="1.000000" stroke="none" d=" M304.339447,423.110291 C299.873749,421.808685 297.899963,418.978912 298.485535,414.841370 C298.934479,411.669495 300.925385,409.463165 304.286865,408.880310 C308.533234,408.144012 312.386169,410.887787 312.950043,415.019165 C313.582001,419.649567 310.472015,422.735077 304.339447,423.110291 z" transform="matrix(1, 0, 0, 1, 2.842170943040401e-14, 7.105427357601002e-15)"/>
  <path fill="#ED524F" opacity="1.000000" stroke="none" d=" M150.489868,215.241089 C143.406616,206.662399 143.033310,195.818100 149.200409,187.579987 C155.522369,179.135025 165.972687,176.523499 176.580154,181.032364 C178.347488,183.001251 178.994568,185.002792 178.734634,187.271271 C177.230453,200.398529 170.835968,210.007217 158.491882,215.293274 C155.991394,216.364059 153.424438,217.038254 150.489868,215.241089 z" transform="matrix(1, 0, 0, 1, 2.842170943040401e-14, 7.105427357601002e-15)"/>
  <path fill="#D12F2F" opacity="1.000000" stroke="none" d=" M150.269989,215.314331 C161.850571,214.627441 173.110809,205.013870 175.778763,192.924362 C176.559204,189.387863 177.401077,185.800858 176.911728,181.675629 C185.602798,185.544128 189.492554,192.776321 189.006683,202.217270 C188.525681,211.563141 183.530823,218.186935 174.898788,221.507050 C165.591705,225.086761 157.338181,222.685852 150.269989,215.314331 z" transform="matrix(1, 0, 0, 1, 2.842170943040401e-14, 7.105427357601002e-15)"/>
  <path fill="#F99C00" opacity="1.000000" stroke="none" d=" M95.579880,225.754486 C91.895096,228.044785 88.602356,227.996780 85.773544,225.192017 C83.268883,222.708618 83.036942,219.601807 84.645927,216.539932 C86.202324,213.578156 88.897209,212.502228 92.141808,212.955307 C98.080116,213.784592 99.853569,219.761063 95.579880,225.754486 z" transform="matrix(1, 0, 0, 1, 2.842170943040401e-14, 7.105427357601002e-15)"/>
  <path fill="#F89C00" opacity="1.000000" stroke="none" d=" M139.083984,136.265747 C136.039810,134.224014 134.647659,131.705032 135.350861,128.441040 C135.942139,125.696518 137.587112,123.649849 140.447403,122.924026 C143.617188,122.119675 146.389206,122.839424 148.389664,125.531349 C150.380035,128.209717 150.495712,131.128159 148.598068,133.847168 C146.319107,137.112503 143.142090,137.898010 139.083984,136.265747 z" transform="matrix(1, 0, 0, 1, 2.842170943040401e-14, 7.105427357601002e-15)"/>
  <path fill="#F89C00" opacity="1.000000" stroke="none" d=" M377.357269,143.799133 C373.386017,144.613281 370.317749,143.798355 368.509033,140.435974 C367.082825,137.784744 367.209808,135.014832 369.063843,132.515213 C370.943756,129.980606 373.551300,129.290771 376.534515,129.881271 C379.411255,130.450699 381.267303,132.314072 381.899139,135.073792 C382.781311,138.927124 381.256134,141.831818 377.357269,143.799133 z" transform="matrix(1, 0, 0, 1, 2.842170943040401e-14, 7.105427357601002e-15)"/>
</svg>