<?xml version="1.0" encoding="utf-8"?>
<!-- Generator: Adobe Illustrator 27.5.0, SVG Export Plug-In . SVG Version: 6.00 Build 0)  -->
<svg version="1.1" xmlns="http://www.w3.org/2000/svg" xmlns:xlink="http://www.w3.org/1999/xlink" x="0px" y="0px"
	 viewBox="0 0 500 500" style="enable-background:new 0 0 500 500;" xml:space="preserve">
<g id="Background_2">
	<g>
		<g>
			<g>
				<g>
					<rect y="382.398" style="fill:#D1E3FF;" width="500" height="0.25"/>
					<rect x="413.5" y="396.429" style="fill:#D1E3FF;" width="10.611" height="0.25"/>
					<rect x="363.015" y="396.554" style="fill:#D1E3FF;" width="43.151" height="0.25"/>
					<rect x="236.85" y="394.167" style="fill:#D1E3FF;" width="72.817" height="0.25"/>
					<rect x="171.855" y="398.514" style="fill:#D1E3FF;" width="23.108" height="0.25"/>
					<rect x="86.127" y="394.292" style="fill:#D1E3FF;" width="31.82" height="0.25"/>
					<rect x="123.5" y="394.292" style="fill:#D1E3FF;" width="29.741" height="0.25"/>
					<rect x="65.294" y="389.917" style="fill:#D1E3FF;" width="30.372" height="0.25"/>
					<path style="fill:#D1E3FF;" d="M237.014,337.8H43.915c-3.147,0-5.708-2.561-5.708-5.708V60.66c0-3.147,2.561-5.708,5.708-5.708
						h193.099c3.146,0,5.707,2.561,5.707,5.708v271.432C242.721,335.239,240.16,337.8,237.014,337.8z M43.915,55.203
						c-3.01,0-5.458,2.448-5.458,5.458v271.432c0,3.01,2.448,5.458,5.458,5.458h193.099c3.009,0,5.457-2.448,5.457-5.458V60.66
						c0-3.009-2.448-5.458-5.457-5.458H43.915z"/>
					<path style="fill:#D1E3FF;" d="M453.31,337.8H260.212c-3.146,0-5.707-2.561-5.707-5.708V60.66c0-3.147,2.561-5.708,5.707-5.708
						H453.31c3.148,0,5.708,2.561,5.708,5.708v271.432C459.019,335.239,456.458,337.8,453.31,337.8z M260.212,55.203
						c-3.009,0-5.457,2.448-5.457,5.458v271.432c0,3.01,2.448,5.458,5.457,5.458H453.31c3.01,0,5.458-2.448,5.458-5.458V60.66
						c0-3.009-2.448-5.458-5.458-5.458H260.212z"/>
				</g>
			</g>
		</g>
		<g>
			<g>
				<g>
					<path style="fill:#D1E3FF;" d="M430.479,363.009H67.521c-4.136,0-7.52-3.384-7.52-7.52v-272.5c0-4.136,3.384-7.52,7.52-7.52
						h362.958c4.136,0,7.52,3.384,7.52,7.52v272.5C437.999,359.625,434.615,363.009,430.479,363.009z"/>
					<path style="fill:#F3F8FF;" d="M432.479,363.009H69.521c-4.136,0-7.52-3.384-7.52-7.52v-272.5c0-4.136,3.384-7.52,7.52-7.52
						h362.958c4.136,0,7.52,3.384,7.52,7.52v272.5C439.999,359.625,436.615,363.009,432.479,363.009z"/>
					<path style="fill:#D1E3FF;" d="M62.001,94.913v260.576c0,4.136,3.384,7.52,7.52,7.52h362.958c4.136,0,7.52-3.384,7.52-7.52
						V94.913H62.001z"/>
					<rect x="63.389" y="104.913" style="fill:#FFFFFF;" width="375.221" height="248.096"/>
					<path style="fill:#DAE6FF;" d="M425.336,330.309H76.664c-0.069,0-0.125-0.056-0.125-0.125V121c0-0.069,0.056-0.125,0.125-0.125
						h348.672c0.069,0,0.125,0.056,0.125,0.125v209.184C425.461,330.253,425.405,330.309,425.336,330.309z M76.789,330.059h348.422
						V121.125H76.789V330.059z"/>
					<path style="fill:#FFFFFF;" d="M78.501,89.747c-2.482,0-4.5-2.019-4.5-4.5c0-2.481,2.018-4.5,4.5-4.5
						c2.481,0,4.5,2.019,4.5,4.5C83.001,87.728,80.982,89.747,78.501,89.747z M78.501,81.747c-1.93,0-3.5,1.57-3.5,3.5
						c0,1.93,1.57,3.5,3.5,3.5c1.93,0,3.5-1.57,3.5-3.5C82.001,83.317,80.431,81.747,78.501,81.747z"/>
					<path style="fill:#FFFFFF;" d="M92.674,89.747c-2.481,0-4.5-2.019-4.5-4.5c0-2.481,2.019-4.5,4.5-4.5
						c2.481,0,4.5,2.019,4.5,4.5C97.174,87.728,95.155,89.747,92.674,89.747z M92.674,81.747c-1.93,0-3.5,1.57-3.5,3.5
						c0,1.93,1.57,3.5,3.5,3.5c1.93,0,3.5-1.57,3.5-3.5C96.174,83.317,94.603,81.747,92.674,81.747z"/>
					<path style="fill:#FFFFFF;" d="M106.847,89.747c-2.481,0-4.5-2.019-4.5-4.5c0-2.481,2.019-4.5,4.5-4.5
						c2.481,0,4.5,2.019,4.5,4.5C111.347,87.728,109.329,89.747,106.847,89.747z M106.847,81.747c-1.93,0-3.5,1.57-3.5,3.5
						c0,1.93,1.57,3.5,3.5,3.5c1.93,0,3.5-1.57,3.5-3.5C110.347,83.317,108.777,81.747,106.847,81.747z"/>
					<rect x="62.001" y="94.413" style="fill:#D1E3FF;" width="377.998" height="1"/>
				</g>
			</g>
			<g>
				<rect x="95.667" y="129.556" style="fill:#F3F8FF;" width="172.918" height="176.243"/>
				<g>
					<rect x="302.614" y="129.556" style="fill:#F3F8FF;" width="114.167" height="57.333"/>
					<circle style="fill:#FFFFFF;" cx="324" cy="151" r="13"/>
					<rect x="349" y="138" style="fill:#FFFFFF;" width="56.333" height="5.333"/>
					<rect x="349" y="147.778" style="fill:#FFFFFF;" width="36.556" height="5.333"/>
				</g>
				<g>
					<rect x="302.614" y="208.333" style="fill:#F3F8FF;" width="114.167" height="144.676"/>
					<g>
						<rect x="307.682" y="219.238" style="fill:#FFFFFF;" width="48.697" height="48.697"/>
						<rect x="308.065" y="274.127" style="fill:#FFFFFF;" width="48.697" height="48.697"/>
						<rect x="363.015" y="219.238" style="fill:#FFFFFF;" width="48.697" height="25.835"/>
						<rect x="363.015" y="251.265" style="fill:#FFFFFF;" width="48.697" height="48.697"/>
						<rect x="308.065" y="328.661" style="fill:#FFFFFF;" width="48.697" height="24.348"/>
						<rect x="363.015" y="305.799" style="fill:#FFFFFF;" width="48.697" height="47.211"/>
					</g>
				</g>
			</g>
		</g>
	</g>
</g>
<g id="Background_1" style="display:none;">
	<path style="display:inline;opacity:0.4;fill:#D4E8FF;" d="M364.958,337.797c48.402-14.036,87.287-38.387,97.416-90.366
		c8.894-45.636,0.047-102.543-36.216-135.019c-36.057-32.291-93.614-34.049-135.205-11.993
		c-43.22,22.92-57.882,71.871-103.22,92.782c-21.188,9.772-43.647,13.657-66.892,12.235c-20.29-1.241-41.603-8.787-61.023,0.803
		c-46.85,23.137-19.348,89.951,6.532,118.383c40.305,44.278,78.632,25.508,129.948,20.019
		C254.03,338.467,307.465,354.469,364.958,337.797z"/>
</g>
<g id="Objects">
	<g>
		<ellipse style="fill:#F0F6FF;" cx="250" cy="416.238" rx="193.889" ry="11.323"/>
		<g>
			<g>
				<path style="fill:#407BFF;" d="M271.257,409.525H89.368c-4.919,0-8.943-4.024-8.943-8.943v-32.449
					c0-4.919,4.024-8.943,8.943-8.943h181.889c4.919,0,8.943,4.024,8.943,8.943v32.449
					C280.201,405.5,276.176,409.525,271.257,409.525z"/>
				<path style="opacity:0.8;fill:#DCE9FF;" d="M273.37,411.637H91.481c-4.919,0-8.943-4.024-8.943-8.943v-32.449
					c0-4.919,4.024-8.943,8.943-8.943H273.37c4.919,0,8.943,4.024,8.943,8.943v32.449
					C282.313,407.613,278.289,411.637,273.37,411.637z"/>
				<path style="opacity:0.8;fill:#DCE9FF;" d="M275.482,413.75H93.593c-4.919,0-8.943-4.025-8.943-8.943v-32.449
					c0-4.919,4.024-8.943,8.943-8.943h181.889c4.919,0,8.943,4.024,8.943,8.943v32.449
					C284.426,409.725,280.401,413.75,275.482,413.75z"/>
				<path style="fill:#407BFF;" d="M235.587,379.542h-97.101c-1.057,0-1.913-0.857-1.913-1.913v-3.792
					c0-1.057,0.857-1.913,1.913-1.913h97.101c1.057,0,1.913,0.857,1.913,1.913v3.792C237.5,378.685,236.643,379.542,235.587,379.542
					z"/>
				<path style="fill:#407BFF;" d="M181.976,392.391h-43.49c-1.057,0-1.913-0.857-1.913-1.913v-3.792
					c0-1.057,0.857-1.913,1.913-1.913h43.49c1.057,0,1.913,0.857,1.913,1.913v3.792
					C183.889,391.535,183.032,392.391,181.976,392.391z"/>
				<path style="fill:#407BFF;" d="M223.976,392.391h-33.379c-1.057,0-1.913-0.857-1.913-1.913v-3.792
					c0-1.057,0.857-1.913,1.913-1.913h33.379c1.057,0,1.913,0.857,1.913,1.913v3.792
					C225.889,391.535,225.032,392.391,223.976,392.391z"/>
				<path style="fill:#9FC6FF;" d="M255.004,400.492h-117.39c-0.575,0-1.041-0.466-1.041-1.041v-0.787
					c0-0.575,0.466-1.041,1.041-1.041h117.39c0.575,0,1.041,0.466,1.041,1.041v0.787
					C256.045,400.026,255.579,400.492,255.004,400.492z"/>
				
					<ellipse transform="matrix(0.2315 -0.9728 0.9728 0.2315 -294.3229 404.5729)" style="fill:#407BFF;" cx="108.919" cy="388.582" rx="17.934" ry="17.934"/>
				<path style="fill:#FFFFFF;" d="M123.719,388.58c0,2.556-0.648,4.956-1.789,7.05c-2.497,4.613-7.386,7.751-13.012,7.751
					c-5.627,0-10.516-3.137-13.012-7.751c-1.14-2.094-1.789-4.494-1.789-7.05c0-8.176,6.625-14.801,14.801-14.801
					C117.094,373.779,123.719,380.405,123.719,388.58z"/>
				<path style="fill:#C0DAFF;" d="M121.931,395.63c-2.497,4.613-7.386,7.751-13.012,7.751c-5.627,0-10.516-3.137-13.012-7.751
					c3.726-2.489,8.198-3.943,13.012-3.943S118.204,393.141,121.931,395.63z"/>
				<circle style="fill:#C0DAFF;" cx="108.919" cy="383.517" r="6.593"/>
			</g>
			<g>
				<path style="fill:#407BFF;" d="M271.257,351.284H89.368c-4.919,0-8.943-4.025-8.943-8.943v-32.449
					c0-4.919,4.024-8.943,8.943-8.943h181.889c4.919,0,8.943,4.024,8.943,8.943v32.449
					C280.201,347.259,276.176,351.284,271.257,351.284z"/>
				<path style="opacity:0.8;fill:#DCE9FF;" d="M273.37,353.397H91.481c-4.919,0-8.943-4.024-8.943-8.943v-32.449
					c0-4.919,4.024-8.943,8.943-8.943H273.37c4.919,0,8.943,4.025,8.943,8.943v32.449
					C282.313,349.372,278.289,353.397,273.37,353.397z"/>
				<path style="opacity:0.8;fill:#DCE9FF;" d="M275.482,355.509H93.593c-4.919,0-8.943-4.024-8.943-8.943v-32.449
					c0-4.919,4.024-8.943,8.943-8.943h181.889c4.919,0,8.943,4.024,8.943,8.943v32.449
					C284.426,351.485,280.401,355.509,275.482,355.509z"/>
				<path style="fill:#407BFF;" d="M167.42,321.301h-28.935c-1.057,0-1.913-0.857-1.913-1.913v-3.792
					c0-1.057,0.857-1.913,1.913-1.913h28.935c1.057,0,1.913,0.857,1.913,1.913v3.792
					C169.333,320.445,168.477,321.301,167.42,321.301z"/>
				<path style="fill:#407BFF;" d="M197.837,321.301h-22.341c-1.057,0-1.913-0.857-1.913-1.913v-3.792
					c0-1.057,0.857-1.913,1.913-1.913h22.341c1.057,0,1.913,0.857,1.913,1.913v3.792
					C199.75,320.445,198.893,321.301,197.837,321.301z"/>
				<path style="fill:#407BFF;" d="M240.087,334.151H138.485c-1.057,0-1.913-0.857-1.913-1.913v-3.792
					c0-1.057,0.857-1.913,1.913-1.913h101.601c1.057,0,1.913,0.857,1.913,1.913v3.792C242,333.294,241.143,334.151,240.087,334.151z
					"/>
				<path style="fill:#9FC6FF;" d="M208.459,342.251h-70.845c-0.575,0-1.041-0.466-1.041-1.041v-0.787
					c0-0.575,0.466-1.041,1.041-1.041h70.845c0.575,0,1.041,0.466,1.041,1.041v0.787C209.5,341.785,209.034,342.251,208.459,342.251
					z"/>
				
					<ellipse transform="matrix(0.2315 -0.9728 0.9728 0.2315 -237.6648 359.8167)" style="fill:#407BFF;" cx="108.919" cy="330.342" rx="17.934" ry="17.934"/>
				<path style="fill:#FFFFFF;" d="M123.719,330.34c0,2.556-0.648,4.956-1.789,7.05c-2.497,4.613-7.386,7.751-13.012,7.751
					c-5.627,0-10.516-3.137-13.012-7.751c-1.14-2.094-1.789-4.494-1.789-7.05c0-8.176,6.625-14.801,14.801-14.801
					C117.094,315.539,123.719,322.164,123.719,330.34z"/>
				<path style="fill:#C0DAFF;" d="M121.931,337.39c-2.497,4.613-7.386,7.751-13.012,7.751c-5.627,0-10.516-3.137-13.012-7.751
					c3.726-2.489,8.198-3.942,13.012-3.942S118.204,334.901,121.931,337.39z"/>
				<circle style="fill:#C0DAFF;" cx="108.919" cy="325.276" r="6.593"/>
			</g>
			<g>
				<path style="fill:#407BFF;" d="M271.257,293.043H89.368c-4.919,0-8.943-4.024-8.943-8.943v-32.449
					c0-4.919,4.024-8.943,8.943-8.943h181.889c4.919,0,8.943,4.024,8.943,8.943V284.1
					C280.201,289.019,276.176,293.043,271.257,293.043z"/>
				<path style="opacity:0.8;fill:#DCE9FF;" d="M273.37,295.156H91.481c-4.919,0-8.943-4.024-8.943-8.943v-32.449
					c0-4.919,4.024-8.943,8.943-8.943H273.37c4.919,0,8.943,4.024,8.943,8.943v32.449
					C282.313,291.132,278.289,295.156,273.37,295.156z"/>
				<path style="opacity:0.8;fill:#DCE9FF;" d="M275.482,297.268H93.593c-4.919,0-8.943-4.024-8.943-8.943v-32.449
					c0-4.919,4.024-8.943,8.943-8.943h181.889c4.919,0,8.943,4.024,8.943,8.943v32.449
					C284.426,293.244,280.401,297.268,275.482,297.268z"/>
				<path style="fill:#407BFF;" d="M234.865,263.061h-96.379c-1.057,0-1.913-0.857-1.913-1.913v-3.792
					c0-1.057,0.857-1.913,1.913-1.913h96.379c1.057,0,1.913,0.857,1.913,1.913v3.792
					C236.778,262.204,235.921,263.061,234.865,263.061z"/>
				<path style="fill:#407BFF;" d="M202.42,275.91h-63.935c-1.057,0-1.913-0.857-1.913-1.913v-3.792
					c0-1.057,0.857-1.913,1.913-1.913h63.935c1.057,0,1.913,0.857,1.913,1.913v3.792C204.333,275.054,203.477,275.91,202.42,275.91z
					"/>
				<path style="fill:#407BFF;" d="M217.837,275.91h-5.935c-1.057,0-1.913-0.857-1.913-1.913v-3.792
					c0-1.057,0.857-1.913,1.913-1.913h5.935c1.057,0,1.913,0.857,1.913,1.913v3.792C219.75,275.054,218.893,275.91,217.837,275.91z"
					/>
				<path style="fill:#9FC6FF;" d="M189.181,284.011h-51.567c-0.575,0-1.041-0.466-1.041-1.041v-0.787
					c0-0.575,0.466-1.041,1.041-1.041h51.567c0.575,0,1.041,0.466,1.041,1.041v0.787
					C190.222,283.545,189.756,284.011,189.181,284.011z"/>
				<path style="fill:#9FC6FF;" d="M255.848,284.011h-59.123c-0.575,0-1.041-0.466-1.041-1.041v-0.787
					c0-0.575,0.466-1.041,1.041-1.041h59.123c0.575,0,1.041,0.466,1.041,1.041v0.787
					C256.889,283.545,256.423,284.011,255.848,284.011z"/>
				
					<ellipse transform="matrix(0.7071 -0.7071 0.7071 0.7071 -160.503 156.7136)" style="fill:#407BFF;" cx="108.919" cy="272.101" rx="17.934" ry="17.934"/>
				<path style="fill:#FFFFFF;" d="M123.719,272.099c0,2.556-0.648,4.956-1.789,7.05c-2.497,4.613-7.386,7.751-13.012,7.751
					c-5.627,0-10.516-3.137-13.012-7.751c-1.14-2.094-1.789-4.494-1.789-7.05c0-8.176,6.625-14.801,14.801-14.801
					C117.094,257.298,123.719,263.923,123.719,272.099z"/>
				<path style="fill:#C0DAFF;" d="M121.931,279.149c-2.497,4.613-7.386,7.751-13.012,7.751c-5.627,0-10.516-3.137-13.012-7.751
					c3.726-2.489,8.198-3.943,13.012-3.943S118.204,276.66,121.931,279.149z"/>
				<path style="fill:#C0DAFF;" d="M115.512,267.035c0,3.641-2.952,6.593-6.593,6.593s-6.593-2.952-6.593-6.593
					c0-3.641,2.952-6.593,6.593-6.593S115.512,263.394,115.512,267.035z"/>
			</g>
			<g>
				<rect x="125.778" y="122.727" style="fill:#407BFF;" width="4.556" height="1"/>
				<rect x="107.778" y="122.727" style="fill:#407BFF;" width="10.778" height="1"/>
				<path style="fill:#407BFF;" d="M271.257,176.562H89.368c-4.919,0-8.943-4.024-8.943-8.943V135.17
					c0-4.919,4.024-8.943,8.943-8.943h181.889c4.919,0,8.943,4.024,8.943,8.943v32.449
					C280.201,172.538,276.176,176.562,271.257,176.562z"/>
				<path style="opacity:0.8;fill:#DCE9FF;" d="M273.37,178.675H91.481c-4.919,0-8.943-4.024-8.943-8.943v-32.449
					c0-4.919,4.024-8.943,8.943-8.943H273.37c4.919,0,8.943,4.024,8.943,8.943v32.449
					C282.313,174.65,278.289,178.675,273.37,178.675z"/>
				<path style="opacity:0.8;fill:#DCE9FF;" d="M275.482,180.787H93.593c-4.919,0-8.943-4.025-8.943-8.943v-32.449
					c0-4.919,4.024-8.943,8.943-8.943h181.889c4.919,0,8.943,4.024,8.943,8.943v32.449
					C284.426,176.763,280.401,180.787,275.482,180.787z"/>
				<path style="fill:#407BFF;" d="M226.92,146.58h-88.435c-1.057,0-1.913-0.857-1.913-1.913v-3.792
					c0-1.057,0.857-1.913,1.913-1.913h88.435c1.057,0,1.913,0.857,1.913,1.913v3.792C228.833,145.723,227.977,146.58,226.92,146.58z
					"/>
				<path style="fill:#407BFF;" d="M257.42,159.429H138.485c-1.057,0-1.913-0.857-1.913-1.913v-3.792
					c0-1.057,0.857-1.913,1.913-1.913H257.42c1.057,0,1.913,0.857,1.913,1.913v3.792
					C259.333,158.572,258.477,159.429,257.42,159.429z"/>
				<path style="fill:#9FC6FF;" d="M170.07,167.53h-32.456c-0.575,0-1.041-0.466-1.041-1.041v-0.787
					c0-0.575,0.466-1.041,1.041-1.041h32.456c0.575,0,1.041,0.466,1.041,1.041v0.787C171.111,167.064,170.645,167.53,170.07,167.53z
					"/>
				
					<ellipse transform="matrix(0.2315 -0.9728 0.9728 0.2315 -67.6907 225.5483)" style="fill:#407BFF;" cx="108.919" cy="155.62" rx="17.934" ry="17.934"/>
				<path style="fill:#FFFFFF;" d="M123.719,155.618c0,2.556-0.648,4.956-1.789,7.05c-2.497,4.613-7.386,7.751-13.012,7.751
					c-5.627,0-10.516-3.137-13.012-7.751c-1.14-2.094-1.789-4.494-1.789-7.05c0-8.176,6.625-14.801,14.801-14.801
					C117.094,140.817,123.719,147.442,123.719,155.618z"/>
				<path style="fill:#C0DAFF;" d="M121.931,162.668c-2.497,4.613-7.386,7.751-13.012,7.751c-5.627,0-10.516-3.137-13.012-7.751
					c3.726-2.489,8.198-3.943,13.012-3.943S118.204,160.179,121.931,162.668z"/>
				<circle style="fill:#C0DAFF;" cx="108.919" cy="150.554" r="6.593"/>
			</g>
		</g>
		<g>
			<g>
				<path style="fill:#FF8B7B;" d="M399.134,261.107l-6.563,3.41l7.344,5.716c0,0,4.943-4.144,3.04-7.008L399.134,261.107z"/>
				<polygon style="fill:#FF8B7B;" points="388.818,271.47 395.091,275.829 399.915,270.233 392.571,264.517 				"/>
				<path style="fill:#FF8B7B;" d="M401.666,204.401c0.908,1.181,1.679,2.239,2.454,3.384c0.774,1.125,1.525,2.26,2.265,3.405
					c1.459,2.302,2.845,4.657,4.13,7.084c1.306,2.414,2.479,4.93,3.56,7.511l0.789,1.954l0.71,2.011
					c0.244,0.662,0.442,1.363,0.648,2.053l0.307,1.037l0.076,0.259l0.113,0.434c0.087,0.333,0.134,0.63,0.183,0.936
					c0.304,2.378-0.043,4.072-0.403,5.663c-0.382,1.574-0.876,2.977-1.406,4.333c-1.075,2.693-2.344,5.148-3.68,7.533
					c-2.697,4.76-5.718,9.133-9.089,13.38l-4.6-2.961c2.206-4.613,4.367-9.358,6.251-14.014c0.935-2.33,1.782-4.674,2.42-6.931
					c0.316-1.121,0.576-2.23,0.708-3.225c0.138-0.968,0.124-1.919,0.018-2.137c-0.012-0.015-0.017-0.041-0.025-0.022
					c-0.011-0.018,0.017,0.056-0.02-0.038l-0.081-0.206l-0.321-0.823c-0.215-0.548-0.413-1.096-0.671-1.644l-0.727-1.644
					l-0.786-1.643c-1.089-2.182-2.258-4.354-3.521-6.502c-1.27-2.142-2.581-4.276-3.951-6.38c-1.331-2.096-2.826-4.23-4.169-6.157
					L401.666,204.401z"/>
				<path style="fill:#0F264C;" d="M415.33,219.747l-16.47,11.55c0,0-0.98-2.16-2.39-5.31c-1.13-2.51-2.54-5.64-3.94-8.8
					c-0.57-1.28-1.13-2.56-1.68-3.81c-3.81-8.68,0.64-14.93,8.46-13.77C406.2,200.637,415.33,219.747,415.33,219.747z"/>
				<path style="fill:#0A1B35;" d="M397.258,207.727c0.325,3.106,0.353,12.689-0.788,18.259c-1.13-2.51-2.54-5.64-3.94-8.8
					L397.258,207.727z"/>
			</g>
			<g>
				<path style="fill:#C0DAFF;" d="M421.896,286.368L246.12,239.61c-4.753-1.264-7.608-6.188-6.344-10.942l8.342-31.358
					c1.264-4.753,6.188-7.608,10.942-6.344l175.776,46.758c4.753,1.264,7.608,6.188,6.344,10.942l-8.341,31.358
					C431.573,284.778,426.65,287.633,421.896,286.368z"/>
				<path style="opacity:0.6;fill:#0053CC;" d="M423.395,288.953l-175.776-46.758c-4.753-1.264-7.608-6.188-6.344-10.942
					l8.342-31.358c1.264-4.753,6.188-7.608,10.942-6.344l175.776,46.758c4.753,1.264,7.608,6.188,6.344,10.942l-8.341,31.358
					C433.072,287.363,428.148,290.217,423.395,288.953z"/>
				<path style="opacity:0.6;fill:#0053CC;" d="M424.893,291.538l-175.776-46.758c-4.753-1.264-7.608-6.188-6.344-10.942
					l8.341-31.358c1.265-4.754,6.188-7.608,10.942-6.344l175.777,46.758c4.753,1.264,7.608,6.188,6.344,10.942l-8.341,31.358
					C434.57,289.947,429.647,292.802,424.893,291.538z"/>
				<path style="fill:#C0DAFF;" d="M413.054,252.991l-111.76-29.729c-1.021-0.272-1.629-1.32-1.357-2.341l0.975-3.664
					c0.272-1.021,1.32-1.629,2.341-1.357l111.76,29.729c1.021,0.272,1.629,1.32,1.357,2.341l-0.975,3.665
					C415.123,252.655,414.075,253.262,413.054,252.991z"/>
				<path style="fill:#C0DAFF;" d="M368.578,254.456l-70.588-18.777c-1.021-0.272-1.629-1.32-1.357-2.341l0.975-3.664
					c0.272-1.021,1.32-1.629,2.341-1.357l70.587,18.777c1.021,0.272,1.629,1.32,1.357,2.341l-0.975,3.664
					C370.647,254.12,369.599,254.728,368.578,254.456z"/>
				<path style="fill:#FFFFFF;" d="M398.068,270.683l-103.002-27.4c-0.556-0.148-0.886-0.718-0.738-1.274l0.202-0.761
					c0.148-0.556,0.718-0.886,1.274-0.738l103.002,27.399c0.556,0.148,0.886,0.718,0.739,1.274l-0.202,0.761
					C399.194,270.5,398.624,270.831,398.068,270.683z"/>
				
					<ellipse transform="matrix(0.5728 -0.8197 0.8197 0.5728 -68.4258 317.4987)" style="fill:#407BFF;" cx="270.397" cy="224.397" rx="17.934" ry="17.934"/>
				<path style="fill:#FFFFFF;" d="M284.701,228.2c-0.657,2.47-1.901,4.623-3.541,6.354c-3.599,3.816-9.13,5.592-14.568,4.145
					c-5.438-1.446-9.356-5.735-10.583-10.835c-0.563-2.317-0.573-4.803,0.084-7.273c2.102-7.901,10.208-12.6,18.108-10.499
					C282.103,212.194,286.802,220.299,284.701,228.2z"/>
				<path style="fill:#C0DAFF;" d="M281.16,234.554c-3.599,3.816-9.13,5.592-14.568,4.145c-5.438-1.446-9.356-5.735-10.583-10.835
					c4.241-1.448,8.936-1.703,13.589-0.465C274.251,228.637,278.198,231.19,281.16,234.554z"/>
				<path style="fill:#C0DAFF;" d="M278.07,221.197c-0.936,3.519-4.547,5.613-8.066,4.677c-3.519-0.936-5.613-4.547-4.677-8.066
					c0.936-3.519,4.548-5.613,8.066-4.677C276.913,214.067,279.006,217.678,278.07,221.197z"/>
			</g>
			<path style="fill:#FF8B7B;" d="M388.944,178.121c-1.876,5.097-4.453,14.575-1.334,18.678c0,0-2.295,5.108-12.074,3.539
				c-10.753-1.725-4.283-6.162-4.283-6.162c6.094-0.46,6.641-4.839,6.274-9.092L388.944,178.121z"/>
			<path style="fill:#0053CC;" d="M369.039,195.876c0.555-0.925,0.059-4.557,0.059-4.557s15.559-1.151,20.963,1.148
				c2.907,1.237-0.02,6.418-0.02,6.418L369.039,195.876z"/>
			<path style="fill:#0F264C;" d="M370.966,169.156c-0.093,0.58-0.476,1.001-0.855,0.94c-0.379-0.061-0.611-0.581-0.518-1.161
				c0.093-0.58,0.476-1.001,0.855-0.94C370.827,168.056,371.059,168.576,370.966,169.156z"/>
			<path style="fill:#FF5652;" d="M370.932,169.447c0,0-1.857,3.136-3.568,4.518c0.873,1.123,2.688,0.965,2.688,0.965
				L370.932,169.447z"/>
			<path style="fill:#0F264C;" d="M373.336,167.362c-0.123,0-0.243-0.066-0.305-0.183c-0.715-1.346-1.95-1.483-2.002-1.488
				c-0.19-0.019-0.328-0.187-0.311-0.376c0.018-0.189,0.184-0.334,0.373-0.311c0.067,0.006,1.653,0.166,2.549,1.852
				c0.09,0.168,0.025,0.377-0.143,0.467C373.446,167.349,373.391,167.362,373.336,167.362z"/>
			<polygon style="fill:#FF8B7B;" points="325.589,399.233 318.369,398.258 318.706,381.278 325.926,382.253 			"/>
			<polygon style="fill:#FF8B7B;" points="379.491,407.206 372.205,407.206 366.529,390.333 373.815,390.333 			"/>
			<path style="fill:#14365B;" d="M371.233,406.362l8.883,0c0.298,0,0.556,0.207,0.62,0.498l1.439,6.476
				c0.149,0.672-0.379,1.307-1.067,1.296c-2.858-0.049-4.943-0.217-8.543-0.217c-2.215,0-6.777,0.23-9.835,0.23
				c-2.991,0-3.458-3.024-2.206-3.298c5.614-1.228,7.728-2.922,9.526-4.537C370.374,406.519,370.797,406.362,371.233,406.362z"/>
			<path style="fill:#14365B;" d="M318.12,396.61l7.885,1.065c0.295,0.04,0.523,0.279,0.548,0.576l0.56,6.611
				c0.058,0.685-0.532,1.248-1.212,1.144c-2.838-0.432-6.926-1.154-10.501-1.637c-4.18-0.565-6.966-0.881-11.868-1.543
				c-2.964-0.4-3.382-3.508-2.105-3.612c5.815-0.473,9.59,0.074,14.878-2.276C316.879,396.682,317.497,396.526,318.12,396.61z"/>
			<g>
				<polygon style="fill:#EA7063;" points="318.707,381.283 318.532,390.035 325.756,391.011 325.931,382.258 				"/>
				<polygon style="fill:#EA7063;" points="373.818,390.337 366.529,390.337 369.458,399.035 376.748,399.035 				"/>
			</g>
			<path style="fill:#0F264C;" d="M360.001,194.906c0,0-11.467,20.653-8.856,62.352c11.637,1.572,32.958,4.451,38.62,5.215
				c1.067-5.892,1.247-35.315,10.737-62.477c0,0-6.44-2.222-12.708-3.378c-4.903-0.904-12.026-2.026-16.417-2.216
				C365.588,194.151,360.001,194.906,360.001,194.906z"/>
			<path style="fill:#FF8B7B;" d="M364.441,205.431c-1.605,2.77-3.299,5.453-4.962,8.171l-5.167,8.039
				c-1.723,2.682-3.523,5.321-5.33,7.964c-0.898,1.324-1.831,2.633-2.76,3.944l-1.415,1.965c-0.518,0.707-1.124,1.515-1.706,2.188
				c-2.362,2.784-4.918,5.009-7.498,7.134c-2.609,2.079-5.266,4.005-7.987,5.801c-5.438,3.613-11.021,6.77-16.881,9.62l-2.769-4.718
				c5.015-3.674,10.011-7.54,14.767-11.473c2.371-1.984,4.688-3.999,6.857-6.09c2.171-2.068,4.215-4.246,5.824-6.412
				c0.42-0.556,0.733-1.041,1.117-1.637l1.231-1.988l2.447-4.016l4.9-8.076l4.901-8.102c1.673-2.675,3.299-5.395,4.988-8.043
				L364.441,205.431z"/>
			<path style="fill:#0F264C;" d="M368.004,203.779c-0.936,6.903-13.023,23.325-13.023,23.325l-16.815-14.197
				c0,0,8.796-9.827,16.03-15.437C361.508,191.799,369.031,196.204,368.004,203.779z"/>
			<path style="fill:#FF8B7B;" d="M311.622,253.462l-6.289,2.135l6.292,6.57c0,0,3.847-0.46,3.497-5.755L311.622,253.462z"/>
			<polygon style="fill:#FF8B7B;" points="301.164,260.601 308.348,264.135 311.625,262.167 305.333,255.597 			"/>
			<path style="fill:#FF8B7B;" d="M390.841,170.301c-1.581,7.056-2.147,11.266-6.333,14.347c-6.297,4.634-14.57-0.041-15.129-7.427
				c-0.503-6.648,2.166-17.071,9.597-18.788C386.296,156.741,392.421,163.245,390.841,170.301z"/>
			<path style="fill:#0F264C;" d="M400.606,170.057c-0.201-1.22-1.008-2.2-1.782-2.65c3.414-1.492,1.703-3.237-1.211-5.776
				c0,0,0,0,0,0c-3.768-3.375-5.339-10.189-5.176-11.652c-1.192,1.813-0.868,4.481,0.14,6.881c-1.212-1.389-2.289-2.942-2.988-4.699
				c-2.917-7.329-9.228-0.924-15.318-0.714c-10.231,0.353-2.127-4.999,5.376-4.836c-11.187-3.426-22.349,0.818-20.522,8.295
				c1.846,7.557,14.333-2.034,14.264,4.905c-0.014,1.401,1.531,2.778,3.803,3.866c-3.149,6.483,4.527,19.503,9.035,19.925
				c4.501,0.421,12.3-7.363,12.638-14.099C399.421,169.555,400.074,169.77,400.606,170.057z"/>
			<path style="fill:#FF8B7B;" d="M380.68,171.906c-0.455,1.896-1.743,3.405-3.123,4.22c-2.075,1.226-3.732-0.48-3.675-2.763
				c0.052-2.055,1.194-5.169,3.526-5.465C379.706,167.606,381.2,169.739,380.68,171.906z"/>
			<path style="fill:#0053CC;" d="M379.38,397.347h-13.35c0,0-17.62-44.93-19.49-68.24c-0.4-5.03,0.4-11.59,1.88-18.68
				c2.52-12.12,6.97-25.79,10.6-35.97c3.23-9.05,5.82-15.35,5.82-15.35s10.14,1.37,24.93,3.37c-2.45,18.09-22.23,46.86-22.46,71.6
				C367.09,356.867,379.38,397.347,379.38,397.347z"/>
			<path style="fill:#004DAA;" d="M365.333,280.111c-0.87,12.09-10.173,24.946-16.913,30.316c2.52-12.12,6.97-25.79,10.6-35.97
				C360.91,274.197,363.903,277.931,365.333,280.111z"/>
			<path style="fill:#0053CC;" d="M351.145,257.258c0,0-34.278,45.649-36.466,67.775c-2.276,23.013,1.369,62.968,1.369,62.968
				l12.232,1.652c0,0,3.694-37.566,7.276-59.985c3.905-24.441,41.036-49.711,43.591-68.628
				C367.204,259.426,351.145,257.258,351.145,257.258z"/>
			<polygon style="fill:#77B3FC;" points="363.67,397.639 381.115,397.639 381.115,392.944 361.615,392.639 			"/>
			<polygon style="fill:#77B3FC;" points="313.583,387.917 330.566,390.252 331.202,385.545 312.215,382.687 			"/>
			<path style="fill:#407BFF;" d="M368.824,407.636c-0.555,0-1.074-0.095-1.404-0.372c-0.261-0.22-0.381-0.526-0.356-0.912
				c0.018-0.287,0.171-0.424,0.296-0.488c0.803-0.408,3.156,1.03,3.422,1.196c0.059,0.037,0.09,0.105,0.078,0.174
				c-0.011,0.069-0.061,0.124-0.13,0.141C370.225,407.496,369.498,407.636,368.824,407.636z M367.741,406.127
				c-0.091,0-0.166,0.014-0.225,0.044c-0.046,0.023-0.101,0.068-0.109,0.202c-0.017,0.275,0.06,0.48,0.234,0.626
				c0.4,0.336,1.352,0.381,2.588,0.132C369.407,406.655,368.3,406.127,367.741,406.127z"/>
			<path style="fill:#407BFF;" d="M370.689,407.379c-0.028,0-0.057-0.007-0.082-0.022c-0.754-0.409-2.212-2.006-2.058-2.817
				c0.028-0.147,0.137-0.402,0.549-0.452c0.267-0.038,0.516,0.041,0.735,0.221c0.847,0.692,1.02,2.795,1.027,2.884
				c0.005,0.063-0.024,0.124-0.078,0.158C370.755,407.369,370.723,407.379,370.689,407.379z M369.22,404.425
				c-0.026,0-0.052,0.002-0.078,0.005c-0.225,0.028-0.244,0.131-0.253,0.175c-0.091,0.48,0.838,1.686,1.587,2.255
				c-0.085-0.614-0.317-1.84-0.86-2.283C369.491,404.475,369.361,404.425,369.22,404.425z"/>
			<path style="fill:#407BFF;" d="M316.283,397.546c-1.144,0-2.499-0.143-3.031-0.76c-0.21-0.243-0.279-0.538-0.208-0.875
				c0.043-0.201,0.162-0.346,0.344-0.417c0.942-0.368,3.646,1.493,3.951,1.707c0.06,0.042,0.087,0.118,0.067,0.188
				c-0.02,0.07-0.082,0.121-0.155,0.125C316.969,397.532,316.636,397.546,316.283,397.546z M313.701,395.785
				c-0.072,0-0.135,0.01-0.188,0.03c-0.073,0.029-0.113,0.079-0.132,0.168c-0.049,0.229-0.006,0.418,0.132,0.577
				c0.39,0.453,1.576,0.69,3.199,0.634C315.711,396.539,314.34,395.785,313.701,395.785z"/>
			<path style="fill:#407BFF;" d="M317.24,397.516c-0.031,0-0.063-0.009-0.091-0.026c-0.818-0.509-2.334-2.304-2.092-3.103
				c0.055-0.181,0.213-0.393,0.654-0.393c0.015,0,0.03,0,0.047,0c0.353,0.012,0.659,0.154,0.908,0.422
				c0.816,0.879,0.749,2.85,0.746,2.934c-0.003,0.061-0.038,0.117-0.092,0.145C317.296,397.509,317.268,397.516,317.24,397.516z
				 M315.711,394.339c-0.278,0-0.311,0.11-0.323,0.148c-0.146,0.479,0.862,1.865,1.679,2.52c-0.016-0.581-0.116-1.78-0.652-2.356
				c-0.187-0.2-0.405-0.302-0.667-0.311C315.734,394.339,315.723,394.339,315.711,394.339z"/>
		</g>
	</g>
</g>
<g id="Designed_by_Freepik">
	<g>
		<g>
			<g id="XMLID_197_">
				<g id="XMLID_216_">
					<path id="XMLID_224_" style="fill:#A5B7C6;" d="M261.442,464.892c-0.49,0.502-0.91,1.054-1.255,1.646l-0.527-0.273
						c-0.076-0.337-0.396-0.569-0.746-0.528c-0.375,0.044-0.643,0.384-0.599,0.759c0.044,0.375,0.384,0.643,0.758,0.599
						c0.074-0.009,0.144-0.029,0.208-0.059l0.511,0.265c-0.284,0.627-0.49,1.289-0.611,1.975l0.845,0.149
						c0.26-1.479,0.962-2.839,2.029-3.932L261.442,464.892z"/>
					<path id="XMLID_223_" style="fill:#A5B7C6;" d="M267.656,462.285c-0.194,0-0.386,0.007-0.577,0.019l-0.083-0.709
						c0.212-0.169,0.335-0.44,0.301-0.73c-0.052-0.445-0.456-0.763-0.901-0.711c-0.445,0.052-0.763,0.455-0.711,0.901
						c0.034,0.288,0.214,0.522,0.458,0.638l0.083,0.707c-0.808,0.132-1.589,0.376-2.332,0.732l0.37,0.774
						c1.058-0.506,2.199-0.762,3.392-0.762c0.562,0,1.124,0.06,1.67,0.178l0.182-0.839
						C268.903,462.352,268.279,462.285,267.656,462.285z"/>
					<path id="XMLID_222_" style="fill:#A5B7C6;" d="M275.133,465.17c0.375-0.046,0.641-0.387,0.595-0.761
						c-0.046-0.375-0.387-0.641-0.761-0.595c-0.35,0.043-0.606,0.344-0.6,0.689l-0.471,0.411c-0.473-0.487-1.007-0.92-1.594-1.29
						l-0.458,0.726c1.284,0.809,2.288,1.955,2.903,3.313l0.782-0.354c-0.284-0.627-0.643-1.214-1.067-1.75l0.455-0.397
						C274.986,465.175,275.059,465.179,275.133,465.17z"/>
					<path id="XMLID_221_" style="fill:#A5B7C6;" d="M267.036,473.845c-0.437,0.026-0.878,0.039-1.31,0.039
						c-0.997,0-1.962-0.069-2.807-0.203c-0.442-0.07-0.958-0.176-1.438-0.331c1.185,2.107,3.476,3.539,6.102,3.539
						c3.233,0,5.959-2.17,6.737-5.1c-0.772,0.509-1.705,0.935-2.784,1.271C270.201,473.478,268.643,473.749,267.036,473.845z"/>
					<path id="XMLID_217_" style="fill:#A5B7C6;" d="M267.656,464.002c-3.796,0-6.884,3.019-6.884,6.73
						c0,0.482,0.052,0.962,0.155,1.428c0.763,0.547,3.064,1.008,6.055,0.828c3.261-0.196,5.998-1.084,7.556-2.444
						c-0.006-0.221-0.023-0.442-0.051-0.659C274.056,466.531,271.12,464.002,267.656,464.002z M265.211,471.38
						c-1.155,0-2.095-0.94-2.095-2.095c0-1.155,0.94-2.095,2.095-2.095c1.155,0,2.095,0.94,2.095,2.095
						C267.306,470.44,266.366,471.38,265.211,471.38z M270.576,470.351c-0.849,0-1.54-0.691-1.54-1.54
						c0-0.849,0.691-1.541,1.54-1.541c0.849,0,1.541,0.691,1.541,1.541C272.116,469.66,271.425,470.351,270.576,470.351z"/>
				</g>
				<path id="XMLID_214_" style="fill:#A5B7C6;" d="M285.779,466.116c-0.334-0.131-0.912-0.35-1.565-0.269
					c-0.624,0.078-0.956,0.386-0.956,1.14v0.981h2.523v1.945h-2.523v6.177h-2.188v-6.177h-1.517v-1.945h1.517v-1.006
					c0-1.902,1.014-3.151,2.908-3.151c0.728,0,1.31,0.138,1.8,0.349L285.779,466.116z"/>
				<path id="XMLID_212_" style="fill:#A5B7C6;" d="M291.104,469.89c-0.2-0.034-0.405-0.052-0.596-0.052
					c-1.014,0-1.71,0.62-1.71,1.827v4.425h-2.188v-8.122h2.12v0.888c0.511-0.763,1.291-1.106,2.288-1.106
					c0.469,0,0.96,0.144,1.239,0.381L291.104,469.89z"/>
				<path id="XMLID_209_" style="fill:#A5B7C6;" d="M299.786,472.017c0,0.251-0.017,0.553-0.042,0.738h-5.758
					c0.235,1.173,1.056,1.685,2.087,1.685c0.704,0,1.467-0.285,2.053-0.779l1.282,1.408c-0.922,0.846-2.095,1.232-3.461,1.232
					c-2.489,0-4.216-1.693-4.216-4.249c0-2.556,1.676-4.3,4.107-4.3C298.177,467.75,299.778,469.485,299.786,472.017z
					 M293.995,471.262h3.595c-0.201-1.039-0.83-1.626-1.768-1.626C294.791,469.636,294.187,470.257,293.995,471.262z"/>
				<path id="XMLID_206_" style="fill:#A5B7C6;" d="M308.453,472.017c0,0.251-0.017,0.553-0.042,0.738h-5.758
					c0.235,1.173,1.056,1.685,2.087,1.685c0.704,0,1.467-0.285,2.053-0.779l1.282,1.408c-0.922,0.846-2.095,1.232-3.461,1.232
					c-2.489,0-4.216-1.693-4.216-4.249c0-2.556,1.676-4.3,4.107-4.3C306.843,467.75,308.444,469.485,308.453,472.017z
					 M302.661,471.262h3.596c-0.201-1.039-0.83-1.626-1.768-1.626C303.457,469.636,302.854,470.257,302.661,471.262z"/>
				<path id="XMLID_203_" style="fill:#A5B7C6;" d="M317.903,472.025c0,2.439-1.693,4.275-3.931,4.275
					c-1.09,0-1.861-0.428-2.389-1.056v4.199h-2.179v-11.474h2.137v0.897c0.528-0.662,1.307-1.115,2.422-1.115
					C316.21,467.75,317.903,469.586,317.903,472.025z M311.475,472.025c0,1.282,0.846,2.238,2.087,2.238
					c1.291,0,2.095-0.997,2.095-2.238c0-1.24-0.805-2.238-2.095-2.238C312.321,469.787,311.475,470.742,311.475,472.025z"/>
				<path id="XMLID_200_" style="fill:#A5B7C6;" d="M321.418,465.311c0,0.788-0.612,1.391-1.4,1.391
					c-0.788,0-1.391-0.603-1.391-1.391c0-0.788,0.604-1.408,1.391-1.408C320.806,463.903,321.418,464.524,321.418,465.311z
					 M321.124,476.09h-2.188v-8.122h2.188V476.09z"/>
				<path id="XMLID_198_" style="fill:#A5B7C6;" d="M324.775,470.86l3.059-2.892h2.682l-3.939,3.822l3.964,4.3h-2.69l-3.076-3.285
					v3.285h-2.188v-12.069h2.188V470.86z"/>
			</g>
			<g>
				<path style="fill:#A5B7C6;" d="M175.729,476.016v-1.194c-0.597,0.813-1.576,1.393-2.704,1.393c-2.09,0-3.566-1.592-3.566-4.196
					c0-2.555,1.46-4.213,3.566-4.213c1.078,0,2.057,0.531,2.704,1.41v-4.263h1.244v11.064H175.729z M175.729,473.843v-3.633
					c-0.448-0.697-1.41-1.294-2.405-1.294c-1.609,0-2.571,1.327-2.571,3.102c0,1.775,0.962,3.085,2.571,3.085
					C174.319,475.104,175.281,474.54,175.729,473.843z"/>
				<path style="fill:#A5B7C6;" d="M178.582,472.002c0-2.322,1.659-4.197,3.948-4.197c2.422,0,3.848,1.891,3.848,4.296v0.316h-6.486
					c0.1,1.509,1.161,2.77,2.886,2.77c0.912,0,1.841-0.365,2.471-1.012l0.597,0.813c-0.796,0.796-1.874,1.227-3.185,1.227
					C180.29,476.215,178.582,474.507,178.582,472.002z M182.513,468.834c-1.709,0-2.555,1.443-2.621,2.67h5.258
					C185.134,470.31,184.337,468.834,182.513,468.834z"/>
				<path style="fill:#A5B7C6;" d="M187.273,474.955l0.647-0.895c0.531,0.614,1.543,1.145,2.637,1.145
					c1.228,0,1.891-0.581,1.891-1.377c0-1.94-4.96-0.746-4.96-3.716c0-1.244,1.078-2.306,2.985-2.306
					c1.36,0,2.323,0.514,2.969,1.161l-0.581,0.863c-0.481-0.581-1.36-1.012-2.389-1.012c-1.095,0-1.775,0.547-1.775,1.261
					c0,1.758,4.96,0.597,4.96,3.716c0,1.344-1.078,2.422-3.151,2.422C189.197,476.215,188.086,475.817,187.273,474.955z"/>
				<path style="fill:#A5B7C6;" d="M195.053,466.031c0-0.464,0.382-0.846,0.829-0.846c0.465,0,0.846,0.381,0.846,0.846
					c0,0.465-0.381,0.829-0.846,0.829C195.434,466.86,195.053,466.495,195.053,466.031z M195.268,476.016v-8.012h1.244v8.012
					H195.268z"/>
				<path style="fill:#A5B7C6;" d="M198.569,478.073l0.63-0.929c0.663,0.796,1.46,1.095,2.604,1.095
					c1.327,0,2.571-0.647,2.571-2.405v-1.145c-0.581,0.813-1.559,1.427-2.687,1.427c-2.09,0-3.566-1.559-3.566-4.147
					c0-2.571,1.46-4.163,3.566-4.163c1.078,0,2.04,0.531,2.687,1.41v-1.211h1.244v7.78c0,2.654-1.858,3.483-3.815,3.483
					C200.443,479.267,199.514,479.002,198.569,478.073z M204.374,473.711v-3.5c-0.432-0.697-1.393-1.294-2.389-1.294
					c-1.609,0-2.571,1.277-2.571,3.052c0,1.758,0.962,3.052,2.571,3.052C202.981,475.021,203.943,474.408,204.374,473.711z"/>
				<path style="fill:#A5B7C6;" d="M213.099,476.016v-5.242c0-1.41-0.713-1.858-1.791-1.858c-0.979,0-1.908,0.597-2.372,1.244v5.855
					h-1.244v-8.012h1.244v1.161c0.564-0.663,1.658-1.36,2.853-1.36c1.675,0,2.555,0.846,2.555,2.588v5.623H213.099z"/>
				<path style="fill:#A5B7C6;" d="M215.952,472.002c0-2.322,1.659-4.197,3.948-4.197c2.422,0,3.848,1.891,3.848,4.296v0.316h-6.486
					c0.099,1.509,1.161,2.77,2.886,2.77c0.912,0,1.841-0.365,2.472-1.012l0.597,0.813c-0.796,0.796-1.874,1.227-3.185,1.227
					C217.66,476.215,215.952,474.507,215.952,472.002z M219.883,468.834c-1.708,0-2.555,1.443-2.621,2.67h5.258
					C222.503,470.31,221.707,468.834,219.883,468.834z"/>
				<path style="fill:#A5B7C6;" d="M231.146,476.016v-1.194c-0.597,0.813-1.576,1.393-2.704,1.393c-2.09,0-3.566-1.592-3.566-4.196
					c0-2.555,1.46-4.213,3.566-4.213c1.078,0,2.057,0.531,2.704,1.41v-4.263h1.244v11.064H231.146z M231.146,473.843v-3.633
					c-0.448-0.697-1.41-1.294-2.405-1.294c-1.609,0-2.571,1.327-2.571,3.102c0,1.775,0.962,3.085,2.571,3.085
					C229.736,475.104,230.697,474.54,231.146,473.843z"/>
				<path style="fill:#A5B7C6;" d="M238.327,476.016v-11.064h1.244v4.263c0.647-0.879,1.609-1.41,2.704-1.41
					c2.09,0,3.566,1.659,3.566,4.213c0,2.604-1.476,4.196-3.566,4.196c-1.128,0-2.107-0.581-2.704-1.393v1.194H238.327z
					 M241.96,475.104c1.626,0,2.588-1.31,2.588-3.085c0-1.775-0.962-3.102-2.588-3.102c-0.979,0-1.957,0.597-2.388,1.294v3.633
					C240.003,474.54,240.981,475.104,241.96,475.104z"/>
				<path style="fill:#A5B7C6;" d="M247.201,478.023c0.182,0.083,0.481,0.133,0.68,0.133c0.547,0,0.912-0.182,1.194-0.846
					l0.531-1.211l-3.351-8.095h1.344l2.671,6.569l2.654-6.569h1.36l-4.014,9.637c-0.481,1.161-1.294,1.609-2.356,1.625
					c-0.265,0-0.68-0.05-0.912-0.116L247.201,478.023z"/>
			</g>
		</g>
	</g>
</g>
</svg>
