<?xml version="1.0" standalone="no"?>
<!DOCTYPE svg PUBLIC "-//W3C//DTD SVG 20010904//EN"
 "http://www.w3.org/TR/2001/REC-SVG-20010904/DTD/svg10.dtd">
<svg version="1.0" xmlns="http://www.w3.org/2000/svg"
 width="1080.000000pt" height="1080.000000pt" viewBox="0 0 1080.000000 1080.000000"
 preserveAspectRatio="xMidYMid meet">

<g transform="translate(0.000000,1080.000000) scale(0.100000,-0.100000)"
fill="black" stroke="none" >
<path d="M3725 6836 c-170 -28 -291 -69 -455 -153 -324 -166 -583 -471 -700
-822 -28 -84 -70 -267 -70 -306 0 -26 39 -57 62 -49 17 5 20 3 15 -11 -4 -9
-7 -26 -7 -38 0 -21 0 -21 -16 1 -12 17 -24 22 -47 20 -39 -4 -52 -28 -74
-136 -28 -136 7 -270 100 -385 26 -31 64 -97 86 -146 115 -267 341 -519 602
-672 149 -86 347 -154 527 -180 109 -15 392 -6 492 16 288 63 514 188 726 399
175 175 280 343 353 563 56 166 66 239 66 463 0 230 -10 300 -72 474 -19 56
-43 141 -53 189 -36 172 -90 280 -186 373 -70 69 -189 129 -238 121 -25 -4
-36 -1 -40 9 -7 18 -119 91 -211 136 -96 49 -201 85 -325 114 -131 31 -406 41
-535 20z m411 -47 c181 -25 371 -92 525 -185 43 -26 77 -49 76 -50 -1 -2 -20
1 -42 7 -62 15 -252 12 -331 -5 -89 -19 -190 -56 -263 -98 -126 -71 -226 -163
-545 -501 -170 -181 -278 -277 -393 -351 -67 -43 -205 -106 -235 -106 -7 0
-20 -5 -28 -11 -29 -20 142 -1 223 26 178 58 302 139 599 392 276 236 398 323
536 381 219 94 418 53 533 -107 106 -148 106 -369 -1 -528 -21 -32 -49 -68
-61 -78 l-22 -20 6 25 c4 14 12 67 19 117 14 110 1 246 -30 315 l-20 43 5 -76
c7 -90 -9 -191 -41 -262 -22 -50 -99 -147 -116 -147 -5 0 -14 26 -20 58 -27
136 -95 296 -147 343 -24 22 -25 22 -18 4 50 -123 78 -310 58 -385 l-9 -35
-75 -7 c-342 -34 -724 -195 -954 -404 l-50 -45 53 26 c255 124 576 218 841
246 131 14 395 7 486 -13 l59 -13 46 -145 46 -145 -190 -7 c-381 -13 -694 -83
-961 -213 -97 -48 -249 -144 -305 -193 l-35 -31 106 44 c340 139 732 232 1069
254 137 9 356 2 458 -15 23 -3 42 -3 42 1 0 5 -36 124 -80 266 l-81 257 54 84
c176 270 232 525 161 735 -34 100 -91 176 -176 233 -64 43 -49 46 32 5 138
-70 228 -210 270 -420 10 -49 30 -121 45 -159 56 -148 77 -258 82 -448 4 -139
2 -198 -12 -280 -97 -584 -560 -1050 -1145 -1154 -126 -22 -346 -22 -468 0
-454 80 -845 378 -1033 786 -53 115 -66 138 -122 210 -27 36 -54 86 -64 119
-18 61 -21 186 -4 236 l9 30 1 -32 c5 -185 120 -339 290 -388 68 -20 158 -26
223 -17 l57 9 47 -136 c26 -75 52 -148 58 -163 l11 -26 100 66 c240 159 478
268 695 317 l65 15 -110 -4 c-60 -2 -146 -12 -190 -21 -111 -23 -302 -87 -411
-139 l-91 -43 -48 127 c-26 71 -51 133 -54 139 -6 8 -28 8 -85 -1 -143 -22
-271 16 -354 106 -82 89 -109 212 -66 301 54 115 211 205 443 255 l86 18 -86
1 c-217 3 -417 -71 -499 -182 l-30 -41 5 34 c40 238 116 430 237 608 70 101
212 249 318 328 164 124 405 226 610 259 105 16 313 19 416 4z m566 -281 c31
-5 62 -8 68 -6 7 2 25 -8 40 -22 15 -14 48 -38 74 -54 55 -33 115 -109 147
-186 21 -48 23 -72 24 -195 0 -132 -2 -145 -32 -232 -40 -115 -76 -187 -147
-293 -31 -46 -56 -89 -56 -97 0 -8 32 -115 70 -237 39 -123 70 -227 70 -231 0
-4 -26 -5 -59 -1 -32 4 -137 7 -232 6 -241 0 -445 -26 -703 -91 -65 -17 -120
-28 -123 -25 -2 2 38 18 89 35 235 77 436 110 713 117 227 6 240 8 249 30 10
25 -94 353 -115 364 -9 5 -72 17 -140 26 -230 30 -530 7 -789 -61 -52 -14
-104 -28 -115 -31 -41 -11 13 16 115 57 131 51 300 95 447 114 64 8 122 20
129 26 7 6 16 24 19 40 9 40 25 47 25 10 0 -21 7 -35 24 -46 22 -15 28 -15 53
-1 29 14 79 65 116 116 10 14 16 18 13 9 -40 -139 14 -186 104 -90 92 98 140
222 140 362 0 236 -140 417 -358 459 -169 34 -367 -37 -605 -216 -45 -34 -152
-121 -237 -194 -262 -224 -442 -357 -293 -217 44 42 167 169 272 281 257 275
360 360 519 425 157 65 314 81 484 49z m-2127 -1175 c23 -79 39 -108 93 -166
85 -90 218 -135 363 -122 l77 7 22 -59 c12 -32 33 -89 47 -126 36 -97 44 -99
165 -42 55 26 102 44 105 41 4 -3 2 -6 -4 -6 -5 0 -60 -31 -121 -69 l-112 -70
-13 32 c-8 18 -29 77 -47 132 -18 55 -38 106 -44 114 -8 10 -30 12 -102 7
-208 -16 -346 51 -415 199 -24 53 -50 185 -36 185 3 0 13 -26 22 -57z"/>
<path d="M1410 6650 c-156 -11 -305 -26 -434 -46 -165 -25 -194 -33 -217 -62
-20 -26 -21 -34 -14 -162 7 -133 6 -137 -29 -265 -140 -518 -292 -1359 -324
-1803 -10 -134 -3 -199 26 -222 37 -30 353 -120 422 -120 55 0 77 26 85 103
25 229 110 769 126 799 17 32 62 45 179 52 545 30 625 37 648 52 25 16 25 17
18 132 -10 163 -25 270 -42 303 -24 48 -65 54 -296 40 -261 -14 -361 -14 -376
1 -25 25 -15 89 63 399 25 99 50 189 55 199 15 29 66 38 275 50 197 11 573 30
613 30 13 0 34 12 48 26 26 25 26 27 20 127 -12 183 -26 291 -41 314 -9 12
-30 31 -48 40 -28 16 -66 18 -332 19 -165 1 -356 -2 -425 -6z"/>
<path d="M6585 6648 c-169 -14 -538 -121 -592 -171 -22 -20 -23 -24 -17 -176
l7 -156 -37 -142 c-107 -414 -242 -1135 -271 -1449 -11 -121 -1 -141 138 -278
154 -151 289 -263 347 -289 93 -42 311 -18 531 59 489 169 894 588 1033 1066
29 99 56 270 56 350 0 302 -143 621 -390 868 -152 153 -338 261 -513 299 -112
25 -175 29 -292 19z m278 -513 c89 -23 176 -72 238 -134 104 -104 145 -225
135 -397 -9 -163 -45 -308 -112 -452 -152 -330 -534 -622 -813 -622 -56 0 -61
2 -67 25 -13 52 100 652 227 1201 81 354 83 360 118 379 35 19 200 19 274 0z"/>
<path d="M9860 6643 c-270 -10 -642 -45 -726 -69 -72 -20 -79 -38 -70 -207 l7
-132 -45 -185 c-162 -662 -296 -1391 -296 -1605 0 -72 31 -143 118 -273 83
-124 157 -199 207 -208 39 -7 186 3 795 51 421 34 408 32 427 61 18 29 11 79
-39 253 -39 137 -64 188 -99 206 -43 23 -173 19 -714 -21 -100 -7 -125 3 -125
50 0 51 71 422 85 443 8 12 32 26 52 31 21 5 209 19 418 32 311 17 383 24 397
37 13 12 18 31 18 72 0 95 -31 314 -49 346 -30 53 -54 55 -385 37 -334 -18
-331 -19 -328 53 2 47 68 345 90 403 31 81 12 78 512 102 458 23 488 27 508
68 9 18 -1 217 -17 335 -11 78 -28 102 -80 117 -32 9 -453 11 -661 3z"/>
<path d="M8307 6600 c-81 -64 -303 -1008 -416 -1775 -63 -424 -79 -668 -48
-716 26 -39 104 -70 292 -114 184 -44 209 -35 220 77 11 121 73 550 111 768
96 562 233 1163 336 1479 39 120 40 126 24 157 -13 29 -25 36 -98 59 -123 39
-317 85 -359 85 -21 0 -47 -8 -62 -20z"/>
</g>
</svg>
