<?xml version="1.0" encoding="utf-8"?>
<!-- Generator: Adobe Illustrator 27.5.0, SVG Export Plug-In . SVG Version: 6.00 Build 0)  -->
<svg version="1.1" xmlns="http://www.w3.org/2000/svg" xmlns:xlink="http://www.w3.org/1999/xlink" x="0px" y="0px"
	 viewBox="0 0 500 500" style="enable-background:new 0 0 500 500;" xml:space="preserve">
<g id="BACKGROUND">
	<rect id="XMLID_1_" style="fill:#FFFFFF;" width="500" height="500"/>
</g>
<g id="OBJECTS">
	<g id="XMLID_2_">
		<g id="XMLID_84_">
			<g id="XMLID_42_">
				
					<linearGradient id="XMLID_00000083804348208020106190000007716536837028984201_" gradientUnits="userSpaceOnUse" x1="247.8677" y1="434.4067" x2="252.1087" y2="110.6934">
					<stop  offset="0.159" style="stop-color:#E0ECFC;stop-opacity:0"/>
					<stop  offset="1" style="stop-color:#E0ECFC"/>
				</linearGradient>
				<polygon id="XMLID_333_" style="fill:url(#XMLID_00000083804348208020106190000007716536837028984201_);" points="
					450.626,162.543 450.626,130.044 441.62,130.044 441.62,162.543 424.451,162.543 424.451,234.682 394.116,234.682 
					394.116,130.044 387.107,130.044 387.107,103.076 353.115,120.059 353.115,130.044 260.977,130.044 260.977,172.267 
					181.325,148.106 181.325,215.455 59.489,241.152 59.489,148.106 0,148.106 0,395.192 59.489,395.192 181.325,395.192 
					185.574,395.192 260.977,395.192 268.086,395.192 370.317,395.192 394.116,395.192 424.451,395.192 432.375,395.192 
					500,395.192 500,162.543 				"/>
				<g id="XMLID_32_">
					<g id="XMLID_277_">
						<g id="XMLID_288_">
							<rect id="XMLID_293_" y="184.54" style="fill:#CFDCF4;" width="47.275" height="5.815"/>
							<rect id="XMLID_291_" y="202.136" style="fill:#CFDCF4;" width="47.275" height="5.815"/>
							<rect id="XMLID_290_" y="220.72" style="fill:#CFDCF4;" width="47.275" height="5.815"/>
							<rect id="XMLID_289_" y="238.83" style="fill:#CFDCF4;" width="47.275" height="5.815"/>
						</g>
						<g id="XMLID_278_">
							<rect id="XMLID_287_" y="259.549" style="fill:#CFDCF4;" width="47.275" height="5.815"/>
							<rect id="XMLID_282_" y="277.145" style="fill:#CFDCF4;" width="47.275" height="5.815"/>
							<rect id="XMLID_280_" y="295.729" style="fill:#CFDCF4;" width="47.275" height="5.815"/>
							<rect id="XMLID_279_" y="313.839" style="fill:#CFDCF4;" width="47.275" height="5.815"/>
						</g>
					</g>
					<g id="XMLID_322_">
						<g id="XMLID_328_">
							<rect id="XMLID_332_" x="195.434" y="202.774" style="fill:#CFDCF4;" width="57.665" height="5.815"/>
							<rect id="XMLID_331_" x="195.434" y="220.37" style="fill:#CFDCF4;" width="57.665" height="5.815"/>
							<rect id="XMLID_330_" x="195.434" y="238.954" style="fill:#CFDCF4;" width="57.665" height="5.815"/>
							<rect id="XMLID_329_" x="195.434" y="257.064" style="fill:#CFDCF4;" width="57.665" height="5.815"/>
						</g>
						<g id="XMLID_323_">
							<rect id="XMLID_327_" x="195.434" y="277.783" style="fill:#CFDCF4;" width="57.665" height="5.815"/>
							<rect id="XMLID_326_" x="195.434" y="295.379" style="fill:#CFDCF4;" width="57.665" height="5.815"/>
							<rect id="XMLID_325_" x="195.434" y="313.963" style="fill:#CFDCF4;" width="57.665" height="5.815"/>
							<rect id="XMLID_324_" x="195.434" y="332.073" style="fill:#CFDCF4;" width="57.665" height="5.815"/>
						</g>
					</g>
					<g id="XMLID_276_">
						<g id="XMLID_298_">
							<g id="XMLID_306_">
								<rect id="XMLID_312_" x="76.742" y="270.845" style="fill:#CFDCF4;" width="31.478" height="5.815"/>
								<rect id="XMLID_311_" x="76.742" y="288.441" style="fill:#CFDCF4;" width="31.478" height="5.815"/>
								<rect id="XMLID_310_" x="76.742" y="307.025" style="fill:#CFDCF4;" width="31.478" height="5.815"/>
								<rect id="XMLID_309_" x="76.742" y="325.135" style="fill:#CFDCF4;" width="31.478" height="5.815"/>
							</g>
							<g id="XMLID_299_">
								<rect id="XMLID_304_" x="76.742" y="345.853" style="fill:#CFDCF4;" width="31.478" height="5.815"/>
							</g>
						</g>
						<g id="XMLID_300_">
							<g id="XMLID_313_">
								<rect id="XMLID_320_" x="119.166" y="270.845" style="fill:#CFDCF4;" width="31.478" height="5.815"/>
								<rect id="XMLID_319_" x="119.166" y="288.441" style="fill:#CFDCF4;" width="31.478" height="5.815"/>
								<rect id="XMLID_316_" x="119.166" y="307.025" style="fill:#CFDCF4;" width="31.478" height="5.815"/>
								<rect id="XMLID_315_" x="119.166" y="325.135" style="fill:#CFDCF4;" width="31.478" height="5.815"/>
							</g>
							<g id="XMLID_301_">
								<rect id="XMLID_302_" x="119.166" y="345.853" style="fill:#CFDCF4;" width="31.478" height="5.815"/>
							</g>
						</g>
					</g>
					<g id="XMLID_273_">
						<g id="XMLID_228_">
							<g id="XMLID_229_">
								<g id="XMLID_235_">
									<rect id="XMLID_239_" x="274.436" y="160.078" style="fill:#CFDCF4;" width="9.789" height="5.815"/>
									<rect id="XMLID_238_" x="274.436" y="177.674" style="fill:#CFDCF4;" width="9.789" height="5.815"/>
									<rect id="XMLID_237_" x="274.436" y="196.258" style="fill:#CFDCF4;" width="9.789" height="5.815"/>
									<rect id="XMLID_236_" x="274.436" y="214.368" style="fill:#CFDCF4;" width="9.789" height="5.815"/>
								</g>
								<g id="XMLID_230_">
									<rect id="XMLID_234_" x="274.436" y="235.087" style="fill:#CFDCF4;" width="9.789" height="5.815"/>
									<rect id="XMLID_233_" x="274.436" y="252.683" style="fill:#CFDCF4;" width="9.789" height="5.815"/>
									<rect id="XMLID_232_" x="274.436" y="271.267" style="fill:#CFDCF4;" width="9.789" height="5.815"/>
									<rect id="XMLID_231_" x="274.436" y="289.377" style="fill:#CFDCF4;" width="9.789" height="5.815"/>
								</g>
							</g>
							<g id="XMLID_240_">
								<g id="XMLID_246_">
									<rect id="XMLID_250_" x="302.458" y="159.492" style="fill:#CFDCF4;" width="9.789" height="5.815"/>
									<rect id="XMLID_249_" x="302.458" y="177.088" style="fill:#CFDCF4;" width="9.789" height="5.815"/>
									<rect id="XMLID_248_" x="302.458" y="195.672" style="fill:#CFDCF4;" width="9.789" height="5.815"/>
									<rect id="XMLID_247_" x="302.458" y="213.782" style="fill:#CFDCF4;" width="9.789" height="5.815"/>
								</g>
								<g id="XMLID_241_">
									<rect id="XMLID_245_" x="302.458" y="234.501" style="fill:#CFDCF4;" width="9.789" height="5.815"/>
									<rect id="XMLID_244_" x="302.458" y="252.097" style="fill:#CFDCF4;" width="9.789" height="5.815"/>
									<rect id="XMLID_243_" x="302.458" y="270.681" style="fill:#CFDCF4;" width="9.789" height="5.815"/>
									<rect id="XMLID_242_" x="302.458" y="288.791" style="fill:#CFDCF4;" width="9.789" height="5.815"/>
								</g>
							</g>
							<g id="XMLID_251_">
								<g id="XMLID_257_">
									<rect id="XMLID_261_" x="329.803" y="158.985" style="fill:#CFDCF4;" width="9.789" height="5.815"/>
									<rect id="XMLID_260_" x="329.803" y="176.581" style="fill:#CFDCF4;" width="9.789" height="5.815"/>
									<rect id="XMLID_259_" x="329.803" y="195.166" style="fill:#CFDCF4;" width="9.789" height="5.815"/>
									<rect id="XMLID_258_" x="329.803" y="213.275" style="fill:#CFDCF4;" width="9.789" height="5.815"/>
								</g>
								<g id="XMLID_252_">
									<rect id="XMLID_256_" x="329.803" y="233.994" style="fill:#CFDCF4;" width="9.789" height="5.815"/>
									<rect id="XMLID_255_" x="329.803" y="251.59" style="fill:#CFDCF4;" width="9.789" height="5.815"/>
									<rect id="XMLID_254_" x="329.803" y="270.174" style="fill:#CFDCF4;" width="9.789" height="5.815"/>
									<rect id="XMLID_253_" x="329.803" y="288.284" style="fill:#CFDCF4;" width="9.789" height="5.815"/>
								</g>
							</g>
							<g id="XMLID_262_">
								<g id="XMLID_268_">
									<rect id="XMLID_272_" x="361.886" y="160.411" style="fill:#CFDCF4;" width="9.789" height="5.815"/>
									<rect id="XMLID_271_" x="361.886" y="178.007" style="fill:#CFDCF4;" width="9.789" height="5.815"/>
									<rect id="XMLID_270_" x="361.886" y="196.591" style="fill:#CFDCF4;" width="9.789" height="5.815"/>
									<rect id="XMLID_269_" x="361.886" y="214.701" style="fill:#CFDCF4;" width="9.789" height="5.815"/>
								</g>
								<g id="XMLID_263_">
									<rect id="XMLID_267_" x="361.886" y="235.419" style="fill:#CFDCF4;" width="9.789" height="5.815"/>
									<rect id="XMLID_266_" x="361.886" y="253.016" style="fill:#CFDCF4;" width="9.789" height="5.815"/>
									<rect id="XMLID_265_" x="361.886" y="271.6" style="fill:#CFDCF4;" width="9.789" height="5.815"/>
									<rect id="XMLID_264_" x="361.886" y="289.71" style="fill:#CFDCF4;" width="9.789" height="5.815"/>
								</g>
							</g>
						</g>
						<g id="XMLID_274_">
							<g id="XMLID_308_">
								<g id="XMLID_314_">
									<rect id="XMLID_318_" x="274.972" y="308.935" style="fill:#CFDCF4;" width="9.789" height="5.815"/>
									<rect id="XMLID_317_" x="274.972" y="326.531" style="fill:#CFDCF4;" width="9.789" height="5.815"/>
								</g>
							</g>
							<g id="XMLID_297_">
								<g id="XMLID_303_">
									<rect id="XMLID_307_" x="302.994" y="308.349" style="fill:#CFDCF4;" width="9.789" height="5.815"/>
									<rect id="XMLID_305_" x="302.994" y="344.529" style="fill:#CFDCF4;" width="9.789" height="5.815"/>
								</g>
							</g>
							<g id="XMLID_286_">
								<g id="XMLID_292_">
									<rect id="XMLID_296_" x="330.339" y="307.842" style="fill:#CFDCF4;" width="9.789" height="5.815"/>
									<rect id="XMLID_295_" x="330.339" y="325.438" style="fill:#CFDCF4;" width="9.789" height="5.815"/>
									<rect id="XMLID_294_" x="330.339" y="344.022" style="fill:#CFDCF4;" width="9.789" height="5.815"/>
								</g>
							</g>
							<g id="XMLID_275_">
								<g id="XMLID_281_">
									<rect id="XMLID_285_" x="362.421" y="309.268" style="fill:#CFDCF4;" width="9.789" height="5.815"/>
									<rect id="XMLID_284_" x="362.421" y="326.864" style="fill:#CFDCF4;" width="9.789" height="5.815"/>
									<rect id="XMLID_283_" x="362.421" y="345.448" style="fill:#CFDCF4;" width="9.789" height="5.815"/>
								</g>
							</g>
						</g>
					</g>
					<g id="XMLID_221_">
						<g id="XMLID_213_">
							<rect id="XMLID_211_" x="432.375" y="190.869" style="fill:#CFDCF4;" width="62.957" height="5.815"/>
							<rect id="XMLID_215_" x="432.375" y="208.465" style="fill:#CFDCF4;" width="62.957" height="5.815"/>
							<rect id="XMLID_216_" x="432.375" y="227.049" style="fill:#CFDCF4;" width="62.957" height="5.815"/>
							<rect id="XMLID_218_" x="432.375" y="245.159" style="fill:#CFDCF4;" width="62.957" height="5.815"/>
						</g>
						<g id="XMLID_223_">
							<rect id="XMLID_227_" x="432.375" y="265.878" style="fill:#CFDCF4;" width="62.957" height="5.815"/>
							<rect id="XMLID_226_" x="432.375" y="283.474" style="fill:#CFDCF4;" width="62.957" height="5.815"/>
							<rect id="XMLID_225_" x="432.375" y="302.058" style="fill:#CFDCF4;" width="62.957" height="5.815"/>
							<rect id="XMLID_224_" x="432.375" y="320.168" style="fill:#CFDCF4;" width="62.957" height="5.815"/>
						</g>
					</g>
				</g>
			</g>
			<g id="XMLID_28_">
				<path id="XMLID_72_" style="fill:#E0ECFC;" d="M121.637,105.986c0,0.23-0.055,0.454-0.152,0.679H20.35
					c0.492-3.298,8.208-5.918,17.649-5.918c1.299,0,2.568,0.051,3.789,0.143c0.735-5.57,7.061-9.921,14.753-9.921
					c5.282,0,9.908,2.047,12.537,5.131c2.204-0.556,4.675-0.873,7.292-0.873c0.103,0,0.2,0.005,0.304,0.005
					c1.378-5.979,7.358-10.477,14.529-10.477c8.19,0,14.826,5.877,14.826,13.122c0,1.22-0.188,2.405-0.546,3.523
					c0.589-0.021,1.19-0.036,1.797-0.036C115.208,101.365,121.637,103.433,121.637,105.986z"/>
				<path id="XMLID_69_" style="fill:#E0ECFC;" d="M492.747,111.841h-85.506c0.897-0.643,5.571-1.131,11.196-1.131
					c0.296,0,0.592,0,0.885,0.004c-0.569-1.099-0.885-2.312-0.885-3.587c0-4.978,4.799-9.017,10.716-9.017
					c4.729,0,8.74,2.581,10.159,6.159c0.632-0.07,1.286-0.105,1.957-0.105c0.6,0,1.189,0.031,1.762,0.086
					c1.361-2.951,4.413-5.006,7.96-5.006c0.624,0,1.236,0.066,1.82,0.187c1.902-3.091,5.115-5.122,8.756-5.122
					c4.335,0,8.058,2.877,9.691,7.001c0.07-0.004,0.136-0.008,0.207-0.008c5.465,0,9.898,3.66,9.898,8.175
					c0,0.444-0.047,0.885-0.129,1.31c0.869-0.051,1.785-0.078,2.733-0.078C487.874,110.711,491.239,111.174,492.747,111.841z"/>
				<path id="XMLID_24_" style="fill:#E0ECFC;" d="M159.883,147.833H93.581c0.695-0.499,4.32-0.877,8.681-0.877
					c0.23,0,0.459,0,0.686,0.003c-0.441-0.852-0.686-1.792-0.686-2.781c0-3.86,3.721-6.992,8.31-6.992
					c3.667,0,6.777,2.001,7.877,4.776c0.49-0.054,0.998-0.082,1.518-0.082c0.465,0,0.922,0.024,1.366,0.066
					c1.055-2.288,3.422-3.881,6.173-3.881c0.484,0,0.958,0.051,1.412,0.145c1.475-2.397,3.966-3.972,6.789-3.972
					c3.361,0,6.248,2.231,7.515,5.429c0.054-0.003,0.106-0.006,0.16-0.006c4.238,0,7.675,2.838,7.675,6.339
					c0,0.345-0.036,0.686-0.1,1.016c0.674-0.039,1.385-0.06,2.119-0.06C156.104,146.957,158.713,147.316,159.883,147.833z"/>
				<path id="XMLID_40_" style="fill:#E0ECFC;" d="M365.594,84.756H212.615c0.391-0.976,6.736-1.757,14.504-1.757
					c1.715,0,3.354,0.042,4.888,0.112c-0.258-0.397-0.404-0.809-0.404-1.234c0-2.726,5.46-4.937,12.189-4.937
					c1.192,0,2.336,0.077,3.424,0.202c-0.119-0.697-0.195-1.416-0.195-2.148c0-7.635,6.582-13.827,14.706-13.827
					c8.116,0,14.699,6.192,14.699,13.827c0,0.007,0,0.007,0,0.014c0.118-0.007,0.237-0.014,0.356-0.014
					c1.639,0,3.207,0.14,4.679,0.391c0.335-7.893,9.03-14.218,19.705-14.218c8.925,0,16.456,4.414,18.89,10.466
					c0.69-0.042,1.381-0.07,2.092-0.07c2.287,0,4.477,0.23,6.499,0.655c2.085-2.789,5.397-4.602,9.141-4.602
					c6.31,0,11.429,5.132,11.429,11.463c0,1.011-0.139,1.98-0.384,2.915c1.053-0.077,2.148-0.118,3.277-0.118
					C358.328,81.876,363.621,83.075,365.594,84.756z"/>
			</g>
		</g>
		<line id="XMLID_31_" style="fill:none;stroke:#CED9EA;stroke-miterlimit:10;" x1="0" y1="395.192" x2="500" y2="395.192"/>
		<g id="XMLID_30_">
			<g id="XMLID_4_">
				<g id="XMLID_20_">
					<path id="XMLID_27_" style="fill:#819DCB;" d="M481.963,431.822c0,2.496-47.76,4.519-106.675,4.519
						c-58.915,0-106.675-2.023-106.675-4.519c0-2.495,47.76-4.518,106.675-4.518C434.203,427.304,481.963,429.327,481.963,431.822z"
						/>
					<g id="XMLID_121_">
						<g id="XMLID_114_">
							<path id="XMLID_37_" style="fill:#01112C;" d="M360.905,156.919c0,0-0.418,5.13,1.411,6.956
								c2.133,2.132-3.402,13.082-14.897,6.038C335.922,162.869,360.905,156.919,360.905,156.919z"/>
							<g id="XMLID_112_">
								<path id="XMLID_59_" style="fill:#EEA1A8;" d="M361.156,181.406c-2.938,4.942-8.871,13.813-8.871,13.813l-7.186-7.937
									c0.599-0.495,0.902-1.022,0.854-1.837c-0.032-0.559-0.096-1.174-0.184-1.828c-0.759-5.605-3.33-13.997-3.33-13.997
									l9.19-4.919l3.473-1.86c0,0,0,0.559,0.048,1.493c0.104,2.212,0.447,6.508,1.605,10.316
									C357.651,177.598,359.032,180.248,361.156,181.406z"/>
								<path id="XMLID_53_" style="fill:#E07E8E;" d="M356.756,174.651c-2.571,3.218-6.587,7.426-10.987,8.967
									c-0.759-5.605-3.33-13.997-3.33-13.997l9.19-4.919l3.521-0.367C355.255,166.547,355.599,170.842,356.756,174.651z"/>
							</g>
							<g id="XMLID_50_">
								<path id="XMLID_38_" style="fill:#E07E8E;" d="M334.043,162.181c-0.762,1.965-3.974,2.551-7.173,1.31
									c-3.2-1.241-5.176-3.84-4.414-5.805c0.762-1.965,3.974-2.551,7.174-1.31C332.829,157.617,334.805,160.216,334.043,162.181z"
									/>
								<path id="XMLID_9_" style="fill:#01112C;" d="M327.091,158.89c0,0-2.267-3.73-1.04-10.418
									c1.227-6.687,0.112-0.382,0.112-0.382l4.65,0.702L327.091,158.89z"/>
								<g id="XMLID_49_">
									<path id="XMLID_60_" style="fill:#EEA1A8;" d="M359.655,156.702c-0.535,12.807-10.46,21.886-19.698,21.495
										c-9.238-0.383-13.446-9.917-12.943-22.724v-0.032c0.216-5.278,1.988-10.252,4.535-14.181
										c3.385-5.222,8.12-8.615,12.344-8.44c8.4,0.351,14.995,9.222,15.722,20.441
										C359.687,154.386,359.703,155.536,359.655,156.702z"/>
									<path id="XMLID_58_" style="fill:#E07E8E;" d="M352.285,152.693l-0.415-0.072c0,0-13.901,5.342-24.856,2.819
										c0.216-5.278,1.988-10.252,4.535-14.181l18.053,3.889L352.285,152.693z"/>
								</g>
								<path id="XMLID_36_" style="fill:#01112C;" d="M348.394,148.792c0,1.125,1.852,6.872,8.514,10.544h3.587l0.41-5.259
									L348.394,148.792z"/>
								<path id="XMLID_29_" style="fill:#EEA1A8;" d="M366.893,158.747c0.402,2.069-2.003,4.277-5.371,4.932
									c-3.369,0.655-6.426-0.491-6.828-2.559c-0.402-2.069,2.003-4.277,5.372-4.932
									C363.434,155.533,366.491,156.678,366.893,158.747z"/>
								<g id="XMLID_46_">
									<path id="XMLID_44_" style="fill:#CE5A67;" d="M360.905,154.077l-34.854-5.605c2.785-9.882,8.874-17.211,19.651-16.481
										C357.763,132.809,360.12,141.962,360.905,154.077z"/>
									<path id="XMLID_35_" style="fill:#FE6C83;" d="M350.628,152.425c1.243,0.227-10.062-5.088-19.487-7.061
										c-5.089-1.065-20.89,2.039-20.215,3.531C311.6,150.386,339.22,152.632,350.628,152.425z"/>
								</g>
								<g id="XMLID_10_">
									<ellipse id="XMLID_39_" style="fill:#01112C;" cx="341.013" cy="159.356" rx="0.717" ry="1.255"/>
									<ellipse id="XMLID_43_" style="fill:#01112C;" cx="329.433" cy="159.356" rx="0.717" ry="1.255"/>
									
										<path id="XMLID_41_" style="fill:none;stroke:#01112C;stroke-linecap:round;stroke-linejoin:round;stroke-miterlimit:10;" d="
										M339.958,153.88c1.45-0.403,3.076-0.112,4.296,0.769"/>
									
										<path id="XMLID_45_" style="fill:none;stroke:#01112C;stroke-linecap:round;stroke-linejoin:round;stroke-miterlimit:10;" d="
										M327.522,153.586c1.177-0.688,2.73-0.675,3.895,0.033"/>
									
										<path id="XMLID_47_" style="fill:none;stroke:#01112C;stroke-linecap:round;stroke-linejoin:round;stroke-miterlimit:10;" d="
										M333.271,159.807c-0.36,2.127-0.3,4.324,0.177,6.427"/>
									<path id="XMLID_48_" style="fill:#FFFFFF;" d="M335.091,168.894l9.004-3.886c0,0,2.936,5.542-1.989,7.239
										C337.182,173.944,335.091,168.894,335.091,168.894z"/>
								</g>
							</g>
						</g>
						<g id="XMLID_90_">
							<g id="XMLID_88_">
								<polygon id="XMLID_16_" style="fill:#EEA1A8;" points="461.276,367.705 451.588,361.605 446.396,374.042 454.644,380.814 
									462.819,369.695 								"/>
								<g id="XMLID_14_">
									<path id="XMLID_83_" style="fill:#284A70;" d="M476.455,370.579l-1.23,6.579l-1.166,1.206l-0.279,2.986
										c0,0-7.034,30.006-11.258,29.112c-0.663-0.144-1.254-0.319-1.789-0.543c-5.629-2.3-4.192-8.679-2.906-14.987
										c1.413-6.891-3.521-14.692-3.521-14.692l6.971-12.536c4.671,0.343,8.935,0.886,12.344,1.868
										C474.65,369.86,475.6,370.196,476.455,370.579z"/>
									<path id="XMLID_81_" style="fill:#40858E;" d="M476.455,370.579l-1.23,6.579l-1.166,1.206l-0.279,2.986
										c0,0-7.034,30.006-11.258,29.112c-0.663-0.144-1.254-0.319-1.789-0.543c2.499-5.925,10.548-25.431,10.412-30.757
										c0,0,1.988-5.07,2.475-9.59C474.65,369.86,475.6,370.196,476.455,370.579z"/>
								</g>
							</g>
							<g id="XMLID_120_">
								<polygon id="XMLID_13_" style="fill:#EEA1A8;" points="323.698,416.596 328.696,402.357 314.567,399.408 311.04,409.847 
																	"/>
								<g id="XMLID_12_">
									<path id="XMLID_87_" style="fill:#284A70;" d="M323.7,416.595c-0.271,4.775-0.759,9.127-1.709,12.584
										c-0.263,0.95-0.559,1.837-0.902,2.643l-6.603-1.11l-0.87-1.317l-3.338-0.056c0,0-30.126-6.516-29.304-10.747
										c0.112-0.559,0.247-1.07,0.415-1.533c2.1-5.981,8.599-4.631,15.019-3.434c6.923,1.286,14.628-3.777,14.628-3.777
										L323.7,416.595z"/>
									<path id="XMLID_85_" style="fill:#40858E;" d="M321.991,429.179c-0.263,0.95-0.559,1.837-0.902,2.643l-6.603-1.11
										l-0.87-1.317l-3.338-0.056c0,0-30.126-6.516-29.304-10.747c0.112-0.559,0.247-1.07,0.415-1.533
										c5.829,2.954,20.768,10.236,32.737,9.605C314.126,426.663,316.665,428.787,321.991,429.179z"/>
								</g>
							</g>
							<g id="XMLID_71_">
								<path id="XMLID_11_" style="fill:#284A70;" d="M352.697,255.443c0,0-40.484,146.727-41.852,148.094
									c-1.367,1.367,18.726,6.31,18.726,6.31l40.879-120.61c0,0,13.317,38.226,24.196,48.561
									c10.879,10.335,53.037,43.065,53.037,43.065l8.209-18.016c0,0-39.044-29.836-45.668-40.336
									c-6.653-10.545-19.168-74.089-19.168-74.089L352.697,255.443z"/>
								<g id="XMLID_67_">
									<g>
										<g id="XMLID_335_">
											<path id="XMLID_337_" style="fill:none;stroke:#A9D2D8;stroke-miterlimit:10;" d="M366.336,249.197
												c-0.712,1.556,0,30.754,0,30.754"/>
											<path id="XMLID_336_" style="fill:none;stroke:#A9D2D8;stroke-miterlimit:10;" d="M372.477,249.197
												c-0.122,0.386,1.483,23.284-6.299,22.182"/>
										</g>
										<g id="XMLID_222_">
											<path id="XMLID_334_" style="fill:none;stroke:#A9D2D8;stroke-miterlimit:10;" d="M386.819,249.197
												c0,0,11.516,65.852,21.086,77.017c10.528,12.283,44.581,37.664,44.581,37.664"/>
											
												<line id="XMLID_321_" style="fill:none;stroke:#A9D2D8;stroke-miterlimit:10;" x1="453.593" y1="362.15" x2="446.396" y2="378.265"/>
										</g>
										
											<line id="XMLID_220_" style="fill:none;stroke:#A9D2D8;stroke-miterlimit:10;" x1="312.254" y1="400.813" x2="330.414" y2="406.052"/>
									</g>
								</g>
							</g>
						</g>
						<g id="XMLID_118_">
							<path id="XMLID_70_" style="fill:#EEA1A8;" d="M344.548,214.023c0,0-3.753,6.555-8.488,13.71
								c-1.27,1.916-2.603,3.873-3.96,5.757c-0.966,1.333-1.932,2.635-2.89,3.857c-3.401,4.344-6.667,7.705-8.967,8.28
								c-7.25,1.82-45.23-18.13-45.23-18.13l6.424-11.741c0,0,31.947,12.514,33.799,12.146c0.703-0.136,2.403-0.944,4.423-3.97
								c0.12-0.176,0.232-0.351,0.351-0.535c1.836-2.803,3.888-6.26,5.645-9.59c1.405-2.659,2.611-5.23,3.393-7.314
								c2.898-7.801,5.885-11.274,5.885-11.274L344.548,214.023z"/>
							<path id="XMLID_62_" style="fill:#E07E8E;" d="M336.06,227.733c-1.27,1.916-2.603,3.873-3.96,5.757
								c-0.966,1.333-1.932,2.635-2.89,3.857l-9.198-13.949c1.836-2.803,3.888-6.26,5.645-9.59L336.06,227.733z"/>
							<path id="XMLID_66_" style="fill:#F46083;" d="M348.394,217.34c0,0-5.914,11.08-12.334,20.006
								c-3.665-2.803-14.153-13.139-17.818-15.973c3.362-5.046,6.737-9.707,9.794-15.497c3.885-7.36,6.899-10.657,6.899-10.657
								L348.394,217.34z"/>
							<g id="XMLID_163_">
								<g id="XMLID_150_">
									<polygon id="XMLID_173_" style="fill:#FE6C83;" points="296.52,313.552 234.671,313.552 235.541,300.849 239.254,246.378 
										293.079,246.378 294.636,276.759 									"/>
									<ellipse id="XMLID_151_" style="fill:#FFECF3;" cx="266.581" cy="273.332" rx="18.316" ry="8.758"/>
									<path id="XMLID_171_" style="fill:#F46083;" d="M296.52,313.552h-61.849l0.87-12.703
										c24.425,1.118,46.032-13.127,59.095-24.09L296.52,313.552z"/>
								</g>
								<g id="XMLID_152_">
									
										<path id="XMLID_157_" style="fill:none;stroke:#01112C;stroke-width:3;stroke-linecap:round;stroke-linejoin:round;stroke-miterlimit:10;" d="
										M280.88,250.519c0,0-6.054-29.859-15.228-29.453"/>
									<g id="XMLID_155_">
										<path id="XMLID_169_" style="fill:#EEA1A8;" d="M281.706,215.752l-2.847,6.284c-0.429,2.223-1.162,3.905-3.173,5.318
											c-5.063,1.161-7.868-0.124-7.868-0.124s-6.141,1.803-7.614-0.5c-0.107-0.018-0.214-0.045-0.312-0.071
											c-0.268-0.053-0.527-0.116-0.768-0.187c-6.543-1.866-2.91-7.632,0.937-15.415
											C264.104,202.89,281.706,215.752,281.706,215.752z"/>
										<path id="XMLID_167_" style="fill:#E07E8E;" d="M269.388,218.609c-3.16,2.062-7.926,4.311-9.497,8.051
											c-0.268-0.053-0.527-0.116-0.768-0.187c0.58-1.446,1.624-2.749,2.892-3.883c-0.402,0-0.812,0.009-1.214,0.009
											c-0.678,0.009-1.437,0.152-2.08-0.08c-0.295-0.107-0.277-0.464,0-0.58c0.678-0.277,1.517-0.125,2.24-0.089
											c0.589,0.027,1.152,0.089,1.732,0.17c0.553-0.446,1.151-0.866,1.749-1.258c-0.589-1.589-0.91-3.463-0.473-5.115
											c0.071-0.277,0.535-0.223,0.518,0.071c-0.116,1.696-0.134,3.187,0.375,4.775c1.508-0.91,3.062-1.642,4.409-2.151
											C269.442,218.278,269.522,218.528,269.388,218.609z"/>
									</g>
									
										<path id="XMLID_162_" style="fill:none;stroke:#01112C;stroke-width:3;stroke-linecap:round;stroke-linejoin:round;stroke-miterlimit:10;" d="
										M264.267,221.064c-9.173,0.407-15.227,29.453-15.227,29.453"/>
								</g>
							</g>
						</g>
						<g id="XMLID_117_">
							<path id="XMLID_61_" style="fill:#FE6C83;" d="M392.625,249.197l-40.932,7.166c0,0-25.655-51.418-16.864-61.143
								c5.014-5.541,8.607-6.659,10.164-7.937l7.186,7.937c0,0,5.933-8.871,8.871-13.813c0.527,0.287,1.094,0.487,1.717,0.567
								c7.737,1.062,18.716,0.751,20.84,8.184C385.732,197.591,392.625,249.197,392.625,249.197z"/>
							
								<rect id="XMLID_73_" x="362.835" y="208.613" transform="matrix(0.9861 -0.1664 0.1664 0.9861 -29.7789 64.3605)" style="fill:#FFECF3;" width="12.917" height="2.649"/>
						</g>
						<g id="XMLID_115_">
							<path id="XMLID_51_" style="fill:#FFECF3;" d="M352.285,195.22l7.397-14.96c0,0,4.759-0.909,6.53,2.097
								s2.362,12.39,2.362,12.39C368.955,193.472,359.49,191.844,352.285,195.22z"/>
							<path id="XMLID_52_" style="fill:#FFECF3;" d="M345.953,185.446l6.332,9.773c0,0-8.481-0.643-12.026,5.867
								C340.259,201.086,337.872,186.545,345.953,185.446z"/>
						</g>
						<g id="XMLID_166_">
							<g id="XMLID_164_">
								<path id="XMLID_68_" style="fill:#EEA1A8;" d="M403.211,255.44l-8.655-7.018c0,0,16.432-23.627,16.432-26.23
									c0-0.591-1.597-1.493-4.072-2.531c-1.278-0.543-2.795-1.126-4.439-1.725c-3.354-1.206-7.258-2.467-10.883-3.593
									c-6.428-1.996-11.977-3.553-11.977-3.553s-20.624-20.8,0-25.543c0,0,12.265,5.98,24.505,12.728
									c2.842,1.565,5.685,3.17,8.376,4.751c0.056,0.032,0.112,0.064,0.168,0.096c7.841,4.623,14.317,9.015,15.586,11.554
									C431.828,221.537,403.211,255.44,403.211,255.44z"/>
								<path id="XMLID_63_" style="fill:#E07E8E;" d="M412.665,202.821c-1.868,5.27-4.455,12.648-5.749,16.84
									c-1.278-0.543-2.795-1.126-4.439-1.725c-3.354-1.206-7.258-2.467-10.883-3.593l4.487-15.394l8.041-0.974
									c2.842,1.565,5.685,3.17,8.376,4.751C412.553,202.757,412.609,202.789,412.665,202.821z"/>
							</g>
							<path id="XMLID_65_" style="fill:#FE6C83;" d="M412.497,202.725c-2.946,4.599-8.166,13.897-11.352,18.648
								c-9.294-3.338-21.529-10.584-21.529-10.584s-20.624-20.8,0-25.543C379.616,185.247,398.245,194.333,412.497,202.725z"/>
							<path id="XMLID_165_" style="fill:#EEA1A8;" d="M397.892,247.111c0,0-15.441,0.065-16.542,3.192
								c-1.152,3.272-3.878,13.87-1.656,14.271c1.729,0.312,4.53-9.56,4.53-9.56s-2.434,10.699-0.889,11.541
								c2.031,1.107,5.357-10.192,5.357-10.192s-3.254,12.454-0.663,12.514c2.591,0.059,4.369-10.479,4.369-10.479
								s-1.347,10.624,0.332,10.479c1.68-0.145,3.421-8.57,3.421-8.57s8.502-1.97,9.603-7.952
								C407.073,245.188,397.892,247.111,397.892,247.111z"/>
						</g>
					</g>
				</g>
				<g id="XMLID_5_">
					<path id="XMLID_34_" style="fill:#819DCB;" d="M231.762,431.822c0,2.496-45.087,4.519-100.705,4.519
						c-55.618,0-100.705-2.023-100.705-4.519c0-2.495,45.087-4.518,100.705-4.518C186.675,427.304,231.762,429.327,231.762,431.822z
						"/>
					<g id="XMLID_210_">
						<path id="XMLID_141_" style="fill:#EEA1A8;" d="M139.286,242.233l-5.358-1.262l2.26-0.351
							C136.188,240.62,138.064,240.732,139.286,242.233z"/>
						<path id="XMLID_8_" style="fill:#01112C;" d="M116.581,170.25c-0.532,0.451-1.081,0.882-1.643,1.292
							c-4.621,3.368-10.091,5.524-15.487,7.301c-4.384,1.443-9.169,3.267-11.373,7.653c-2.324,4.623-0.823,8.049,1.145,12.349
							c0.908,1.983,1.456,4.4,0.34,6.274c-0.799,1.342-2.27,2.099-3.515,3.042c-2.927,2.219-4.773,5.801-4.882,9.473
							c-0.109,3.671,1.522,7.357,4.312,9.745c1.899,1.626,4.238,2.633,6.549,3.587c8.241,3.403,16.89,6.482,25.802,6.224
							c6.007-0.174,11.866-1.864,17.545-3.832c6.269-2.173,12.599-4.82,17.271-9.532c4.672-4.712,7.341-11.951,5-18.16
							c-0.897-2.379-2.501-4.82-1.751-7.249c0.498-1.613,1.92-2.728,3.146-3.887c6.396-6.048,8.554-16.602,3.899-24.073
							c-0.456-0.732-1.002-1.458-1.781-1.829c-0.635-0.302-1.361-0.337-2.064-0.366c-8.589-0.358-26.035-12.109-34.624-12.467
							c0.634,0.16-2.308,7.641-2.641,8.23C120.488,166.399,118.662,168.484,116.581,170.25z"/>
						<path id="XMLID_219_" style="fill:#01112C;" d="M166.609,155.967c-1.046,4.551-3.018,9.023-6.38,11.562
							c-6.356,4.799-25.759-21.096-25.759-21.096s-0.287-3.697,2.371-6.531c1.294-1.373,3.274-2.547,6.308-3.01
							c9.318-1.413,23.89,1.98,24.369,8.048C167.743,147.799,167.543,151.919,166.609,155.967z"/>
						<g id="XMLID_149_">
							<g id="XMLID_96_">
								<polygon id="XMLID_99_" style="fill:#EEA1A8;" points="167.504,416.619 153.259,420.004 150.416,408.961 165.499,405.472 
																	"/>
								<g id="XMLID_18_">
									<path id="XMLID_144_" style="fill:#EEA1A8;" d="M155.095,430.664c-3.138,0.104-3.082-3.936-2.571-7.082
										c0.327-1.988,0.831-3.617,0.831-3.617l14.149-3.346c0,0,9.486-0.503,15.945,1.134c2.339,0.591,4.288,1.469,5.238,2.747
										C192.264,425.298,160.214,430.496,155.095,430.664z"/>
									<path id="XMLID_103_" style="fill:#284A70;" d="M155.095,430.664c-3.138,0.104-3.082-3.936-2.571-7.082
										c7.274-0.128,27.148-0.926,30.925-5.829c2.339,0.591,4.288,1.469,5.238,2.747
										C192.264,425.298,160.214,430.496,155.095,430.664z"/>
								</g>
								<g id="XMLID_21_">
									<polygon id="XMLID_139_" style="fill:#F46083;" points="165.499,405.472 150.416,408.961 117.144,279.522 138.12,253.1 
																			"/>
									
										<line id="XMLID_22_" style="fill:none;stroke:#FFECF3;stroke-miterlimit:10;" x1="150.416" y1="406.429" x2="164.541" y2="402.917"/>
								</g>
							</g>
							<g id="XMLID_148_">
								<g id="XMLID_23_">
									<path id="XMLID_145_" style="fill:#EEA1A8;" d="M84.623,408.746c-3.745,4.679-16.856-25.024-18.309-29.935
										c-0.87-2.914,2.467-3.912,5.326-4.232c1.956-0.224,3.697-0.136,3.697-0.136l0.894-0.024l6.627,12.624
										c0,0,2.403,7.426,2.946,13.813C86.1,404.138,85.892,407.157,84.623,408.746z"/>
									<path id="XMLID_143_" style="fill:#284A70;" d="M84.623,408.746c-3.745,4.679-16.856-25.024-18.309-29.935
										c-0.87-2.914,2.467-3.912,5.326-4.232c2.348,7.394,7.801,21.926,14.165,26.277C86.1,404.138,85.892,407.157,84.623,408.746
										z"/>
								</g>
								<g id="XMLID_147_">
									<path id="XMLID_137_" style="fill:#EEA1A8;" d="M83.696,366.259l7.721,14.205c-5.118,4-8.56,6.579-8.56,6.579
										l-8.224-12.608C74.634,374.436,78.443,371.074,83.696,366.259z"/>
									<g id="XMLID_146_">
										<path id="XMLID_98_" style="fill:#FE6C83;" d="M139.246,250.426c-3.633,9.406-11.785,20.8-11.785,20.8
											s6.052,57.043,7.394,66.456c0.998,7.019-28.425,31.028-43.437,42.782l-7.721-14.205
											c11.793-10.811,30.877-28.928,30.414-32.633c-0.671-5.358-15.882-41.584-18.069-56.875
											c-3.378-23.651,13.031-31.899,13.031-31.899l24.856-3.881l5.358,1.262C140.38,243.567,140.955,246.002,139.246,250.426z"
											/>
										<g id="XMLID_142_">
											<path id="XMLID_33_" style="fill:none;stroke:#FFECF3;stroke-miterlimit:10;" d="M113.916,245.747
												c-0.863-0.16-12.658,8.048-12.311,20.911c0.348,12.863,18.425,64.314,17.73,68.833c-0.695,4.519-31.359,33.1-31.359,33.1
												"/>
											
												<line id="XMLID_74_" style="fill:none;stroke:#FFECF3;stroke-miterlimit:10;" x1="85.923" y1="364.939" x2="93.131" y2="377.763"/>
											<path id="XMLID_94_" style="fill:none;stroke:#FFECF3;stroke-miterlimit:10;" d="M119.562,245.745
												c-0.06,0.344-5.99,9.317-11.483,4.681"/>
										</g>
									</g>
								</g>
							</g>
						</g>
						<g id="XMLID_186_">
							<path id="XMLID_204_" style="fill:#E07E8E;" d="M219.372,234.456l-2.132,11.417c0,0-42.183-0.214-52.539-4.446
								c-2.18-0.886-4.679-2.363-7.274-4.144c-9.757-6.683-20.832-17.622-20.832-17.622l12.24-20.648
								c0,0,9.566,15.354,18.684,24.473c3.098,3.098,6.14,5.478,8.743,6.284C186.515,232.947,219.372,234.456,219.372,234.456z"/>
							<path id="XMLID_202_" style="fill:#233A63;" d="M167.52,223.485l-10.093,13.798c-9.757-6.683-20.832-17.622-20.832-17.622
								l12.24-20.648C148.835,199.012,158.401,214.367,167.52,223.485z"/>
							<g id="XMLID_184_">
								<path id="XMLID_185_" style="fill:#E07E8E;" d="M213.089,237.347c0,0,8.739-9.467,15.407-12.27
									c7.899-3.321,15.663-4.01,15.578-2.629c-0.102,1.645-12.296,5.036-12.68,5.455c-0.384,0.42,3.727-1.055,6.354-1.243
									c3.026-0.216,9.496-0.023,9.204,0.965c-0.689,2.34-4.859,1.274-8.342,2.015c-3.482,0.742-5.796,1.563-5.796,1.563
									s13.03-0.417,12.45,1.18s-4.402,2.013-7.338,2.158c-2.936,0.145-5.218,0.559-5.218,0.559s11.782,0.351,11.346,1.962
									c-0.435,1.611-6.176,1.257-7.51,1.443c-0.602,0.084-2.81,0.162-4.527,1.728c-0.955,0.871-7.712,7.201-16.087,5.427
									C207.557,243.885,213.089,237.347,213.089,237.347z"/>
								<path id="XMLID_187_" style="fill:#AF4F76;" d="M229.077,227.424c-1.428,0.594-2.855,1.96-4.13,2.856
									c-1.424,1.001-2.847,1.996-4.183,3.113c-0.119,0.099,0.034,0.286,0.163,0.211c1.805-1.049,3.503-2.272,5.215-3.466
									c0.383-0.267,2.23-1.95,2.725-1.898c1.377-0.571,1.978-0.346,1.338,1.157c-0.097,0.188-0.193,0.375-0.29,0.563
									c-0.1,0.626-0.891,1.273-1.27,1.709c-0.943,1.085-1.645,1.915-1.875,3.372c-0.396,2.497-0.735,4.995-3.421,6.046
									c-0.381,0.149-0.227,0.765,0.173,0.626c2.385-0.834,3.401-3.025,3.74-5.389c0.128-0.896,0.088-1.757,0.519-2.607
									c0.355-0.699,1.011-1.251,1.493-1.855c0.686-0.86,1.561-1.992,1.782-3.099C231.339,227.339,230.274,226.926,229.077,227.424
									z"/>
							</g>
						</g>
						<path id="XMLID_105_" style="fill:#284A70;" d="M139.246,250.426l-30.174-5.573c0,0,0-33.24,2.042-41.832
							c2.133-8.977,7.172-11.873,14.239-15.682c7.29,5.254,17.015,12.648,18.54,15.682c0,0,2.092-3.258,2.898-7.673
							c1.541,2.028,3.218,4.336,4.232,7.386C154.576,213.441,139.246,250.426,139.246,250.426z"/>
						<g id="XMLID_209_">
							<path id="XMLID_102_" style="fill:#EEA1A8;" d="M143.398,189.686c0.487,1.916,1.868,3.657,3.394,5.661
								c-0.807,4.415-2.898,7.673-2.898,7.673c-1.525-3.034-11.25-10.428-18.54-15.682c0.367-0.2,0.743-0.399,1.11-0.607
								c3.098-1.725,5.062-4.767,6.3-7.713c0.982-2.348,1.509-4.631,1.781-6.156c0.2-1.134,0.256-1.844,0.256-1.844l4.256,2.379
								l8.783,4.926c0,0-4.759,5.669-4.615,10.133C143.238,188.88,143.294,189.287,143.398,189.686z"/>
							<path id="XMLID_101_" style="fill:#E07E8E;" d="M143.222,188.457c0.016,0.423,0.072,0.83,0.176,1.23
								c-5.909-2.156-9.238-7.745-10.636-10.667c0.982-2.348,1.509-4.631,1.781-6.156l4.511,0.535l8.783,4.926
								C147.837,178.324,143.078,183.993,143.222,188.457z"/>
						</g>
						<g id="XMLID_122_">
							<path id="XMLID_140_" style="fill:#EEA1A8;" d="M198.716,222.447c0,0-36.61,18.684-45.672,17.75
								c-3.362-0.351-9.294-2.755-15.57-6.06c-1.573-0.822-3.162-1.709-4.743-2.627c-2.787-1.629-5.533-3.37-8.041-5.134
								c-5.725-4.024-10.212-8.144-11.171-11.171c-2.555-8.097,0.759-22.333,11.833-19.986c0,0,5.997,6.987,12.688,14.205
								c1.645,1.789,3.346,3.593,5.006,5.31c0.271,0.279,0.535,0.559,0.807,0.83c5.118,5.238,9.733,9.462,11.41,9.59
								c4.495,0.335,38.75-12.831,38.75-12.831L198.716,222.447z"/>
							<path id="XMLID_100_" style="fill:#E07E8E;" d="M143.046,214.734l-5.573,19.403c-1.573-0.822-3.162-1.709-4.743-2.627
								c-2.787-1.629-5.533-3.37-8.041-5.134l13.35-16.952C139.685,211.213,141.386,213.018,143.046,214.734z"/>
							<path id="XMLID_134_" style="fill:#305C7A;" d="M143.853,214.213l-11.992,21.455c-9.151-5.342-16.968-16.111-18.342-20.463
								c-2.555-8.097,0.759-22.333,11.833-19.986C125.352,195.22,135.301,205.454,143.853,214.213z"/>
							<g id="XMLID_181_">
								<g id="XMLID_170_">
									<path id="XMLID_200_" style="fill:#EEA1A8;" d="M225.368,211.261c-0.207,2.044-3.681,1.94-3.984,2.148
										c-0.216,0.144-0.136,0.575-0.647,1.158c-0.247,0.271-0.615,0.575-1.198,0.894c-1.836,1.014-0.615,2.06-2.148,2.659
										c-1.533,0.607-0.511,0.096-2.858,1.421c-2.355,1.333-15.818,2.906-15.818,2.906l-7.937-6.164c0,0,4.807-9.861,9.414-12.975
										l5.19,1.964c0,0,1.413,0.28,3.481,0.719C214.629,207.221,225.52,209.76,225.368,211.261z"/>
									<path id="XMLID_190_" style="fill:#E07E8E;" d="M225.368,211.261c-0.207,2.044-3.681,1.94-3.984,2.148
										c-0.216,0.144-0.136,0.575-0.647,1.158c-3.378-3.857-9.198-7.17-11.873-8.576
										C214.629,207.221,225.52,209.76,225.368,211.261z"/>
								</g>
								<g id="XMLID_176_">
									<g id="XMLID_177_">
										<path id="XMLID_180_" style="fill:#6B9B4C;" d="M207.551,208.674c-0.411,0.003-2.053-10.292-2.053-10.292
											s23.243-1.441,29.312,5.794l2.287,10.295C237.096,214.471,227.456,208.517,207.551,208.674z"/>
										<path id="XMLID_179_" style="fill:#B4C482;" d="M206.595,199.031c0,0,22.592-0.62,27.693,5.407l1.878,8.541
											c0,0-12.016-6.478-28.048-5.186L206.595,199.031z"/>
										<path id="XMLID_178_" style="fill:#6B9B4C;" d="M224.647,203.987c0.178,1.841-0.711,3.433-1.986,3.557
											c-1.275,0.123-2.453-1.269-2.631-3.11c-0.178-1.841,0.711-3.433,1.986-3.557
											C223.291,200.753,224.469,202.146,224.647,203.987z"/>
									</g>
									<g id="XMLID_175_">
										<path id="XMLID_172_" style="fill:#8EB561;" d="M207.987,207.884c-0.392,0.125-5.004-9.225-5.004-9.225
											s21.778-8.249,29.715-3.131l5.229,9.158C237.925,204.687,226.956,201.848,207.987,207.884z"/>
										<path id="XMLID_168_" style="fill:#C9D8A3;" d="M204.223,198.955c0,0,21.398-7.272,28.054-3.022l4.319,7.604
											c0,0-13.395-2.636-28.328,3.338L204.223,198.955z"/>
										<path id="XMLID_174_" style="fill:#8EB561;" d="M222.933,198.352c0.714,1.706,0.336,3.49-0.845,3.985
											c-1.181,0.495-2.718-0.487-3.433-2.193c-0.714-1.706-0.336-3.49,0.845-3.985
											C220.682,195.664,222.219,196.646,222.933,198.352z"/>
									</g>
								</g>
								<path id="XMLID_183_" style="fill:#EEA1A8;" d="M200.196,203.31c4.611-3.112,11.913-2.727,14.603-3.304
									c2.69-0.576,2.113,3.622-9.415,5.27"/>
							</g>
						</g>
						<g id="XMLID_205_">
							<path id="XMLID_76_" style="fill:#E07E8E;" d="M167.447,165.321c0.511,1.973-1.831,4.285-5.23,5.165
								c-3.399,0.88-6.569-0.005-7.079-1.978c-0.511-1.973,1.831-4.285,5.23-5.165C163.767,162.463,166.936,163.349,167.447,165.321
								z"/>
							<g id="XMLID_75_">
								<path id="XMLID_97_" style="fill:#EEA1A8;" d="M149.538,186.564c-9.23,0.671-19.187-8.903-20.113-21.678
									c-0.455-6.324,1.613-12.201,4.951-16.6c0.216-0.287,0.439-0.567,0.663-0.838c3.338-4.024,7.745-6.635,12.105-6.947
									c3.689-0.271,6.787,1.15,9.23,3.761c2.427,2.579,4.208,6.324,5.31,10.771c0.567,2.307,0.95,4.807,1.142,7.426
									C163.751,175.242,158.76,185.893,149.538,186.564z"/>
								<path id="XMLID_95_" style="fill:#E07E8E;" d="M161.683,155.033c-6.955,3.306-17.63-1.892-17.63-1.892
									c-2.348,6.843-9.59,11.123-9.59,11.123l-1.469-4.424l1.381-11.554l0.088-0.751l0.575-0.088l21.335-3.186
									C158.8,146.84,160.581,150.585,161.683,155.033z"/>
							</g>
							<path id="XMLID_80_" style="fill:#01112C;" d="M142.302,145.98c-23.694-10.596-16.999,20.107-16.999,20.107
								c1.3,12.943-9.774,16.131-9.774,16.131s-20.829,4.565-0.965,11.186c19.864,6.621,24.362-10.045,20.564-17.748
								c-1.603-3.252-1.275-7.769-0.364-11.906C142.366,158.416,142.302,145.98,142.302,145.98z"/>
							<g id="XMLID_109_">
								<path id="XMLID_25_" style="fill:#01112C;" d="M147.67,167.369c0,0.779-0.337,1.411-0.753,1.411
									c-0.416,0-0.753-0.632-0.753-1.411c0-0.779,0.337-1.411,0.753-1.411C147.333,165.958,147.67,166.589,147.67,167.369z"/>
								<ellipse id="XMLID_78_" style="fill:#01112C;" cx="159.867" cy="167.43" rx="0.753" ry="1.411"/>
								<g id="XMLID_93_">
									<g id="XMLID_91_">
										<g>
											
												<path id="XMLID_133_" style="fill:none;stroke:#01112C;stroke-linecap:round;stroke-linejoin:round;stroke-miterlimit:10;" d="
												M158.525,161.254c1.127-0.662,2.653-0.567,3.689,0.229"/>
											
												<path id="XMLID_132_" style="fill:none;stroke:#01112C;stroke-linecap:round;stroke-linejoin:round;stroke-miterlimit:10;" d="
												M143.892,161.192c1.428-0.963,3.3-1.237,4.944-0.724"/>
											
												<path id="XMLID_131_" style="fill:none;stroke:#01112C;stroke-linecap:round;stroke-linejoin:round;stroke-miterlimit:10;" d="
												M157.274,167.243c0.443,2.128,0.19,4.395-0.712,6.373"/>
										</g>
									</g>
									<path id="XMLID_92_" style="fill:#FFFFFF;" d="M155.068,176.047c0,0-5.305-0.214-7.73-2.745c0,0-2.758,6.084,1.498,7.523
										C152.716,182.138,155.068,176.047,155.068,176.047z"/>
								</g>
							</g>
							<g id="XMLID_106_">
								<path id="XMLID_79_" style="fill:#01112C;" d="M138.377,148.814c0,0,15.978,6.856,22.916,3.304
									c6.937-3.553-1.368-9.932-1.368-9.932l-16.009-3.25l-8.787,6.018L138.377,148.814z"/>
								<path id="XMLID_217_" style="fill:#092E4C;" d="M166.609,155.967c-1.318-5.286-4.392-12.169-11.538-15.498
									c-7.617-3.545-14.221-2.18-18.229-0.567c1.294-1.373,3.274-2.547,6.308-3.01c9.318-1.413,23.89,1.98,24.369,8.048
									C167.743,147.799,167.543,151.919,166.609,155.967z"/>
							</g>
						</g>
					</g>
				</g>
			</g>
		</g>
	</g>
</g>
</svg>
