<svg xmlns="http://www.w3.org/2000/svg" xmlns:xlink="http://www.w3.org/1999/xlink" width="320" height="272" viewBox="0 0 320 272">
    <defs>
        <path id="8s5hizfbwa" d="M0 0H320V271.111H0z"/>
    </defs>
    <g fill="none" fill-rule="evenodd" opacity=".2">
        <g>
            <g transform="translate(-1046 -2076) translate(1046 2076)">
                <mask id="4715i8f3qb" fill="#fff">
                    <use xlink:href="#8s5hizfbwa"/>
                </mask>
                <path fill="#F47D38" d="M72.98 145.847c-20.338-2.352-37.157-10.683-50.455-24.994C9.226 106.543 2.577 89.978 2.577 71.16c0-19.995 6.453-36.853 19.36-50.576C34.846 6.861 51.078 0 70.635 0c21.904 0 40.874 8.92 56.91 26.758 16.037 17.84 24.055 39.5 24.055 64.985 0 76.452-42.633 136.241-127.901 179.368L1.403 228.768c47.719-23.523 71.578-51.164 71.578-82.92zm168.989 0c-20.73-2.352-37.745-10.683-51.043-24.994-13.299-14.31-19.948-30.875-19.948-49.694 0-19.995 6.551-36.853 19.654-50.576C203.735 6.861 220.065 0 239.622 0c21.904 0 40.776 8.92 56.617 26.758C312.079 44.598 320 66.258 320 91.743c0 76.452-42.438 136.241-127.314 179.368l-22.882-42.343c48.11-23.523 72.165-51.164 72.165-82.92z" mask="url(#4715i8f3qb)"/>
            </g>
        </g>
    </g>
</svg>
