<?xml version="1.0" standalone="no"?>
<!DOCTYPE svg PUBLIC "-//W3C//DTD SVG 20010904//EN"
 "http://www.w3.org/TR/2001/REC-SVG-20010904/DTD/svg10.dtd">
<svg version="1.0" xmlns="http://www.w3.org/2000/svg"
 width="512.000000pt" height="512.000000pt" viewBox="0 0 512.000000 512.000000"
 preserveAspectRatio="xMidYMid meet">

<g transform="translate(0.000000,512.000000) scale(0.100000,-0.100000)"
fill="#000000" stroke="none">
<path d="M640 2560 l0 -1920 1920 0 1920 0 0 1920 0 1920 -1920 0 -1920 0 0
-1920z m3630 0 l0 -1710 -1710 0 -1710 0 0 1710 0 1710 1710 0 1710 0 0 -1710z"/>
<path d="M2367 3715 c-367 -62 -690 -303 -861 -643 -70 -139 -116 -342 -116
-512 0 -313 121 -603 344 -826 315 -315 769 -423 1194 -285 355 116 646 415
752 772 69 231 65 486 -10 711 -100 298 -329 555 -614 689 -208 97 -463 132
-689 94z"/>
</g>
</svg>
